<svg xmlns="http://www.w3.org/2000/svg" xmlns:xlink="http://www.w3.org/1999/xlink" viewBox="0 0 1106.3 862.32"><defs><style>.cls-1{fill:none;}.cls-2{fill:#1d71b7;}.cls-3{fill:#0e5caa;}.cls-4{fill:#fff;}.cls-5{fill:#177df1;}.cls-6{fill:#ffb38c;}.cls-7{fill:#ffdfc0;}.cls-8{fill:#f8fbff;}.cls-9{fill:#e56d38;}.cls-10{fill:#2082f2;}.cls-11{fill:#e2906f;}.cls-12{fill:#fc9;}.cls-13{fill:#ffd5aa;}.cls-14{isolation:isolate;}.cls-15{fill:#bcd9fb;}.cls-16{fill:#dfedfd;}.cls-17{fill:#68abf6;}.cls-18{fill:#c5dffc;}.cls-19{fill:#f3f9fe;}.cls-20{fill:#e8f2fe;}.cls-21{fill:#ffcf9f;}.cls-22{fill:#407df9;}.cls-23{fill:#378ff3;}.cls-24{opacity:0.2;}.cls-25{fill:#4597f4;}.cls-26{fill:#ffa375;}.cls-27{opacity:0.4;}.cls-28{fill:#3e93f3;}.cls-29{opacity:0.77;}.cls-30{fill:#f1f7fe;}.cls-31{opacity:0.6;}.cls-32{opacity:0.8;}.cls-33{fill:#8ac5ff;}.cls-34{opacity:0.5;}.cls-35{opacity:0.3;}.cls-36{clip-path:url(#clip-path);}.cls-37{fill:#318bf3;}.cls-38{fill:#ffbe9d;}.cls-39{fill:#c3ddfb;}.cls-40{fill:#0d569e;}.cls-41{fill:#6bacf6;}.cls-42{fill:#f96;}.cls-43{fill:#ffbc00;}.cls-44{opacity:0.48;}.cls-45,.cls-46{opacity:0.53;}.cls-45{fill:url(#linear-gradient);}.cls-46{fill:url(#linear-gradient-2);}.cls-47{fill:#4fa2ff;}.cls-48{fill:#a2cbf9;}.cls-49{fill:#ffc9ae;}.cls-50{opacity:0.3;}</style><clipPath id="clip-path"><polygon class="cls-1" points="156.52 515.22 623.59 243.79 873.76 388.22 406.69 659.65 156.52 515.22"/></clipPath><linearGradient id="linear-gradient" x1="580.18" y1="198.24" x2="579.62" y2="309.86" gradientUnits="userSpaceOnUse"><stop offset="0" stop-color="#fff"/><stop offset="1" stop-color="#4fa2ff"/></linearGradient><linearGradient id="linear-gradient-2" x1="582.94" y1="198.25" x2="582.37" y2="309.87" xlink:href="#linear-gradient"/></defs><g id="Layer_2" data-name="Layer 2"><g id="Layer_1-2" data-name="Layer 1"><path class="cls-2" d="M22.41,536.49c-3.29.74-14,8.4-17.8,12.73-.76.86-1,2.85-1,5.21a30.94,30.94,0,0,0,7,19.12c4.05,5,10.09,13.55,17.28,26.87l3.9-3.53A19.72,19.72,0,0,1,52,593.31l.26.12c-.29-1-.63-2.09-1-3.09,0,0-17.88-24.94-16.58-33.3,1.34-8.59,3.29-22.51,3.29-22.51Z"/><path class="cls-3" d="M27.75,600.54l.14-.12c-4.61-8-8.6-19.13-16.55-28.73-6.93-8.36-7.65-15-6.49-19.11,1.09-3.9,5.76-8.75,5.76-8.75-3.22.6-11.76,10.89-10.44,15.54,3.44,12.24,10.13,14,15.52,22.87,5.56,9.17,8.65,19.59,12.84,23.79,2,2,8,6.57,13.52,5.84,4.73-.64,8.17-2.92,9.63-5.49,2.2-3.88,1.82-8.52.63-12.85,1,3.82,1.33,7.86-.61,11.28-1.3,2.28-4.35,4.31-8.56,4.87-4.88.65-10.21-3.39-12-5.19A29.48,29.48,0,0,1,28.81,602C28.46,601.53,28.1,601.07,27.75,600.54Z"/><path class="cls-4" d="M31.79,596.89l-3.9,3.53-.14.12c.35.53.71,1,1.06,1.43a29.48,29.48,0,0,0,2.33,2.52c1.79,1.8,7.12,5.84,12,5.19,4.21-.56,7.26-2.59,8.56-4.87,1.94-3.42,1.64-7.46.61-11.28,0,0,0-.07,0-.1h0l-.26-.12A19.72,19.72,0,0,0,31.79,596.89Z"/><path class="cls-4" d="M20.63,559h0a6,6,0,0,0,8.61-1.26l11.63-16.54L25,531l-7,10A13.27,13.27,0,0,0,20.63,559Z"/><path class="cls-2" d="M37.64,449.09a29,29,0,0,0-10.74-4c-3.34.4-10.24-1.42-11.77,1.76-1.15,2.4-.78,2.87-2.28,6.16-4.33,9.5-7.36,28.15-9.79,37.31l4.6.21a17.25,17.25,0,0,1,14.78,10.22l.09.23c.47-.83.9-1.68,1.29-2.52,0,0,4.13-17.15,8-22.64C40.72,463.11,44,459.35,44,459.35Z"/><path class="cls-5" d="M22.15,445a9.13,9.13,0,0,0-6.45,4.95A9.13,9.13,0,0,1,22.15,445Z"/><path class="cls-3" d="M2.9,490.28h.16c2.06-7.76,6.07-17.72,9.88-26.36,2.25-5.1,1.33-11.1,3-14.56,1.53-3.18,7.63-3.91,11-4.31l.26,0h0l-9.27-.83s-4.71,0-6.74,3.69c-2.85,5.17-2.33,14.87-4.46,23.68C4.5,480.64,0,489,0,494.15c0,2.5.93,9,4.8,11.91,3.33,2.51,6.87,3.21,9.36,2.52,3.76-1.05,6.39-4.15,8.33-7.56-1.72,3-4,5.68-7.34,6.6-2.22.61-5.37,0-8.32-2.24C3.39,502.79,2.57,497,2.56,494.8a29.13,29.13,0,0,1,.12-3A15.23,15.23,0,0,1,2.9,490.28Z"/><path class="cls-4" d="M7.66,490.5l-4.6-.21H2.9a15.23,15.23,0,0,0-.22,1.53,29.13,29.13,0,0,0-.12,3c0,2.22.83,8,4.27,10.58,2.95,2.23,6.1,2.85,8.32,2.24,3.31-.92,5.62-3.6,7.34-6.6l0-.07h0l-.09-.23A17.25,17.25,0,0,0,7.66,490.5Z"/><path class="cls-4" d="M49.91,461.6l-5.75,2.32a44.76,44.76,0,0,0-6.5,2.55c-3.47,1.61-8.5-.78-10.23-4.2a10.37,10.37,0,0,1,5.29-14.35l13.49-3.34a2,2,0,0,1,2.47,1.56l2.66,13.11A2,2,0,0,1,49.91,461.6Z"/><path class="cls-3" d="M137.58,409c-14.09,17.17-85.71,31.12-103.2,34.31A5,5,0,0,0,30.26,448l-.11,1.6a24.58,24.58,0,0,0,3,13.42l3.52,6.47s107.91-19.16,128.77-37.94c16.09-14.47,17.16-96,17.16-96V292.41L139.2,310.5s2.63,39.41,2,56.1C140.83,374.58,142.64,402.84,137.58,409Z"/><path class="cls-6" d="M34.92,465l-.19-1.26c1-.16,104.09-15.95,124.52-40.25C179.12,399.84,174.08,303,174,302l1.27-.07c.22,4,5.12,98.32-15.07,122.32C139.49,448.94,39.18,464.33,34.92,465Z"/><path class="cls-3" d="M123.54,327.51S107.69,422.12,96.47,451.9c-10.29,27.29-56.6,102-56.6,102H38.45a21.06,21.06,0,0,1-21-19h0s35.06-63.58,44-86.39c12.06-30.6,11.59-90.71,11.59-90.71h0A85.49,85.49,0,0,1,65,321.45V317Z"/><path class="cls-6" d="M83.94,363.26a86.52,86.52,0,0,1-8.17-36.6v-4.47H77v4.47a85.32,85.32,0,0,0,8.06,36.06Z"/><path class="cls-6" d="M26.77,547.83l-1.07-.7C90,448.43,84,363.88,83.88,363l1.27-.1C85.22,363.78,91.33,448.77,26.77,547.83Z"/><path class="cls-3" d="M148.47,339.47l-12.26,6.13a39.09,39.09,0,0,0-17.69,17.93l-5.32,11-4.37-63.09L159.51,291Z"/><path class="cls-7" d="M240.91,238.92,234.79,236a92.34,92.34,0,0,1-50.5-68.79c-4.46-29.11-9.46-52.87-14.56-69.27a5.87,5.87,0,0,1,3.68-7.3h0a16.43,16.43,0,0,1,21.31,11.27c4.34,16.34,8.44,37,12.24,61.83a69.4,69.4,0,0,0,38,51.68l12.74,8.2Z"/><path class="cls-8" d="M207.2,142.31c1.63,5.19-4,11.27-12,13.8s-15.92.37-17.55-4.81,3.6-11.44,11.67-14S205.58,137.12,207.2,142.31Z"/><path class="cls-8" d="M197.42,105.07c-1.48-9.2-12.77-17-23.47-18.36-3.76-.48-12.11-1.56-13.54.16-3.07,3.71,5.36,14.12,6.16,19.08,1.62,10.06,9.1,40.21,10.88,42.1a16.13,16.13,0,0,0,17.3,4.15l1.72-.62a11.58,11.58,0,0,0,7.28-13.82c-1.05-4-2.14-8.48-2.77-11.75C199.64,119.07,199.38,117.27,197.42,105.07Z"/><path class="cls-8" d="M53.55,149.09c-2.32-15.7-2.94-17-2.94-17s15.11-14,20.63-18c39.24-28.8,89.55-28.51,89.55-28.51,8.35-1.71,12.89,2.15,16.81,12.88l7.31,26A60.1,60.1,0,0,1,187,144.61L183.81,195l2.41,35.57a238.55,238.55,0,0,1,2.57,26.83l1.29,33a12.82,12.82,0,0,1-7.82,12.32L149.81,316.4a3.27,3.27,0,0,1-4.54-3.11l.55-17.87-9.54,26.49-41.12,17.6a12.82,12.82,0,0,1-13-1.79L65.41,324.36a17.87,17.87,0,0,1-6.57-16.3l8.58-65.41Z"/><path class="cls-9" d="M188.79,257.38a238.55,238.55,0,0,0-2.57-26.83L183.81,195l1.95-30.44s-5.65,6.32-8.43,7.7c-12.32,6.12-52,22.29-52,22.29a32.6,32.6,0,0,1-38.79-7.47L53.74,150.32l13.68,92.33-8.58,65.41a17.87,17.87,0,0,0,6.57,16.3l16.75,13.36c1.83,1.47,6.25,2.69,6.25,2.69s4.58,0,6.75-.9l41.12-17.6,9.54-26.49-.55,17.87a3.27,3.27,0,0,0,4.54,3.11l32.45-13.73a12.82,12.82,0,0,0,7.82-12.32Z"/><path class="cls-10" d="M61.54,448.5c-1.8,4.58-4.67,10.82-8.08,17.85l-5.22,1c3.81-7.78,7-14.71,9-19.69a97.52,97.52,0,0,0,3.13-9.56c1.54-.32,3.15-.66,4.82-1A100.2,100.2,0,0,1,61.54,448.5Z"/><path class="cls-10" d="M96.47,451.9a242.34,242.34,0,0,0,7.31-25.11c2.82-.94,5.59-1.91,8.26-2.92-2.75,11.4-5.5,21.35-8,28-.4,1.07-.87,2.21-1.37,3.42q-4.26,1.08-8.46,2.1C95.07,455.42,95.84,453.57,96.47,451.9Z"/><path class="cls-11" d="M102,93.84l13.9,20.31,20.49,38.2L121,141.75a13.51,13.51,0,0,0-14.57-.48h0L94.13,152.33a3.14,3.14,0,0,1-5.06-1.28l-8-22.82A22.81,22.81,0,0,1,92.12,98.09Z"/><path class="cls-11" d="M137.31,78.53a33.51,33.51,0,0,1,31.85,19l8,12.49a1.29,1.29,0,0,1-1.35,2l-5.31-1.14a10.79,10.79,0,0,0-11.45,7.4l-8.41,26L133.44,99.7Z"/><path class="cls-7" d="M97.51,110.77h0a102.68,102.68,0,0,1,38.29,40.61h0c3,5.79,10.77,28,13.17,21.92L150,149.64a8,8,0,0,0,.56-2.93V85.18l-42.92-5.57-5.92,14.84-4.94,3.74A7.6,7.6,0,0,0,97.51,110.77Z"/><path class="cls-12" d="M150.6,85.18V110.4l-4.55,2.73a6.6,6.6,0,0,1-6.47.17l-25.44-11.92A9.79,9.79,0,0,1,110.43,98a15.22,15.22,0,0,0-1.15-1.69l-5.55-6.75,4-9.9Z"/><path class="cls-7" d="M110.21,42.27l13.33,5.56,14,2.28L151.62,42l1.94-1.11,10-2.42L161.9,71.71,160.64,91.9c.11,2.39,1,4.68-1,5.91l-12.83,7.69a6.62,6.62,0,0,1-6.48.17L114.86,93.75a9.79,9.79,0,0,1-3.71-3.43A14,14,0,0,0,110,88.63L96.3,71.94,93.81,55.69c-4-9.15,0-16.84,0-26.84l-8.83-2Z"/><path class="cls-13" d="M138.09,94.73v2.11l-12.9-5.29-1.28-2.72a38.21,38.21,0,0,0-10-13h0l-.7-6.35L110,68.33l2.36,23.51a9.49,9.49,0,0,0,2.49,1.91l25.44,11.92a6.62,6.62,0,0,0,6.48-.17l12.83-7.69c2-1.23,1.14-3.52,1-5.91l.83-13.28-15.32,5A11.68,11.68,0,0,0,138.09,94.73Z"/><path class="cls-2" d="M137,53.15h0a3,3,0,0,0-2.51-3.53l-11-1.79L108,47.39,84.94,26.86h0a8,8,0,0,1,1.86-5.14L97.69,8.64A27.91,27.91,0,0,1,120.34.11l12-.08a16.53,16.53,0,0,1,8.79,2.46c5.84,3.6,30.69,17.93,31.67,18.59.73.48-1.88,2.78-4.54,4.85a2.73,2.73,0,0,0,1.13,4.82l4.28.88L170.1,35.4A18.21,18.21,0,0,1,155.46,41l-1.9-.15-4,4.4a26.66,26.66,0,0,1-10.78,7.23Z"/><path class="cls-3" d="M123.54,47.83c-7.36.12-11,12.51-10.2,19.82l-.3,5.63L110.3,71.9l-.7-8.45a12.22,12.22,0,0,0-11-8.55c-2,4.44-.74,14.75,1.68,19L103,75.42l.71,5.57H99.87c-4.52-8.67-9.82-19.77-11.26-29.44L84.94,26.86l28.76,19.6Z"/><path class="cls-7" d="M172.92,287.26,98.38,264.77a52.9,52.9,0,0,1-36-37.71c-2.45-9.71-5.06-20.61-7.45-31.82-3.94-18.4-7.33-37.61-8.6-53.69a11.45,11.45,0,0,1,11.44-12.3h0a11.45,11.45,0,0,1,11.42,10.57c2,25.61,10.25,61.1,15.41,81.59A30.18,30.18,0,0,0,105,242.81l74.54,22.49a11.47,11.47,0,0,1,7.67,14.3h0A11.47,11.47,0,0,1,172.92,287.26Z"/><path class="cls-8" d="M75,141.6a14.42,14.42,0,0,0-19-12.51c-7.36,2.35-11.89,9.75-11.28,17.46,1.56,19.5,3.55,35.79,7.58,52.91.91,3.85,7.57,5.25,11.26,3.81l14.5-5.85a5.09,5.09,0,0,0,3.12-5.86C77.62,175.76,77.09,167.59,75,141.6Z"/><path class="cls-6" d="M77,120.86c-5.44,2.86-11.71,5.29-15.6,10.24-4.12,5.23-4.72,11.24-3.9,17.61,1.48,11.48,3.09,22.95,4.63,34.43.16,1.22,2,.7,1.84-.51l-4.08-30.4c-.91-6.77-1.78-13,2.45-19.12,3.62-5.24,10.15-7.72,15.62-10.6,1.09-.57.13-2.22-1-1.65Z"/><path class="cls-8" d="M80.63,189.46c1.88,6.11-3.37,12.83-11.26,15.26s-15.83-.54-17.72-6.65,3-13,10.89-15.48S78.75,183.35,80.63,189.46Z"/><path class="cls-7" d="M63.23,188.75h0c6.7-3,13.94,0,15.33,7.18l1.9,8.46L59.4,215l-3.27-15C55.22,194.91,58.43,190.87,63.23,188.75Z"/><path class="cls-4" d="M152.85,155.35l-14.42,7.73c-1.63.87-.18,3.35,1.45,2.48l14.42-7.73c1.63-.87.18-3.35-1.45-2.48Z"/><path class="cls-4" d="M153.23,163.42l-14.43,7.73c-1.63.87-.18,3.35,1.45,2.48l14.42-7.73c1.63-.87.18-3.35-1.44-2.48Z"/><g class="cls-14"><path class="cls-15" d="M326.37,283.55a3.41,3.41,0,0,1-2,2.81L230,340.84a7.6,7.6,0,0,1-1,.49l-.17.06a9.53,9.53,0,0,1-.95.29l-.2.05a9.53,9.53,0,0,1-1.09.18l-.17,0c-.38,0-.75.06-1.13.07h-.19a10.88,10.88,0,0,1-1.14-.06l-.21,0a8,8,0,0,1-.83-.14l-.68-.17c-.21-.06-.43-.12-.64-.2l-.26-.1a7.05,7.05,0,0,1-1-.45l-56.93-33.09a4.67,4.67,0,0,1-.43-.3,4.42,4.42,0,0,1-.47-.35,4.19,4.19,0,0,1-.54-.59l-.08-.12a2.67,2.67,0,0,1-.32-.63.24.24,0,0,1,0-.08,2.09,2.09,0,0,1-.12-.69v2.6a2.58,2.58,0,0,0,0,.4c0,.08.05.16.07.24l0,.08s0,0,0,.06a3.39,3.39,0,0,0,.18.39l.13.18a.44.44,0,0,0,.08.11.41.41,0,0,0,.07.11,3.57,3.57,0,0,0,.42.46l0,0a5.92,5.92,0,0,0,.48.35c.12.08.21.18.34.25l.08.05,56.94,33.09a7.53,7.53,0,0,0,1,.45l.27.1.28.11c.11,0,.24.06.36.09l.68.17a2.27,2.27,0,0,0,.25.06,5.77,5.77,0,0,0,.58.08l.2,0H224c.25,0,.5,0,.76.05h.69l.68,0,.25,0,.17,0,.24,0,.68-.12.17-.05.2,0c.11,0,.23-.05.34-.09l.61-.2.16-.06.06,0a6.79,6.79,0,0,0,1-.47l94.36-54.48a3.41,3.41,0,0,0,2-2.81Z"/><path class="cls-16" d="M163.45,302.17c-2.68,1.54-2.69,4,0,5.58l56.93,33.09a10.62,10.62,0,0,0,9.66,0l94.36-54.48c2.67-1.54,2.68-4,0-5.59l-56.94-33.09a10.6,10.6,0,0,0-9.64,0Z"/><path class="cls-17" d="M272.2,265.17a8.21,8.21,0,0,0-7.43,0l-72.72,42c-2.06,1.19-2.07,3.12,0,4.31L235.9,337c.14.08.29.14.44.21l80.1-46.25a3.32,3.32,0,0,0-.36-.26Z"/><path class="cls-18" d="M206.77,281.59a.58.58,0,0,0,0,1.1l11.67,6.78a2.16,2.16,0,0,0,1.95,0l19.32-11.15a.59.59,0,0,0,0-1.11l-11.66-6.78a2.16,2.16,0,0,0-2,0Z"/></g><g class="cls-14"><path class="cls-19" d="M337.54,220.17l-.06,0-.11-.07-.12-.05-.12-.05H337l-.14,0h-.51l-.21,0-.25.06-.19.07,0,0-.07,0a3.05,3.05,0,0,0-.42.19,3.13,3.13,0,0,0-.36.19l-95.6,55.19a8.12,8.12,0,0,0-.95.66l-.1.07-.45.38-.07.07-.06.05-.2.19a2.23,2.23,0,0,0-.26.27l-.24.25h0l-.21.23-.2.24-.18.23-.08.1,0,0-.08.09-.16.23-.16.23-.16.24,0,0,0,0a1.74,1.74,0,0,1-.11.18l-.14.25a2.15,2.15,0,0,0-.14.26l-.09.16,0,0,0,.07c0,.1-.1.2-.14.3s-.1.22-.14.33a.76.76,0,0,0,0,.11.3.3,0,0,1,0,.1l-.07.22q-.09.28-.15.57l-12,59a2.52,2.52,0,0,0,.13,1.69,1.07,1.07,0,0,0,.27.32l1.08.89a2,2,0,0,1-.41-2l11.95-59a5,5,0,0,1,.23-.79l0-.1a7.17,7.17,0,0,1,.36-.81l0,0c.14-.28.3-.57.47-.85l0,0c.18-.28.37-.56.58-.84l0,0c.21-.27.44-.54.67-.8h0c.23-.25.47-.48.71-.71l.06-.06c.2-.18.41-.35.62-.51a8.12,8.12,0,0,1,1-.66l95.6-55.2a5.82,5.82,0,0,1,.85-.4h0a3.16,3.16,0,0,1,.72-.18h0a2,2,0,0,1,.61,0h0a1.35,1.35,0,0,1,.48.24Z"/><path class="cls-18" d="M335.87,221.38c2.18-1.25,3.59-.5,3.15,1.68l-11.95,59a10.88,10.88,0,0,1-4.75,6.24l-95.6,55.2c-2.17,1.25-3.58.5-3.13-1.69l11.94-59a10.88,10.88,0,0,1,4.74-6.23Z"/></g><path class="cls-4" d="M292.63,274.7l-10.52,6.07a9.22,9.22,0,0,0-4,5.26L276,296.58c-.37,1.84.82,2.48,2.65,1.42l10.52-6.07a9.17,9.17,0,0,0,4-5.25l2.14-10.56c.38-1.84-.81-2.48-2.64-1.42Z"/><path class="cls-20" d="M292.08,274.7l-10.51,6.07a9.13,9.13,0,0,0-4,5.26l-2.14,10.55c-.37,1.84.81,2.48,2.65,1.42l10.51-6.07a9.14,9.14,0,0,0,4-5.25l2.14-10.56c.37-1.84-.81-2.48-2.65-1.42Z"/><path class="cls-7" d="M185.12,266.1l-17,19.53,30.85,10.07a15,15,0,0,0,16.62-5.17l4.72-6.18a6.51,6.51,0,0,0-3.58-10.27Z"/><path class="cls-7" d="M198.92,261l-18.11,6.77,12.25,3.88,10.21-4.93a3.06,3.06,0,0,0,0-5.52h0A5.59,5.59,0,0,0,198.92,261Z"/><path class="cls-7" d="M250.43,221.06l-6.83,2a9.54,9.54,0,0,0-4.75,15.2l11.38,14A15,15,0,0,0,267,256.84l7.32-2.65a6.51,6.51,0,0,0,2.54-10.57L257.6,223A7.08,7.08,0,0,0,250.43,221.06Z"/><path class="cls-7" d="M236.93,248l.31-19.33L245,238.86l-1.23,11.27a3.06,3.06,0,0,1-5.2,1.84h0A5.55,5.55,0,0,1,236.93,248Z"/><path class="cls-21" d="M149.11,55,157,75.64a2,2,0,0,1-1.3,2.58h0a9.36,9.36,0,0,1-7.59-1.12l-1.65-1-1.66-18.71a3.26,3.26,0,0,1,1.71-3.16l.22-.11A1.73,1.73,0,0,1,149.11,55Z"/><path class="cls-22" d="M159.75,58.5l-2.91,1.64a1.19,1.19,0,0,1-1.78-1v-7a1.19,1.19,0,0,1,.61-1l2.9-1.64a1.2,1.2,0,0,1,1.79,1v7A1.21,1.21,0,0,1,159.75,58.5Z"/><polygon class="cls-23" points="164.13 49.27 150.81 55.57 150.6 52.34 163.92 46.04 164.13 49.27"/><path class="cls-22" d="M138.43,66.78l-2.91,1.64a1.19,1.19,0,0,1-1.78-1v-7a1.2,1.2,0,0,1,.61-1l2.91-1.64a1.2,1.2,0,0,1,1.78,1v7A1.19,1.19,0,0,1,138.43,66.78Z"/><polygon class="cls-23" points="141.97 58.42 128.66 64.72 128.45 61.49 141.77 55.19 141.97 58.42"/><path class="cls-21" d="M153.56,92.35l-2.9.88c-.43.13-1,0-1-.3v-2c0-.13.13-.24.33-.3l2.89-.88c.44-.13,1,0,1,.29v2C153.89,92.17,153.76,92.29,153.56,92.35Z"/><path class="cls-23" d="M146.55,89.93a9.63,9.63,0,0,1-2.77-.41l-2.26-.69a.64.64,0,0,1-.43-.79h0a.64.64,0,0,1,.79-.43l2.27.69a8.3,8.3,0,0,0,4.71,0l6-2.41a.9.9,0,0,1,1.17.5h0a.36.36,0,0,1-.2.48l-6.55,2.63A9.83,9.83,0,0,1,146.55,89.93Z"/><polygon class="cls-6" points="105.27 57.38 132.4 63.88 132.4 66.48 107.86 60.18 105.27 57.38"/><path class="cls-6" d="M169.48,46.06a1.52,1.52,0,0,0-2.36-1.48l-12.61,6.28a4.49,4.49,0,0,0-2.12,2.86l-4.18,2a1.47,1.47,0,0,0-2.19-.64l-12.6,6.28a4.46,4.46,0,0,0-2.24,3.77l.21,8.84c-.21,5,3.61,4.83,4.88,4.2L142.65,75a10.29,10.29,0,0,0,5.93-10l-.16-6.81,3.9-1.85.16,6.71c.09,3.84,2.89,5.59,6.25,3.92l8.81-4.39a4.48,4.48,0,0,0,2.24-3.78ZM142.6,72.83l-7.06,3.52A1.41,1.41,0,0,1,133.33,75l-.26-10.82a.81.81,0,0,1,.41-.67l12.59-6.27a.26.26,0,0,1,.42.25l.2,8.46A8.14,8.14,0,0,1,142.6,72.83ZM166,61.2,158.19,65c-2.31,1.16-3.76-.26-3.82-2.9l-.2-8.46a.76.76,0,0,1,.39-.65l12.6-6.28a.28.28,0,0,1,.43.26l.26,11.07A3.75,3.75,0,0,1,166,61.2Z"/><g class="cls-24"><path class="cls-25" d="M94.54,687a72.25,72.25,0,0,0-9.35-2.3,31.32,31.32,0,0,0-9-4.34c-16.58-5.41-43.39-5.41-59.86,0s-16.4,14.19.19,19.6a72.25,72.25,0,0,0,9.35,2.3,31,31,0,0,0,9,4.33c16.59,5.42,43.4,5.42,59.88,0S111.13,692.41,94.54,687Z"/></g><path class="cls-3" d="M1026.62,130.57a22.11,22.11,0,0,0-5,.59c1.3-12.94,1.93-25.12,1.93-34.89,0-41.78-21-75.65-46.88-75.65-66.23,0-46.88,33.87-46.88,75.65S930,211.66,985.24,215c9.55.57,18-2.66,23.79-19.53,4.82,5,10.93,8,17.59,8,15.55,0,28.16-16.31,28.16-36.42S1042.17,130.57,1026.62,130.57Z"/><path class="cls-7" d="M923.29,117.82c-3.66,28.7-6,54.42-23.31,79.34-12.83,18.48-32.43,32.83-49.11,47.69-9.21,8.19,4.35,21.67,13.51,13.51,11.49-10.23,23.32-20.17,34.46-30.78,23.11-22,36.06-51,40.06-82.29q1.76-13.72,3.5-27.47c.66-5.13-4.86-9.56-9.55-9.56-5.71,0-8.9,4.42-9.56,9.56Z"/><path class="cls-4" d="M907.87,164.35c-.48,2.06.34,4.24,2.09,6.21,2.29,2.58,6.29,4.31,11,5.39s8.77,1.3,11.94.09c2.59-1,4.4-2.64,4.89-4.78,1.1-4.76-4.7-10.16-13-12.07S909,159.59,907.87,164.35Z"/><path class="cls-8" d="M920.4,107.91h17.5a3.53,3.53,0,0,1,3.53,3.53v58.24a3.23,3.23,0,0,1-3.23,3.23H920.1a3.23,3.23,0,0,1-3.23-3.23V111.44a3.53,3.53,0,0,1,3.53-3.53Z" transform="translate(55.47 -205.6) rotate(13.01)"/><path class="cls-2" d="M1095.61,524.06l5.55,3.45c2.5,4,4.82,8.4,4.09,12.06a5.57,5.57,0,0,0-1.59,3.39c-1.57,8.8-5.41,29.31-8.12,35l-2.52,5.3a33.65,33.65,0,0,1-16.33,16.11h0a22.7,22.7,0,0,1-5-19.43l9-43,11.17-12.35A2.93,2.93,0,0,1,1095.61,524.06Z"/><path class="cls-7" d="M1089.67,540.84h0a6,6,0,0,1-8.61-1.26L1069.43,523l15.92-10.2,7,10A13.27,13.27,0,0,1,1089.67,540.84Z"/><path class="cls-2" d="M1080.5,491h0V430.79a4.22,4.22,0,0,1,4.23-4.22h8.78c2.26,0,6.64,2.68,6.64,4.93l-2.55,42.42A17.1,17.1,0,0,1,1080.5,491Z"/><path class="cls-7" d="M1091.31,442c0-7-3.84-10.45-10.81-10.45v37.06c4.18-.88,6.79-1.11,10.75.85q.06-.62.06-1.26Z"/><path class="cls-7" d="M1068.1,445.13l6,1.75a46,46,0,0,1,6.71,1.91c3.61,1.27,8.39-1.6,9.78-5.17,2.52-6.44-1.55-12.11-6.66-13.77l-13.75-2a2,2,0,0,0-2.31,1.79l-1.37,13.31A2,2,0,0,0,1068.1,445.13Z"/><path class="cls-3" d="M972.73,390.82c13.8,16.82,82.83,30.56,102.07,34.11a6.53,6.53,0,0,1,5.32,6h0a26,26,0,0,1-3.12,14.24l-2.8,5.13a1.48,1.48,0,0,1-1.58.76c-11.21-2-107.11-21.18-127.71-37.75-20-16.05-2.72-138.21-2.72-138.21l47.18.82c1,.07,12.37,8.52,12.1,9.43C999,293.7,982,338,978.89,351.17,976.43,361.63,967.66,384.64,972.73,390.82Z"/><path class="cls-26" d="M1075.38,446.77l.19-1.26c-1-.15-104.82-15.35-124.52-40.25-14.32-18.09,8.33-123.35,8.38-124.33l-1.27-.06c-.22,4-21.74,109.34-8.09,125.21C971.09,430.51,1071.12,446.13,1075.38,446.77Z"/><path class="cls-3" d="M969.66,286.05s33,117.87,44.17,147.65c10.29,27.29,56.6,102,56.6,102h1.42a21,21,0,0,0,21-19h0s-35.06-63.58-44-86.39c-6.63-16.83-9.48-42.61-10.69-62.38a140.06,140.06,0,0,1,4.54-43.45c1.77-6.91,2.67-26.78,2.67-34l-1.46-13.39Z"/><path class="cls-26" d="M1026.36,345.06c5.35-11.37,8.17-36.77,8.17-49.34v-4.47h-1.27v4.47c0,12.38-2.78,37.59-8,48.8Z"/><path class="cls-26" d="M1083.53,529.63l1.07-.7c-64.32-98.7-58.25-183.24-58.18-184.09l-1.27-.1C1025.08,345.59,1019,430.57,1083.53,529.63Z"/><path class="cls-3" d="M953.93,273.8a143.87,143.87,0,0,0,28.66,58.88c4.36,5.36,8,10.18,9.2,12.65h0a3.17,3.17,0,0,0,6-1.2l3.54-61.38a3.17,3.17,0,0,0-2-3.12l-42.94-17.32a3.17,3.17,0,0,0-4.28,3.64Z"/><path class="cls-9" d="M1038.9,155.83s4.52-7-15.2-15.32c-14.79-6.21-41.79-18.44-62-27.71a25.41,25.41,0,0,0-34.81,15.51L925.39,133a60,60,0,0,0-2.13,20.18S929.15,200.41,935,215c10.12,25.3,6.83,54.29,6.83,54.29,0,6.43-.26,7.17,5.55,9.93,0,0,68.73,34.66,93.72,3.64,1.92-2.39,2.88-4.52,2.72-5.76h0c-19.87-38.71-18.84-43.37-11.19-86.21Z"/><path class="cls-11" d="M1041.1,282.88c1.82-2.47,2.88-4.52,2.72-5.76-18.47-36-18.88-37.18-12.7-77.14h0l-21,21.45a19.53,19.53,0,0,1-22.4,3.93L982,222.61s29.35,21.6,28.35,40.65c-.74,14-1.28,24.33-1.59,31.94C1021.71,295.61,1034.07,292.45,1041.1,282.88Z"/><g class="cls-27"><path class="cls-28" d="M1048.76,430.3c1.8,4.58,4.67,10.82,8.08,17.85l5.22,1c-3.81-7.78-7-14.7-9-19.68a95.73,95.73,0,0,1-3.14-9.56l-4.81-1A100,100,0,0,0,1048.76,430.3Z"/></g><g class="cls-27"><path class="cls-28" d="M1013.83,433.7a240.63,240.63,0,0,1-7.3-25.1c-2.83-.94-5.6-1.92-8.27-2.93,2.76,11.41,5.51,21.35,8,28,.41,1.07.87,2.22,1.38,3.42q4.25,1.1,8.45,2.11C1015.23,437.23,1014.46,435.37,1013.83,433.7Z"/></g><path class="cls-7" d="M988.27,151.85c-6.52,6.63-27.62,24.92-27.62,24.92s-9.25-25.91-9.48-35c-.2-8,6.36-29.22,8.39-30.77l10.2,4.49,31.43,14.7C1004.77,132.93,992.69,147.36,988.27,151.85Z"/><path class="cls-7" d="M1018.06,156.5q-5.62,44.15-11.26,88.29l4.73-8.25L940.29,283.7c-10.21,6.76-.65,23.32,9.65,16.5l64.62-42.78c3-2,7.09-4,9.3-6.84,2.41-3.12,2.43-8.77,2.93-12.69l5.79-45.4,4.59-36c.66-5.13-4.86-9.56-9.55-9.56-5.71,0-8.9,4.41-9.56,9.56Z"/><path class="cls-9" d="M916.56,177.7c-2.94,7-1.07,15.37,4.45,20l16.42,19.56,1.64-72.28Z"/><path class="cls-7" d="M1092.88,566.78l5.1-28.09a14.93,14.93,0,0,0-2.43-11.2l-2.75-4-10.72,14.9L1074.65,576a14.57,14.57,0,0,1,10.88,1.64l.29.17A17,17,0,0,0,1092.88,566.78Z"/><path class="cls-28" d="M1101.66,434h-9.39v-7.46h7.22a2.17,2.17,0,0,1,2.17,2.17Z"/><path class="cls-12" d="M972.64,140.79h0a10.93,10.93,0,0,1-10.93-10.93V108.94L983.58,71.4v58.46A10.93,10.93,0,0,1,972.64,140.79Z"/><path class="cls-7" d="M937.85,55.19,936,66.39a72.67,72.67,0,0,0,4.42,39.42l5.17,12.61a4.28,4.28,0,0,0,3.79,2.67s3,1.35,9.74,0,17.42-5.13,21.78-7.93c7.7-4.94,7.7-27.24,7.7-27.24V50.84Z"/><ellipse class="cls-3" cx="961.56" cy="50.84" rx="38.73" ry="18.71"/><ellipse class="cls-2" cx="959.1" cy="40.61" rx="28.87" ry="10.95"/><path class="cls-2" d="M1012.41,112.63a14.67,14.67,0,0,1-7.41-2.23c-20.56-12-20.79-45-20.63-51.47l6.22-3.23c-.09,3.59-.22,38.77,17.63,49.2,3.59,2.1,6.38,1.75,8.32-1,2.42-3.49,2.25-9-.35-11.14-1.64-1.34-10.29-5.37-7.46-6.64a11.13,11.13,0,0,1,11.5,1.72c5.72,4.69,5.4,14.15,1.54,19.7A11.4,11.4,0,0,1,1012.41,112.63Z"/><path class="cls-3" d="M1015,110.37a14.66,14.66,0,0,1-7.41-2.24c-20.57-12-20.8-45-20.64-51.47l6.23-3.23c-.09,3.6-.22,38.77,17.62,49.2,3.59,2.1,6.39,1.76,8.32-1,2.43-3.49,2.26-9-.34-11.13a4.79,4.79,0,0,0-4.86-.84h0a8.71,8.71,0,0,1-3.92.81l-3.37-.14a7.5,7.5,0,0,1,4.69-6.49,11.15,11.15,0,0,1,11.51,1.72c5.71,4.69,5.39,14.15,1.53,19.7A11.37,11.37,0,0,1,1015,110.37Z"/><g class="cls-29"><path class="cls-21" d="M955,111.54c0,.78-.93,1.41-2.08,1.41s-2.07-.63-2.07-1.41.93-1.41,2.07-1.41S955,110.76,955,111.54Z"/></g><path class="cls-23" d="M955.25,108.54c-4.75.41-6.61-1.21-7-2a.65.65,0,0,1,.06-.87h0a.6.6,0,0,1,.79,0c.66.69,2.36,2.06,6.06,1.62,4.22-.69,6-2.67,6.33-3.14a.58.58,0,0,1,.72-.22h0a.59.59,0,0,1,.25.88A10.84,10.84,0,0,1,955.25,108.54Z"/><path class="cls-21" d="M953.25,85.63a1.19,1.19,0,0,0-2.22-.49l-5.11,8.77a2.81,2.81,0,0,0,2.4,4.22l3.4-.55a2.8,2.8,0,0,0,2.34-3Z"/><path class="cls-23" d="M961.56,89c2.48-.48,8.87-.7,11.12.74,2.08,1.32,1.18-1.21-.89-2.53-3.27-2.08-6.41-1-10-.36-2.42.46-3.7,2.61-1.29,2.15Z"/><path class="cls-23" d="M936.05,81.73c1.39.44,8.13,3,9.32,3.63,1,.53.45-2-2.47-3.46a29.09,29.09,0,0,0-4.66-2.11c-2.35-.75-3.89.72-1.55,1.46Z"/><path class="cls-7" d="M981.75,90.2c1.63,2.82,6,3.34,9.77,1.17s5.51-6.23,3.88-9.05-6-3.34-9.77-1.16S980.12,87.39,981.75,90.2Z"/><path class="cls-4" d="M1006.27,203.1c-.31,2.09.68,4.2,2.58,6,2.49,2.39,6.61,3.8,11.36,4.51s8.85.6,11.91-.86c2.5-1.19,4.18-3,4.5-5.15.72-4.83-5.49-9.76-13.87-11S1007,198.27,1006.27,203.1Z"/><path class="cls-8" d="M1016.84,145h17.5a3.53,3.53,0,0,1,3.53,3.53v58.24a3.23,3.23,0,0,1-3.23,3.23h-18.09a3.23,3.23,0,0,1-3.23-3.23V148.58a3.53,3.53,0,0,1,3.53-3.53Z" transform="translate(37.34 -149.13) rotate(8.47)"/><path class="cls-7" d="M852.32,246.86l6.26,3.39a9.55,9.55,0,0,1,1.4,15.87l-14.09,11.22a15,15,0,0,1-17.38,1l-6.58-4.14a6.51,6.51,0,0,1-.24-10.87l23.2-16A7.11,7.11,0,0,1,852.32,246.86Z"/><path class="cls-7" d="M859.79,276l3.81-18.95-9.76,8.36-1.2,11.27a3.06,3.06,0,0,0,4.69,2.9h0A5.56,5.56,0,0,0,859.79,276Z"/><path class="cls-7" d="M951.49,276.53l-8.77,3.13-4.57-.5h0l-14.63-1.58a5.54,5.54,0,0,0-4.16,1.27,3.06,3.06,0,0,0,1.35,5.34l5.95,1.21-17.12,9.29a6.52,6.52,0,0,0-.93,10.84l6.11,4.82a15,15,0,0,0,17.38.9l27.39-17.38Z"/><g class="cls-14"><path class="cls-15" d="M770.58,290.61a3.43,3.43,0,0,0,2,2.82L867,347.91a7.6,7.6,0,0,0,1,.49l.17.06a9.5,9.5,0,0,0,1,.28l.2.05a9.53,9.53,0,0,0,1.09.19l.17,0a10.69,10.69,0,0,0,1.13.06h.19A10.88,10.88,0,0,0,873,349l.21,0,.83-.14.68-.17c.21-.06.43-.12.64-.2l.26-.1a7.05,7.05,0,0,0,1-.45l56.93-33.09a4.67,4.67,0,0,0,.43-.3c.16-.12.33-.23.47-.35a3.76,3.76,0,0,0,.54-.6,1,1,0,0,0,.08-.11,3.12,3.12,0,0,0,.32-.63s0-.05,0-.08a2.1,2.1,0,0,0,.12-.7v2.61a2.58,2.58,0,0,1,0,.39c0,.09-.05.17-.07.25l0,.08s0,0,0,.06a2.64,2.64,0,0,1-.18.38c0,.07-.09.13-.13.19a.76.76,0,0,1-.08.11.41.41,0,0,1-.07.11,3,3,0,0,1-.42.45.1.1,0,0,1-.05,0c-.13.12-.31.23-.47.35s-.21.17-.34.25l-.08.05L876.6,350.46a7.53,7.53,0,0,1-1,.45l-.27.1-.28.11-.36.09-.68.17a2.27,2.27,0,0,0-.25.06l-.58.08-.2,0h-.09l-.76.05h-.69c-.23,0-.45,0-.68,0l-.25,0-.17,0-.24,0-.68-.11-.17-.05-.2,0-.34-.08-.61-.2L868,351l-.06,0a8,8,0,0,1-1-.47L772.59,296a3.43,3.43,0,0,1-2-2.82Z"/><path class="cls-30" d="M933.5,309.24c2.68,1.54,2.69,4,0,5.58l-56.93,33.09a10.68,10.68,0,0,1-9.66,0l-94.36-54.48c-2.67-1.54-2.69-4.05,0-5.59l56.94-33.09a10.6,10.6,0,0,1,9.64,0Z"/><path class="cls-7" d="M851.47,247.38l6.26,3.4a9.54,9.54,0,0,1,1.4,15.86L845,277.86a15,15,0,0,1-17.37,1l-6.59-4.15a6.51,6.51,0,0,1-.24-10.87l23.21-16A7.09,7.09,0,0,1,851.47,247.38Z"/><path class="cls-7" d="M858.94,276.53l3.82-18.95L853,265.94l-1.19,11.27a3.06,3.06,0,0,0,4.68,2.91h0A5.54,5.54,0,0,0,858.94,276.53Z"/><path class="cls-7" d="M950.65,277.05l-8.77,3.13-4.57-.49h0l-14.63-1.58a5.52,5.52,0,0,0-4.16,1.26,3.06,3.06,0,0,0,1.36,5.35l5.94,1.2-17.12,9.3a6.51,6.51,0,0,0-.93,10.83l6.11,4.83a15,15,0,0,0,17.38.89l27.4-17.38Z"/><path class="cls-17" d="M824.75,272.24a8.18,8.18,0,0,1,7.43,0l72.72,42c2.06,1.19,2.07,3.12,0,4.3L861.05,344c-.14.08-.29.14-.44.21L780.51,298a3.32,3.32,0,0,1,.36-.26Z"/><path class="cls-18" d="M890.18,288.65a.59.59,0,0,1,0,1.11l-11.67,6.78a2.16,2.16,0,0,1-2,0l-19.32-11.15a.59.59,0,0,1,0-1.11l11.66-6.78a2.16,2.16,0,0,1,2,0Z"/></g><g class="cls-14"><path class="cls-19" d="M759.41,227.24l.06-.05.11-.07.12-.06.12,0,.07,0H760l.14,0h.16a.86.86,0,0,1,.16,0h.19l.21,0,.25.06.19.07h0l.07,0,.42.19.36.19,95.6,55.2a8.12,8.12,0,0,1,1,.66l.1.06c.15.13.3.25.45.39l.07.07.06.05.2.18.26.27.24.26h0l.21.23.2.24.18.23.08.1,0,0,.08.1.16.23.16.23c.06.08.11.16.16.24l0,0,0,0a1,1,0,0,0,.11.17,2,2,0,0,0,.14.25l.14.26.09.17,0,0,0,.07c.05.1.1.19.14.29s.1.23.14.34a.49.49,0,0,1,0,.11.42.42,0,0,0,0,.1c0,.07.05.14.07.22s.11.38.15.57l12,59a2.49,2.49,0,0,1-.13,1.68,1.26,1.26,0,0,1-.27.33l-1.08.89a2,2,0,0,0,.4-2l-11.94-59a4.89,4.89,0,0,0-.23-.78l0-.1a8.2,8.2,0,0,0-.36-.82l0,0a8,8,0,0,0-.48-.85v0a9.64,9.64,0,0,0-.58-.84l0,0c-.21-.28-.44-.54-.67-.8h0a9.39,9.39,0,0,0-.7-.71l-.06-.06c-.2-.18-.41-.35-.62-.52a8,8,0,0,0-1-.65l-95.6-55.2a5.82,5.82,0,0,0-.85-.4l0,0a3.1,3.1,0,0,0-.72-.17h0a1.53,1.53,0,0,0-.61,0h0a1.21,1.21,0,0,0-.48.24Z"/><path class="cls-18" d="M761.08,228.45c-2.18-1.26-3.59-.5-3.15,1.68l12,59a10.88,10.88,0,0,0,4.75,6.24l95.6,55.2c2.17,1.25,3.58.5,3.13-1.69l-11.94-59a10.86,10.86,0,0,0-4.74-6.22Z"/></g><path class="cls-4" d="M804.32,281.77l10.52,6.07a9.23,9.23,0,0,1,4,5.25L821,303.65c.37,1.84-.82,2.48-2.65,1.42L807.81,299a9.19,9.19,0,0,1-4-5.26l-2.14-10.55c-.38-1.85.81-2.48,2.64-1.42Z"/><path class="cls-20" d="M804.87,281.77l10.51,6.07a9.14,9.14,0,0,1,4,5.25l2.14,10.56c.37,1.84-.81,2.48-2.65,1.42L808.36,299a9.16,9.16,0,0,1-4-5.26l-2.14-10.55c-.37-1.85.81-2.48,2.65-1.42Z"/><g class="cls-31"><g class="cls-32"><path class="cls-33" d="M820.53,271.5a3.48,3.48,0,0,1-1.75-.55l-73.93-42.69a9,9,0,0,1-4-5.25l-9.24-45.61a2,2,0,0,1,.61-2.22c.38-.28,1.26-.62,2.76.25l73.94,42.69a9,9,0,0,1,4,5.24L822.15,269a2,2,0,0,1-.61,2.23A1.73,1.73,0,0,1,820.53,271.5Zm-87.28-95.36a.48.48,0,0,0-.27.07c-.15.11-.19.48-.1.94l9.24,45.61a7.8,7.8,0,0,0,3.36,4.4l73.94,42.68c.7.41,1.19.46,1.38.32s.19-.48.1-.94l-9.24-45.61a7.81,7.81,0,0,0-3.36-4.39l-73.93-42.69A2.55,2.55,0,0,0,733.25,176.14Z"/></g><path class="cls-33" d="M648.08,46.58c-1.69-1-2.77-.39-2.43,1.3l9.24,45.61a8.38,8.38,0,0,0,3.67,4.82L732.49,141c1.68,1,2.77.39,2.43-1.31l-9.24-45.6A8.42,8.42,0,0,0,722,89.27Z"/></g><g class="cls-34"><path class="cls-33" d="M752,166c-1.68-1-2.77-.4-2.43,1.29l9.24,45.61a8.42,8.42,0,0,0,3.67,4.82l73.94,42.69c1.68,1,2.77.39,2.42-1.3l-9.23-45.61a8.46,8.46,0,0,0-3.67-4.82Z"/></g><path class="cls-23" d="M959.89,78.7c1.27-.23,8.72,2.86,11.4,3.08Z"/><path class="cls-23" d="M959.89,79.18c1.75-.13,4,1,5.57,1.52a29.5,29.5,0,0,0,5.83,1.55c.61.07.6-.88,0-1a34.65,34.65,0,0,1-6.62-1.86c-1.44-.47-3.23-1.33-4.78-1.22-.61,0-.61,1,0,1Z"/><path class="cls-23" d="M936.71,75.65c2.07.13,6.2.16,8.27.06Z"/><path class="cls-23" d="M936.71,76.13c2.75.15,5.52.18,8.27.06.61,0,.62-1,0-1-2.75.11-5.52.09-8.27-.07-.61,0-.61.92,0,1Z"/><g class="cls-35"><path class="cls-28" d="M867.28,587.16c8.6,5,8.64,13,.1,18L431.27,858.59c-8.55,5-22.46,5-31.06,0l-219-126.44c-8.6-5-8.64-13-.09-18L617.22,460.72c8.55-5,22.44-5,31,0Z"/></g><g class="cls-14"><g class="cls-36"><path class="cls-3" d="M293.31,577.9c-7.53-4.35-7.55-11.39-.07-15.74l4.68-2.72c7.49-4.35,19.64-4.36,27.17,0l4.72,2.72c7.53,4.35,7.57,11.4.09,15.75l-4.69,2.72c-7.48,4.35-19.65,4.35-27.18,0l-4.72-2.72ZM710.79,345.2l108,62.32L757.37,443.2,726.69,461,451.1,621.18,222.8,489.37,590.45,275.71,710.79,345.2Zm-15.64-29.67,6.57-3.82,54.52,31.48L749.67,347l-54.52-31.48Zm163,63.7-219-126.44c-8.6-5-22.51-5-31,0L172,506.23c-8.54,5-8.49,13,.12,18l219,126.44c8.6,5,22.5,5,31,0L858.29,397.22c8.54-5,8.5-13-.11-18Z"/><polygon class="cls-8" points="590.45 275.71 222.8 489.37 451.1 621.18 726.69 461.02 618.73 398.69 579.25 421.64 682.39 481.19 612.92 521.56 509.78 462.01 434.48 505.77 537.62 565.32 476.25 600.98 373.11 541.43 352.57 553.37 232.23 483.89 498.39 329.21 529.07 311.39 590.45 275.71 590.45 275.71"/><polygon class="cls-37" points="756.24 343.19 701.72 311.71 695.15 315.53 749.67 347 756.24 343.19 756.24 343.19"/><path class="cls-37" d="M324.54,567.36l-8.41-4.86a10.19,10.19,0,0,0-9.22,0l-8.36,4.86c-2.53,1.47-2.52,3.87,0,5.34l8.41,4.85a10.2,10.2,0,0,0,9.24,0l8.36-4.85c2.53-1.48,2.5-3.88,0-5.35Zm-26.92,5.9c-3.08-1.78-3.1-4.68,0-6.46l8.36-4.86a12.31,12.31,0,0,1,11.15,0l8.41,4.86c3.09,1.78,3.11,4.68,0,6.46l-8.36,4.85a12.31,12.31,0,0,1-11.15,0l-8.41-4.85Zm32.19-11.11-4.72-2.72c-7.53-4.35-19.68-4.34-27.17,0l-4.68,2.72c-7.48,4.35-7.46,11.39.07,15.74l4.72,2.72c7.53,4.35,19.7,4.35,27.18,0l4.69-2.72c7.48-4.35,7.44-11.4-.09-15.75Z"/><path class="cls-28" d="M298.58,572.7c-2.55-1.47-2.56-3.87,0-5.34l8.36-4.86a10.19,10.19,0,0,1,9.22,0l8.41,4.86c2.55,1.47,2.58,3.87,0,5.35l-8.36,4.85a10.2,10.2,0,0,1-9.24,0l-8.41-4.85Zm26.92-5.9-8.41-4.86a12.31,12.31,0,0,0-11.15,0l-8.36,4.86c-3.06,1.78-3,4.68,0,6.46l8.41,4.85a12.31,12.31,0,0,0,11.15,0l8.36-4.85c3.07-1.78,3-4.68,0-6.46Z"/><polygon class="cls-9" points="818.75 407.52 710.79 345.19 649.41 380.87 757.37 443.2 818.75 407.52 818.75 407.52"/><polygon class="cls-38" points="757.37 443.2 649.41 380.87 618.73 398.69 726.69 461.02 757.37 443.2 757.37 443.2"/><polygon class="cls-39" points="682.39 481.19 579.25 421.64 509.78 462.01 612.92 521.56 682.39 481.19 682.39 481.19"/><polygon class="cls-39" points="537.62 565.32 434.48 505.77 373.11 541.43 476.25 600.98 537.62 565.32 537.62 565.32"/><path class="cls-6" d="M386.43,424.6l7.09-4.12,65.61,37.88-7.1,4.12-65.6-37.88Zm22.14-12.87,7.09-4.12,65.61,37.88-7.09,4.12-65.61-37.88Zm22.15-12.86,7.09-4.12,65.6,37.87-7.09,4.12-65.6-37.87ZM452.86,386l7.09-4.12,65.61,37.87-7.09,4.13L452.86,386ZM475,373.13,482.1,369l65.6,37.88L540.61,411,475,373.13ZM521,360l3.75-2.18,44.61,25.75-3.75,2.18L521,360Zm37.58,4c-12.33-7.12-12.39-18.64-.15-25.75s32.14-7.12,44.46,0,12.38,18.64.15,25.75-32.15,7.11-44.46,0ZM710.79,345.2,590.45,275.71l-92.06,53.5L232.23,483.89l120.34,69.48,20.54-11.94,61.37-35.66L509.78,462l69.47-40.37,39.48-22.94,30.68-17.83,61.38-35.67Z"/><path class="cls-8" d="M580.82,370.54c-8.28,0-16.57-1.83-22.89-5.48S548,356.39,548,351s3.46-10.27,9.77-13.94c12.57-7.3,33.09-7.3,45.74,0h0c6.38,3.69,9.9,8.67,9.91,14s-3.46,10.27-9.76,13.93S589.11,370.54,580.82,370.54Zm-.2-36.4c-7.82,0-15.63,1.72-21.56,5.17-5.49,3.19-8.51,7.35-8.51,11.73s3.08,8.6,8.65,11.81c11.95,6.9,31.32,6.9,43.18,0,5.49-3.19,8.51-7.36,8.5-11.73s-3.07-8.61-8.64-11.82C596.27,335.86,588.44,334.14,580.62,334.14Z"/><polygon class="cls-8" points="569.35 383.53 524.74 357.78 520.99 359.96 565.6 385.71 569.35 383.53 569.35 383.53"/><polygon class="cls-8" points="547.71 406.88 482.1 369.01 475.01 373.13 540.61 411.01 547.71 406.88 547.71 406.88"/><polygon class="cls-8" points="525.56 419.75 459.95 381.88 452.86 386 518.47 423.88 525.56 419.75 525.56 419.75"/><polygon class="cls-8" points="503.42 432.62 437.81 394.75 430.72 398.87 496.32 436.74 503.42 432.62 503.42 432.62"/><polygon class="cls-8" points="481.27 445.49 415.66 407.61 408.57 411.74 474.18 449.61 481.27 445.49 481.27 445.49"/><polygon class="cls-8" points="459.13 458.36 393.52 420.48 386.43 424.6 452.04 462.48 459.13 458.36 459.13 458.36"/></g></g><path class="cls-40" d="M864.64,386.45c0,.24,0,.47-.08.7s-.09.37-.14.56-.11.44-.19.65-.15.36-.23.54-.2.46-.32.68-.19.33-.29.49-.33.51-.52.77l-.35.44c-.28.34-.6.67-.93,1l-.37.36c-.21.19-.44.37-.67.55l-.61.49c-.25.18-.53.35-.8.53s-.53.36-.83.53L422.2,648.18c-.66.38-1.36.73-2.07,1.05l-.63.27c-.56.23-1.14.45-1.73.65l-.63.22-1.13.32-.86.23c-.4.1-.82.18-1.23.26l-.81.17c-.83.15-1.66.26-2.5.35l-.79.06c-.49,0-1,.08-1.48.1l-.95,0h-1.2l-1,0-1.11-.06-1-.09c-.37,0-.73-.07-1.1-.12l-1-.14-1.16-.2-.91-.18c-.46-.1-.92-.22-1.37-.34l-.75-.2c-.8-.23-1.59-.5-2.35-.79l-.32-.14a24.65,24.65,0,0,1-3-1.42l-219-126.45c-4.32-2.5-6.48-5.77-6.47-9l-.07,24.41c0,3.27,2.15,6.55,6.47,9l219,126.44a23.27,23.27,0,0,0,3,1.43l.2.09.12,0c.76.3,1.55.56,2.35.8l.19.06.57.14c.45.12.9.23,1.36.33l.36.09.55.1,1.16.2.46.08.53.06c.36,0,.72.09,1.09.12l.52.06.5,0,1.11,0,.55,0h2.25l.36,0c.5,0,1-.06,1.48-.1l.6,0,.19,0c.84-.09,1.67-.21,2.5-.35l.11,0c.24,0,.47-.1.71-.15.41-.08.82-.16,1.22-.26l.86-.23c.38-.11.76-.21,1.13-.33l.25-.07c.13,0,.25-.1.39-.14.58-.2,1.16-.42,1.72-.66l.63-.26c.72-.33,1.41-.67,2.07-1L858.24,419.15l.27-.16c.2-.12.37-.25.57-.38s.54-.34.79-.53.41-.32.61-.48l.68-.56.13-.11c.09-.08.14-.16.23-.24.33-.33.65-.66.93-1,.06-.08.14-.15.2-.22s.1-.15.15-.23c.19-.25.36-.51.52-.76l.22-.33s0-.11.07-.16a7.09,7.09,0,0,0,.32-.69c.06-.13.14-.26.19-.39s0-.09,0-.14c.08-.22.13-.44.19-.66a3.17,3.17,0,0,0,.12-.44s0-.08,0-.12c0-.23.06-.46.08-.69s0-.3,0-.45v-.19l.07-24.41C864.69,386,864.66,386.24,864.64,386.45Z"/><polygon class="cls-41" points="797.66 439.64 797.66 446.86 739.9 480.62 739.9 473.36 797.66 439.64"/><path class="cls-37" d="M262.2,586.37v5.34a.82.82,0,0,0,.39.69l31.2,19.08a.8.8,0,0,0,1.22-.68v-6a7,7,0,0,0-3.46-6l-25.4-14.67A2.63,2.63,0,0,0,262.2,586.37Z"/><path class="cls-38" d="M312.21,439.85,171.39,368.94a5.73,5.73,0,0,1-.23-10.12L211,336.29l2.56,1.52-41.12,23.24a3.17,3.17,0,0,0,.13,5.61l143.28,71.71Z"/><path class="cls-42" d="M830.45,455.93a6.32,6.32,0,0,1-3.07-.79L780.47,429l1.24-2.23,46.91,26.15a3.75,3.75,0,0,0,3.8-.09l113.87-70.57a3.74,3.74,0,0,0-.14-6.44l-58.34-32.64,2.34-1.61,57.24,32a6.29,6.29,0,0,1,.25,10.84L833.76,455A6.25,6.25,0,0,1,830.45,455.93Z"/><g class="cls-27"><polygon class="cls-28" points="373.67 466.24 308.99 428.9 240.94 468.45 412.31 567.39 472.63 602.21 540.69 562.67 373.67 466.24"/></g><g class="cls-14"><path class="cls-43" d="M323.75,395.77c-9.66-5.58-25.34-5.58-34.94,0q0-7.78,0-15.58c9.61-5.58,25.28-5.58,34.94,0Q323.77,388,323.75,395.77Z"/><path class="cls-43" d="M288.81,395.77c-4.77,2.77-7.16,6.41-7.17,10.05l.05-15.58c0-3.64,2.39-7.28,7.16-10.05Q288.83,388,288.81,395.77Z"/><path class="cls-43" d="M331,406c0-3.69-2.42-7.39-7.28-10.19q0-7.8,0-15.58c4.87,2.8,7.3,6.5,7.29,10.19C331.06,395.05,331.05,401.28,331,406Z"/><path class="cls-4" d="M327.25,390.37l0,15.58c0-3.12-2-6.24-6.16-8.62-8.17-4.71-21.42-4.71-29.53,0-4,2.35-6,5.42-6.06,8.5l.05-15.58c0-3.08,2-6.15,6.05-8.5,8.12-4.71,21.37-4.71,29.54,0C325.21,384.13,327.26,387.25,327.25,390.37Z"/><path class="cls-43" d="M327.21,406c0,3.08-2,6.15-6,8.49q0-7.79,0-15.58c4-2.34,6-5.41,6.05-8.49C327.24,395.05,327.22,401.28,327.21,406Z"/><path class="cls-43" d="M291.62,414.44c-4.11-2.37-6.17-5.5-6.16-8.61l.05-15.58c0,3.12,2,6.24,6.15,8.61Q291.65,406.65,291.62,414.44Z"/><path class="cls-43" d="M321.1,381.75c8.16,4.72,8.21,12.4.1,17.11s-21.37,4.72-29.54,0-8.21-12.39-.1-17.11S312.93,377,321.1,381.75Z"/><path class="cls-43" d="M321.16,414.44c-8.12,4.72-21.38,4.72-29.54,0q0-7.79,0-15.58c8.17,4.72,21.43,4.72,29.54,0Q321.19,406.66,321.16,414.44Z"/><path class="cls-4" d="M331.08,390.38,331,406c0,3.64-2.4,7.28-7.17,10.05-9.6,5.58-25.27,5.57-34.94,0-4.86-2.8-7.29-6.5-7.28-10.18l.05-15.58c0,3.68,2.42,7.38,7.28,10.18,9.66,5.58,25.34,5.59,34.94,0C328.68,397.66,331.07,394,331.08,390.38Z"/><path class="cls-4" d="M323.79,380.19c9.67,5.58,9.72,14.66.12,20.24s-25.28,5.57-34.94,0-9.72-14.65-.12-20.23S314.13,374.61,323.79,380.19Zm-32.13,18.67c8.17,4.72,21.43,4.72,29.54,0s8.06-12.39-.1-17.11-21.42-4.71-29.54,0-8.07,12.39.1,17.11Z"/><polygon class="cls-43" points="372.75 389.21 372.7 404.79 304.65 444.33 304.7 428.75 372.75 389.21"/><path class="cls-43" d="M308.07,351.86l64.68,37.35L304.7,428.76,240,391.41ZM289,400.42c9.66,5.58,25.34,5.59,34.94,0s9.55-14.66-.12-20.24-25.33-5.58-34.94,0-9.55,14.65.12,20.23Z"/><polygon class="cls-42" points="304.7 428.75 304.65 444.33 239.97 406.99 240.01 391.41 304.7 428.75"/></g><g class="cls-14"><path class="cls-8" d="M375.61,404.15l-.05,15.58a5,5,0,0,0-4.51,0l.05-15.58A5,5,0,0,1,375.61,404.15Z"/><polygon class="cls-8" points="371.1 404.15 371.05 419.73 366.57 422.34 366.61 406.76 371.1 404.15"/><path class="cls-8" d="M365.64,423.64l0-15.58a1.58,1.58,0,0,1,.93-1.3l0,15.58A1.58,1.58,0,0,0,365.64,423.64Z"/><path class="cls-39" d="M365.64,423.64l0-15.58a1.6,1.6,0,0,0,.95,1.31L366.58,425A1.59,1.59,0,0,1,365.64,423.64Z"/><polygon class="cls-8" points="472.32 459.99 472.28 475.57 375.56 419.73 375.61 404.15 472.32 459.99"/><polygon class="cls-39" points="463.34 465.21 463.3 480.79 366.58 424.95 366.63 409.37 463.34 465.21"/><polygon class="cls-8" points="422.21 447.57 422.17 463.15 361.31 428.01 361.36 412.43 422.21 447.57"/><polygon class="cls-39" points="417.72 450.18 417.68 465.76 356.82 430.63 356.86 415.05 417.72 450.18"/><path class="cls-8" d="M355.88,429.31l0-15.58a1.58,1.58,0,0,1,.93-1.3,5,5,0,0,1,4.51,0L361.31,428a5,5,0,0,0-4.51,0A1.59,1.59,0,0,0,355.88,429.31Z"/><path class="cls-39" d="M355.88,429.31l0-15.58a1.58,1.58,0,0,0,.94,1.31l0,15.58A1.58,1.58,0,0,1,355.88,429.31Z"/><polygon class="cls-8" points="412.9 452.98 412.86 468.56 352 433.42 352.05 417.84 412.9 452.98"/><polygon class="cls-39" points="408.41 455.59 408.37 471.17 347.51 436.04 347.55 420.46 408.41 455.59"/><path class="cls-8" d="M346.56,434.72l.05-15.58a1.58,1.58,0,0,1,.93-1.3,5,5,0,0,1,4.51,0L352,433.42a5,5,0,0,0-4.51,0A1.63,1.63,0,0,0,346.56,434.72Z"/><path class="cls-39" d="M346.56,434.72l.05-15.58a1.6,1.6,0,0,0,.94,1.32l0,15.58A1.62,1.62,0,0,1,346.56,434.72Z"/><polygon class="cls-8" points="403.59 458.4 403.54 473.98 342.68 438.84 342.73 423.26 403.59 458.4"/><polygon class="cls-39" points="399.1 461 399.06 476.58 338.2 441.45 338.24 425.87 399.1 461"/><path class="cls-8" d="M338.18,438.83a1.6,1.6,0,0,0-.93,1.3l.05-15.58a1.56,1.56,0,0,1,.93-1.29,5,5,0,0,1,4.5,0q0,6.89,0,13.76v1.82A5,5,0,0,0,338.18,438.83Z"/><path class="cls-39" d="M337.25,440.13l.05-15.58a1.6,1.6,0,0,0,.94,1.32l0,15.58A1.62,1.62,0,0,1,337.25,440.13Z"/><path class="cls-8" d="M422.17,463.15q0-7.78.05-15.58a1.61,1.61,0,0,1,.94,1.31l-.05,15.58A1.59,1.59,0,0,0,422.17,463.15Z"/><path class="cls-39" d="M423.16,448.88l-.05,15.58a1.59,1.59,0,0,1-.92,1.3,5,5,0,0,1-4.51,0l0-15.58a5,5,0,0,0,4.51,0A1.6,1.6,0,0,0,423.16,448.88Z"/><path class="cls-8" d="M412.86,468.56q0-7.79,0-15.58a1.6,1.6,0,0,1,1,1.32l-.05,15.57A1.59,1.59,0,0,0,412.86,468.56Z"/><path class="cls-39" d="M413.85,454.3l-.05,15.57a1.57,1.57,0,0,1-.93,1.3,4.9,4.9,0,0,1-4.5,0l0-15.58a4.92,4.92,0,0,0,4.51,0A1.61,1.61,0,0,0,413.85,454.3Z"/><path class="cls-8" d="M403.54,474q0-7.8,0-15.58a1.59,1.59,0,0,1,.94,1.31l0,15.58A1.6,1.6,0,0,0,403.54,474Z"/><path class="cls-8" d="M472.28,475.57q0-7.79,0-15.58a1.59,1.59,0,0,1,.94,1.31l0,15.58A1.61,1.61,0,0,0,472.28,475.57Z"/><path class="cls-39" d="M404.53,459.71l0,15.58a1.56,1.56,0,0,1-.93,1.29,4.9,4.9,0,0,1-4.5,0l0-15.58a4.92,4.92,0,0,0,4.51,0A1.57,1.57,0,0,0,404.53,459.71Z"/><path class="cls-39" d="M403.59,458.4c1.25.72,1.25,1.88,0,2.6a4.92,4.92,0,0,1-4.51,0l-60.86-35.13c-1.25-.73-1.26-1.89,0-2.61a5,5,0,0,1,4.5,0Z"/><path class="cls-39" d="M473.26,461.3l0,15.58a1.63,1.63,0,0,1-.93,1.3l0-15.58A1.58,1.58,0,0,0,473.26,461.3Z"/><polygon class="cls-39" points="472.33 462.6 472.29 478.18 467.8 480.79 467.84 465.21 472.33 462.6"/><path class="cls-39" d="M467.84,465.21l0,15.58a5,5,0,0,1-4.5,0l0-15.58A5,5,0,0,0,467.84,465.21Z"/><path class="cls-4" d="M372.75,389.21l167,96.42-68.05,39.55-60.32-34.83L304.7,428.76Zm95.09,76,4.49-2.61a1.38,1.38,0,0,0,0-2.61l-96.71-55.84a5,5,0,0,0-4.51,0l-4.49,2.61c-1.24.72-1.24,1.89,0,2.61l96.71,55.84a5,5,0,0,0,4.5,0Zm-50.12-15a5,5,0,0,0,4.51,0,1.38,1.38,0,0,0,0-2.61l-60.86-35.14a5,5,0,0,0-4.51,0c-1.24.72-1.24,1.89,0,2.62l60.86,35.13Zm-9.31,5.41a4.92,4.92,0,0,0,4.51,0c1.24-.72,1.24-1.89,0-2.61l-60.85-35.14a5,5,0,0,0-4.51,0c-1.25.73-1.24,1.89,0,2.62l60.86,35.13ZM399.1,461a4.92,4.92,0,0,0,4.51,0c1.23-.72,1.23-1.88,0-2.6l-60.86-35.14a5,5,0,0,0-4.5,0c-1.25.72-1.24,1.88,0,2.61L399.1,461Z"/><path class="cls-39" d="M422.22,447.57a1.38,1.38,0,0,1,0,2.61,5,5,0,0,1-4.51,0L356.86,415a1.38,1.38,0,0,1,0-2.61,5,5,0,0,1,4.51,0Z"/><path class="cls-39" d="M412.9,453c1.26.72,1.26,1.89,0,2.61a4.92,4.92,0,0,1-4.51,0l-60.86-35.13c-1.25-.73-1.26-1.89,0-2.62a5,5,0,0,1,4.51,0Z"/><path class="cls-39" d="M472.32,460a1.38,1.38,0,0,1,0,2.61l-4.49,2.61a5,5,0,0,1-4.5,0l-96.71-55.84c-1.26-.72-1.26-1.89,0-2.61l4.49-2.61a5,5,0,0,1,4.51,0Z"/><polygon class="cls-19" points="411.39 490.35 411.34 505.93 304.65 444.33 304.7 428.75 411.39 490.35"/><polygon class="cls-8" points="539.76 485.63 539.72 501.21 471.67 540.76 471.71 525.18 539.76 485.63"/><polygon class="cls-43" points="476.07 527.7 476.02 543.28 411.34 505.93 411.39 490.35 476.07 527.7"/><polygon class="cls-19" points="471.71 525.18 471.67 540.76 411.34 505.93 411.39 490.35 471.71 525.18"/><polygon class="cls-43" points="544.12 488.15 476.07 527.7 411.39 490.35 471.71 525.18 539.76 485.63 544.12 488.15"/><polygon class="cls-42" points="544.12 488.15 544.08 503.73 476.02 543.28 476.07 527.7 544.12 488.15"/></g><path class="cls-8" d="M580.82,351.43c-8.28,0-16.57-1.83-22.89-5.48s-9.92-8.67-9.92-14,3.46-10.27,9.77-13.94c12.57-7.3,33.09-7.3,45.74,0h0c6.38,3.69,9.9,8.67,9.91,14S610,342.28,603.67,346,589.11,351.43,580.82,351.43Zm-.2-36.41c-7.82,0-15.63,1.73-21.56,5.18-5.49,3.19-8.51,7.35-8.51,11.72s3.08,8.61,8.65,11.82c11.95,6.9,31.32,6.9,43.18,0,5.49-3.18,8.51-7.35,8.5-11.72s-3.07-8.61-8.64-11.82C596.27,316.75,588.44,315,580.62,315Z"/><g class="cls-44"><path class="cls-8" d="M598.1,321.87c-9.67-5.58-25.28-5.57-34.87,0s-9.55,14.62.11,20.2,25.27,5.58,34.87,0,9.54-14.62-.11-20.2Z"/></g><g class="cls-44"><path class="cls-8" d="M590,326.56c-5.18-3-13.54-3-18.68,0s-5.12,7.83.06,10.82,13.54,3,18.68,0,5.12-7.83-.06-10.82Z"/></g><polygon class="cls-45" points="577.11 188.47 577.11 197.45 577.11 208.53 577.11 219.61 577.11 230.69 577.11 241.77 577.11 252.85 577.11 263.93 577.11 275 577.11 286.08 577.11 297.16 577.11 308.24 577.11 319.32 577.11 330.4 577.11 331.97 582.63 331.97 582.63 330.35 582.63 319.27 582.63 308.2 582.63 297.12 582.63 286.04 582.63 274.96 582.63 263.88 582.63 252.8 582.63 241.72 582.63 230.65 582.63 219.57 582.63 208.49 582.63 197.41 582.63 188.47 577.11 188.47"/><polygon class="cls-46" points="579.87 188.47 579.87 197.45 579.87 208.53 579.87 219.61 579.87 230.69 579.87 241.77 579.87 252.85 579.87 263.93 579.87 275 579.87 286.08 579.87 297.16 579.87 308.24 579.87 319.32 579.87 330.4 579.87 331.97 585.38 331.97 585.38 330.35 585.38 319.27 585.38 308.2 585.38 297.12 585.38 286.04 585.38 274.96 585.38 263.88 585.38 252.8 585.38 241.72 585.38 230.65 585.38 219.57 585.38 208.49 585.38 197.41 585.38 188.47 579.87 188.47"/><g class="cls-44"><path class="cls-47" d="M580.8,240c-6.43,0-12.86-1.42-17.77-4.26s-7.6-6.62-7.61-10.68,2.66-7.81,7.49-10.62c9.76-5.67,25.69-5.67,35.51,0,4.89,2.83,7.59,6.62,7.59,10.69s-2.65,7.81-7.48,10.61S587.23,240,580.8,240Zm-.16-28.55c-6.2,0-12.39,1.36-17.09,4.1-4.42,2.57-6.86,5.94-6.85,9.51s2.48,7,7,9.58c9.47,5.47,24.83,5.47,34.23,0,4.42-2.57,6.85-5.94,6.85-9.51s-2.48-7-7-9.58h0C593.05,212.83,586.84,211.47,580.64,211.47Z"/></g><g class="cls-44"><path class="cls-47" d="M580.76,249.71a19.59,19.59,0,0,1-9.58-2.29c-2.64-1.52-4.1-3.57-4.1-5.76s1.43-4.21,4-5.72c5.26-3.06,13.85-3.06,19.14,0,2.64,1.52,4.09,3.56,4.1,5.76s-1.43,4.21-4,5.72A19.43,19.43,0,0,1,580.76,249.71Zm-.08-15.39a18.8,18.8,0,0,0-9.22,2.21c-2.38,1.39-3.7,3.21-3.69,5.13s1.33,3.77,3.75,5.17c5.11,2.94,13.39,2.94,18.46,0,2.38-1.39,3.69-3.21,3.69-5.13s-1.34-3.77-3.75-5.17h0A18.93,18.93,0,0,0,580.68,234.32Z"/></g><g class="cls-27"><polygon class="cls-28" points="494.31 395.25 429.63 357.9 361.57 397.45 532.95 496.39 593.27 531.22 661.32 491.67 494.31 395.25"/></g><g class="cls-14"><path class="cls-48" d="M445.53,311.34c-9.66-5.58-25.33-5.58-34.94,0q0-7.79.05-15.58c9.6-5.58,25.27-5.58,34.94,0Q445.55,303.54,445.53,311.34Z"/><path class="cls-48" d="M410.59,311.34c-4.77,2.77-7.15,6.41-7.16,10.05l0-15.58c0-3.64,2.4-7.28,7.17-10.05Q410.61,303.56,410.59,311.34Z"/><path class="cls-48" d="M452.82,321.53c0-3.69-2.42-7.38-7.29-10.19,0-1.25,0-2.5,0-3.75l0-4q0-3.9,0-7.79c4.86,2.81,7.29,6.5,7.28,10.19C452.85,310.62,452.83,316.86,452.82,321.53Z"/><path class="cls-4" d="M449.05,305.94,449,321.52c0-3.12-2-6.24-6.16-8.62-8.16-4.71-21.41-4.71-29.54,0-4,2.34-6.05,5.41-6.05,8.49l0-15.58c0-3.08,2-6.15,6.06-8.49,8.12-4.72,21.37-4.72,29.54,0C447,299.7,449.06,302.82,449.05,305.94Z"/><path class="cls-48" d="M449,321.52c0,3.08-2,6.15-6.06,8.5q0-7.8,0-15.58c4-2.35,6.06-5.42,6.07-8.5C449,310.61,449,316.84,449,321.52Z"/><path class="cls-48" d="M413.4,330c-4.11-2.37-6.16-5.49-6.15-8.61l0-15.58c0,3.12,2,6.24,6.15,8.61Q413.43,322.23,413.4,330Z"/><path class="cls-48" d="M442.94,330c-8.12,4.71-21.36,4.71-29.54,0q0-7.78,0-15.58c8.18,4.72,21.43,4.72,29.54,0Q443,322.23,442.94,330Z"/><path class="cls-4" d="M452.86,306l0,15.58c0,3.64-2.4,7.28-7.17,10.05-9.6,5.58-25.27,5.58-34.94,0-4.87-2.81-7.29-6.5-7.28-10.19l0-15.58c0,3.69,2.42,7.38,7.28,10.19,9.67,5.58,25.34,5.58,34.94,0C450.46,313.23,452.85,309.59,452.86,306Z"/><path class="cls-48" d="M429.85,267.44l64.68,37.34-68,39.55L361.8,307ZM410.75,316c9.67,5.58,25.34,5.58,34.94,0s9.56-14.66-.11-20.24-25.34-5.58-34.94,0-9.55,14.66.11,20.24Z"/><path class="cls-48" d="M442.89,297.32c8.17,4.72,8.22,12.4.09,17.12s-21.36,4.71-29.54,0-8.21-12.39-.09-17.1S434.72,292.61,442.89,297.32Z"/><path class="cls-4" d="M445.58,295.76c9.67,5.58,9.71,14.66.11,20.24s-25.27,5.58-34.94,0-9.71-14.66-.11-20.24S435.91,290.18,445.58,295.76Zm-32.14,18.67c8.18,4.72,21.43,4.72,29.54,0s8.08-12.4-.09-17.12-21.42-4.71-29.54,0-8.07,12.39.09,17.1Z"/><polygon class="cls-48" points="494.53 304.78 494.49 320.36 426.44 359.91 426.48 344.33 494.53 304.78"/><polygon class="cls-26" points="426.48 344.33 426.44 359.91 361.75 322.56 361.8 306.98 426.48 344.33"/></g><g class="cls-14"><path class="cls-8" d="M497.35,335.3a5,5,0,0,0-4.51,0c0-4.58,0-9.17,0-13.76v-1.82a5,5,0,0,1,4.51,0q0,6.88,0,13.76Z"/><polygon class="cls-8" points="492.88 319.73 492.84 335.31 488.35 337.91 488.39 322.33 492.88 319.73"/><path class="cls-8" d="M487.42,339.21l.05-15.58a1.58,1.58,0,0,1,.93-1.3l0,15.58A1.58,1.58,0,0,0,487.42,339.21Z"/><path class="cls-39" d="M487.42,339.21l.05-15.58a1.57,1.57,0,0,0,.94,1.31l0,15.58A1.6,1.6,0,0,1,487.42,339.21Z"/><polygon class="cls-8" points="594.11 375.56 594.06 391.14 497.35 335.3 497.39 319.73 594.11 375.56"/><polygon class="cls-39" points="585.13 380.78 585.08 396.36 488.37 340.52 488.41 324.94 585.13 380.78"/><polygon class="cls-8" points="544 363.14 543.96 378.72 483.1 343.58 483.14 328 544 363.14"/><polygon class="cls-39" points="539.5 365.75 539.46 381.33 478.6 346.2 478.65 330.62 539.5 365.75"/><path class="cls-8" d="M478.59,343.59a1.56,1.56,0,0,0-.93,1.29l0-15.58a1.57,1.57,0,0,1,.92-1.29q0,7.78,0,15.57,0-7.79,0-15.57a4.92,4.92,0,0,1,4.51,0q0,6.87,0,13.75v1.83A4.92,4.92,0,0,0,478.59,343.59Z"/><path class="cls-39" d="M477.66,344.88l0-15.58a1.58,1.58,0,0,0,.94,1.32l0,15.58A1.6,1.6,0,0,1,477.66,344.88Z"/><polygon class="cls-8" points="534.69 368.55 534.64 384.13 473.79 349 473.83 333.42 534.69 368.55"/><polygon class="cls-39" points="530.19 371.16 530.15 386.74 469.29 351.61 469.34 336.03 530.19 371.16"/><path class="cls-8" d="M468.35,350.29l0-15.58a1.57,1.57,0,0,1,.92-1.29,5,5,0,0,1,4.51,0l0,15.58a5,5,0,0,0-4.51,0A1.56,1.56,0,0,0,468.35,350.29Z"/><path class="cls-39" d="M468.35,350.29l0-15.58a1.58,1.58,0,0,0,.94,1.32l0,15.58A1.6,1.6,0,0,1,468.35,350.29Z"/><polygon class="cls-8" points="525.38 373.96 525.33 389.54 464.48 354.41 464.52 338.83 525.38 373.96"/><polygon class="cls-39" points="520.88 376.57 520.84 392.15 459.98 357.02 460.02 341.44 520.88 376.57"/><path class="cls-8" d="M460,354.41a1.57,1.57,0,0,0-.93,1.29l0-15.58a1.57,1.57,0,0,1,.93-1.29l0,15.58q0-7.8,0-15.58a5,5,0,0,1,4.51,0l0,15.58A4.93,4.93,0,0,0,460,354.41Z"/><path class="cls-39" d="M459,355.7l0-15.58a1.6,1.6,0,0,0,.95,1.32L460,357A1.6,1.6,0,0,1,459,355.7Z"/><path class="cls-8" d="M544,378.72q0-7.79,0-15.58a1.6,1.6,0,0,1,.94,1.32l0,15.58A1.6,1.6,0,0,0,544,378.72Z"/><path class="cls-39" d="M544.94,364.46l0,15.58a1.57,1.57,0,0,1-.93,1.29,5,5,0,0,1-4.51,0l0-15.58a5,5,0,0,0,4.51,0A1.57,1.57,0,0,0,544.94,364.46Z"/><path class="cls-39" d="M544,363.14c1.25.73,1.26,1.89,0,2.61a5,5,0,0,1-4.51,0l-60.85-35.13c-1.26-.73-1.25-1.9,0-2.61a4.92,4.92,0,0,1,4.51,0Z"/><path class="cls-8" d="M535.58,385.45a1.58,1.58,0,0,0-.94-1.32q0-6.87,0-13.76v-1.82a1.6,1.6,0,0,1,.94,1.32C535.62,374.54,535.6,380.77,535.58,385.45Z"/><path class="cls-39" d="M535.63,369.87l0,15.58a1.57,1.57,0,0,1-.92,1.29,5,5,0,0,1-4.51,0l0-15.58a5,5,0,0,0,4.51,0A1.56,1.56,0,0,0,535.63,369.87Z"/><path class="cls-39" d="M534.69,368.55c1.25.73,1.25,1.9,0,2.61a5,5,0,0,1-4.51,0L469.34,336c-1.26-.73-1.26-1.9,0-2.61a5,5,0,0,1,4.51,0Z"/><path class="cls-8" d="M525.33,389.54q0-7.79,0-15.58a1.6,1.6,0,0,1,.94,1.32l-.05,15.58A1.58,1.58,0,0,0,525.33,389.54Z"/><path class="cls-8" d="M594.06,391.14q0-7.78.05-15.58a1.62,1.62,0,0,1,.94,1.32l0,15.58A1.6,1.6,0,0,0,594.06,391.14Z"/><path class="cls-39" d="M526.32,375.28l-.05,15.58a1.57,1.57,0,0,1-.92,1.29,4.92,4.92,0,0,1-4.51,0l0-15.57a5,5,0,0,0,4.51,0A1.56,1.56,0,0,0,526.32,375.28Z"/><path class="cls-39" d="M595.05,376.88l0,15.58a1.59,1.59,0,0,1-.92,1.3l0-15.58A1.58,1.58,0,0,0,595.05,376.88Z"/><polygon class="cls-39" points="594.12 378.18 594.08 393.76 589.59 396.36 589.64 380.78 594.12 378.18"/><path class="cls-39" d="M589.64,380.78l0,15.58a5,5,0,0,1-4.51,0l0-15.58A5,5,0,0,0,589.64,380.78Z"/><path class="cls-8" d="M494.53,304.78l167,96.43-68,39.55-60.33-34.83-106.69-61.6Zm95.11,76,4.48-2.6c1.25-.73,1.23-1.9,0-2.62l-96.72-55.84a5,5,0,0,0-4.51,0l-4.48,2.61c-1.25.72-1.24,1.89,0,2.61l96.72,55.84a5,5,0,0,0,4.51,0Zm-50.14-15a5,5,0,0,0,4.51,0c1.25-.72,1.24-1.88,0-2.61L483.14,328a4.92,4.92,0,0,0-4.51,0c-1.23.71-1.24,1.88,0,2.61l60.85,35.13Zm-9.31,5.41a5,5,0,0,0,4.51,0c1.24-.71,1.24-1.88,0-2.61l-60.86-35.13a5,5,0,0,0-4.51,0c-1.24.71-1.24,1.88,0,2.61l60.85,35.13Zm-9.31,5.42a5,5,0,0,0,4.51,0c1.24-.71,1.24-1.88,0-2.61l-60.86-35.13a5,5,0,0,0-4.51,0c-1.24.72-1.24,1.89,0,2.61l60.85,35.14Z"/><path class="cls-39" d="M525.38,374c1.25.73,1.25,1.9,0,2.61a5,5,0,0,1-4.51,0L460,341.44c-1.26-.72-1.26-1.89,0-2.61a5,5,0,0,1,4.51,0Z"/><path class="cls-39" d="M594.11,375.56c1.24.72,1.26,1.89,0,2.62l-4.48,2.6a5,5,0,0,1-4.51,0l-96.72-55.84c-1.25-.72-1.26-1.89,0-2.61l4.48-2.61a5,5,0,0,1,4.51,0Z"/><polygon class="cls-49" points="533.17 405.93 533.13 421.5 426.44 359.91 426.48 344.33 533.17 405.93"/><polygon class="cls-8" points="661.55 401.21 661.51 416.79 593.46 456.34 593.5 440.76 661.55 401.21"/><polygon class="cls-48" points="597.85 443.27 597.81 458.85 533.13 421.5 533.17 405.93 597.85 443.27"/><polygon class="cls-49" points="593.5 440.76 593.46 456.34 533.13 421.5 533.17 405.93 593.5 440.76"/><polygon class="cls-48" points="665.9 403.72 597.85 443.27 533.17 405.93 593.5 440.76 661.55 401.21 665.9 403.72"/><polygon class="cls-42" points="665.9 403.72 665.86 419.3 597.81 458.85 597.85 443.27 665.9 403.72"/></g><path class="cls-33" d="M438.62,36.41a11.07,11.07,0,1,1,11.06-11.06A11.08,11.08,0,0,1,438.62,36.41Zm0-20.85a9.79,9.79,0,1,0,9.79,9.79A9.8,9.8,0,0,0,438.62,15.56Z"/><path class="cls-33" d="M554.36,89.51,540.6,77.75,552.35,64l13.77,11.76Zm-12-11.9,11.83,10.1,10.1-11.83L552.5,65.78Z"/><path class="cls-33" d="M551.85,11.85H540.4l5.73-9.91Zm-9.24-1.27h7l-3.51-6.09Z"/><path class="cls-33" d="M345.93,152.7a4.16,4.16,0,1,1,4.16-4.16A4.17,4.17,0,0,1,345.93,152.7Zm0-8a3.89,3.89,0,1,0,3.89,3.89A3.89,3.89,0,0,0,345.93,144.65Z"/><path class="cls-33" d="M271.63,188.53l3-6.64,4.27,5.9Zm3.15-5L273,187.58l4.45-.45Z"/><path class="cls-33" d="M806.78,71.31l3-6.65L814,70.57Zm3.14-5-1.83,4.08,4.45-.45Z"/><path class="cls-33" d="M496.24,204.68l-12.1-10.33,10.34-12.1,12.09,10.33Zm-10.52-10.45,10.4,8.87L505,192.71l-10.4-8.88Z"/><path class="cls-33" d="M520.7,135.66l-5.65-1.34,1.34-5.65L522,130ZM515.54,134l4.86,1.15,1.15-4.86-4.86-1.15Z"/><g class="cls-50"><path class="cls-28" d="M1093.8,687a72.25,72.25,0,0,0-9.35-2.3,31.24,31.24,0,0,0-9-4.34c-16.59-5.41-43.39-5.41-59.87,0s-16.39,14.19.19,19.6a72.25,72.25,0,0,0,9.35,2.3,31.07,31.07,0,0,0,9,4.33c16.58,5.42,43.39,5.42,59.87,0S1110.39,692.41,1093.8,687Z"/></g></g></g></svg>