<svg xmlns="http://www.w3.org/2000/svg" viewBox="0 0 594.98 232.01"><defs><style>.cls-1{fill:#FFFFFF;}.cls-2{fill:#177df1;}.cls-3{fill:#f96;}</style></defs><g id="Layer_2" data-name="Layer 2"><g id="Layer_1-2" data-name="Layer 1"><path class="cls-1" d="M102.88,43c3.6,4.56,5.52,8.16,5.52,12,0,5.76-4.56,10.32-10.79,10.32a14.56,14.56,0,0,1-11-5.52c-6.72-8.87-14.15-14.87-27.82-14.87-17,0-27.58,8.63-27.58,21.83C31.18,77.32,37.89,85,53.48,91l11.75,4.55c33.82,12.95,51.08,25.19,51.08,49.41,0,31.89-31.41,48.2-59.23,48.2-20.39,0-41.25-8.87-52-25.42-1.92-2.64-5-6.95-5-12.23,0-5.76,3.6-11.27,10.79-11.27,5.76,0,9.84,3.6,12.47,7.67,8.16,12.47,20.87,18,33.82,18,14.87,0,32.61-6.24,32.61-24.94,0-15.11-11.27-21.11-29.73-28.3l-13-5C23,102.26,5.28,90,5.28,66.53c0-27.1,23.5-44.61,52.52-44.61C79.86,21.92,93.77,31.51,102.88,43Z"/><path class="cls-1" d="M239.58,164.85c0,5.76-4.08,8.88-6.72,11.51-10.31,10.8-23.74,16.31-40.29,16.31-28.54,0-63.07-20.86-63.07-63.55,0-42.93,34.53-63.79,63.07-63.79,16.55,0,30,5.51,40.29,16.3,2.64,2.64,6.72,5.76,6.72,11.52,0,6-5,9.83-10.31,9.83A14.87,14.87,0,0,1,219,98.42c-6.47-7.67-16.54-11-25.42-11-20.14,0-38.85,14.39-38.85,41.73,0,27.1,18.71,41.49,38.85,41.49,8.88,0,18.95-3.36,25.42-11A14.87,14.87,0,0,1,229.27,155C234.54,155,239.58,158.86,239.58,164.85Z"/><path class="cls-1" d="M394.74,137.75v-59a12.58,12.58,0,0,1,12.47-12.71,12.79,12.79,0,0,1,12.71,12.71v59c0,24,13.67,33.58,29.25,33.58,23,0,33.1-20.63,34.54-30.94V78.76a12.71,12.71,0,1,1,25.42,0v101a12.71,12.71,0,1,1-25.42,0V163.89c-1.2,8.4-15.59,29.26-42.93,29.26C417.52,193.15,394.74,178.52,394.74,137.75Z"/><path class="cls-1" d="M595,178.52c0,9.83-11.27,14.15-24.7,14.15-14.39,0-28.54-5-28.54-32.61V87.15h-9.11c-6.24,0-10.31-4.08-10.31-10.31,0-6,4.07-10.07,10.31-10.07h9.11V48.06a12.59,12.59,0,0,1,25.18,0V66.77h17.51c6.23,0,10.55,4.07,10.55,10.07,0,6.23-4.32,10.31-10.55,10.31H566.92V160.3c0,7.19,2.88,10.55,8.4,10.55,3.11,0,6.71-1,9.35-1.2C590.66,168.69,595,172.53,595,178.52Z"/><path class="cls-2" d="M373.66,132.76a59.91,59.91,0,1,1-99.11-45.29c4.52,2.24,10.05,5.21,14.17,8.72,1.63,1.39,3.07,2.64,4.37,3.82a38.72,38.72,0,1,0,39.8-.92,111.9,111.9,0,0,1,12.31-11.6c1.24-1.06,2.57-2.07,4-3A59.79,59.79,0,0,1,373.66,132.76Z"/><path class="cls-2" d="M274.87,133.47c0,.11,0,.23,0,.34v.62Z"/><path class="cls-2" d="M316.44,169.89h.37l-.52,0Z"/><path class="cls-2" d="M342.71,157l.28-.3-.63.78Z"/><path class="cls-2" d="M350.18,145.27h0a3.62,3.62,0,0,0-.17.87,4.48,4.48,0,0,1,.08-.64C350.13,145.42,350.16,145.34,350.18,145.27Z"/><path class="cls-2" d="M371.34,147.79a14.63,14.63,0,0,1-.22,1.81c-.11.36-.23.73-.36,1.09Z"/><path class="cls-2" d="M278.1,169.32h0L254,199.47a4.72,4.72,0,1,0,7.38,5.89h0l24.08-30.15a4.72,4.72,0,1,0-7.38-5.89Z"/><path class="cls-2" d="M258.94,188.74h0L234.86,218.9A8.07,8.07,0,1,0,247.47,229h0l24.08-30.15a8.07,8.07,0,1,0-12.61-10.08Z"/><path class="cls-2" d="M311.72,113.11s1.32-25.78-2.07-46.53-9.89-41.28-16-41c-5.34.26-4.41,7.68-3.33,11.74.82,3.06,3.85,11.2,4.55,19.11s.44,14.16-8.63,16.18-13.67-4.13-17.72-2.26c-2.53,1.18-2,4.73.05,6.55s15.17,6.53,23.79,13.89S304.69,101.86,311.72,113.11Z"/><ellipse class="cls-2" cx="278.55" cy="55.18" rx="10.58" ry="9.28" transform="matrix(0.05, -1, 1, 0.05, 208.33, 330.33)"/><path class="cls-3" d="M317.61,109.69s-2.07-32,2.2-58.08c4.31-26.31,12.45-52,20.1-51.61,6.71.33,5.54,9.67,4.18,14.78-1,3.85-4.84,14.1-5.72,24.06s-.55,17.82,10.87,20.37,17.2-5.21,22.3-2.85c3.18,1.48,2.47,6-.06,8.25s-19.11,8.22-30,17.48S326.47,95.52,317.61,109.69Z"/><ellipse class="cls-3" cx="358.96" cy="37.25" rx="11.68" ry="13.31" transform="translate(-1.49 19.54) rotate(-3.11)"/></g></g></svg>