<svg xmlns="http://www.w3.org/2000/svg" viewBox="0 0 260.39 323.27"><defs><style>.cls-1{fill:#177df1;}.cls-2{fill:#f96;}</style></defs><g id="Layer_2" data-name="Layer 2"><g id="Layer_1-2" data-name="Layer 1"><path class="cls-1" d="M260.39,207.85A93.79,93.79,0,1,1,105.22,137c7.08,3.5,15.73,8.15,22.18,13.65,2.56,2.17,4.81,4.13,6.85,6a60.62,60.62,0,1,0,62.31-1.44c5.41-6.2,11-11.13,19.27-18.16,1.94-1.66,4-3.24,6.2-4.78A93.63,93.63,0,0,1,260.39,207.85Z"/><path class="cls-1" d="M105.71,209c0,.17,0,.36.07.53v1Z"/><path class="cls-1" d="M170.8,266l.57,0-.81.05Z"/><path class="cls-1" d="M211.92,245.78c.16-.15.3-.31.44-.47l-1,1.23Z"/><path class="cls-1" d="M223.62,227.44h0a5.57,5.57,0,0,0-.26,1.36,6.36,6.36,0,0,1,.12-1C223.54,227.67,223.59,227.54,223.62,227.44Z"/><path class="cls-1" d="M256.75,231.38a24,24,0,0,1-.35,2.83c-.17.57-.36,1.15-.56,1.71Z"/><path class="cls-1" d="M93.91,247h0L43.55,280.35a7.39,7.39,0,1,0,8.16,12.33h0l50.36-33.37A7.39,7.39,0,0,0,93.91,247Z"/><path class="cls-1" d="M56,266.73h0L5.66,300.09a12.64,12.64,0,1,0,14,21.08h0L70,287.8a12.64,12.64,0,1,0-14-21.07Z"/><path class="cls-1" d="M163.42,177.09s2.06-40.37-3.25-72.85c-5.35-32.71-15.48-64.63-25-64.17-8.35.4-6.89,12-5.2,18.37,1.28,4.8,6,17.54,7.11,29.92s.69,22.16-13.51,25.34-21.4-6.48-27.73-3.54c-4,1.83-3.07,7.4.06,10.25s23.77,10.23,37.26,21.75S152.4,159.46,163.42,177.09Z"/><ellipse class="cls-1" cx="111.48" cy="86.39" rx="16.56" ry="14.53" transform="translate(19.17 193.02) rotate(-86.89)"/><path class="cls-2" d="M172.64,171.73s-3.24-50,3.44-90.94C182.82,39.61,195.57-.57,207.55,0c10.51.5,8.67,15.13,6.54,23.13-1.61,6-7.58,22.08-9,37.66s-.87,27.9,17,31.9,26.93-8.15,34.91-4.46c5,2.31,3.87,9.32-.08,12.91S227.06,114,210.07,128.53,186.51,149.54,172.64,171.73Z"/><ellipse class="cls-2" cx="237.38" cy="58.32" rx="18.29" ry="20.84" transform="translate(-2.82 12.97) rotate(-3.11)"/></g></g></svg>