<?xml version="1.0" encoding="utf-8"?>
<!-- Generator: Adobe Illustrator 24.1.2, SVG Export Plug-In . SVG Version: 6.00 Build 0)  -->
<svg version="1.1" id="Layer_1" xmlns="http://www.w3.org/2000/svg" xmlns:xlink="http://www.w3.org/1999/xlink" x="0px" y="0px"
	 viewBox="0 0 1080 1080" style="enable-background:new 0 0 1080 1080;" xml:space="preserve">
<style type="text/css">
	.st0{fill:#EAE2E1;}
	.st1{fill:#4A9F7E;}
	.st2{fill:#D8EBD5;}
	.st3{fill:#63BB96;}
	.st4{fill:#86CCB0;}
	.st5{fill:#177DF1;}
	.st6{fill-opacity:0.1529;}
	.st7{fill-opacity:0.1569;}
	.st8{fill:#528F90;}
	.st9{fill:#E7AC9D;}
	.st10{fill:#2F5D5D;}
	.st11{fill:#263A7A;}
	.st12{fill:#26469C;}
	.st13{fill:#D79B8C;}
	.st14{fill:#61BABC;}
	.st15{fill:#DBF0F5;}
	.st16{fill:#121C44;}
	.st17{fill:#8F6B60;}
	.st18{fill:#3EACAD;}
	.st19{fill:#D19B8F;}
	.st20{fill:#263D89;}
	.st21{fill:#5C75B8;}
	.st22{fill:#FFFFFF;}
	.st23{fill:#A65054;}
	.st24{fill:#F9C9CC;}
	.st25{fill:#FF9966;}
	.st26{fill:#FFCC99;}
</style>
<g id="Jobseeker">
	<g>
		<g>
			<path d="M537.2,872.5l421.2,0v3.8l-421.2,0V872.5z"/>
		</g>
		<g>
			<path d="M140.7,899.2l150.4,0v4.3l-150.4,0V899.2z"/>
		</g>
		<g>
			<g>
				<path class="st0" d="M107,437.9l23.1,0v219.3l-23.1,0V437.9z"/>
			</g>
			<g>
				<path class="st0" d="M175.3,269.7l71.6,0v410.6l-71.6,0V269.7z"/>
			</g>
			<g>
				<path class="st0" d="M277.7,363l13.2,0v359.2l-13.2,0V363z"/>
			</g>
			<g>
				<path class="st0" d="M331.2,816.3l67.9,0V698.2l-67.9,0V816.3z"/>
			</g>
			<g>
				<path class="st0" d="M56.3,489.6l14.7,0v127l-14.7,0V489.6z"/>
			</g>
		</g>
		<g>
			<g>
				<path class="st1" d="M196.9,810.8c0,0-0.1,0.1-0.1,0.1v0C196.9,810.8,196.9,810.8,196.9,810.8L196.9,810.8z M26.6,689.2
					C26.6,689.2,26.6,689.2,26.6,689.2l-0.4,0.1c-1.6,1.3-2.5,2.6-2.6,3.9c2.6,2.7,4.1,7.1,4.7,13.4c0.6,2.6,0.6,10.4-0.1,23.6
					c0.3,3,1.1,5.5,2.3,7.6c2.5,4.5,7.1,8.4,14,11.5c1.5,0.7,3.9,1.2,7.3,1.6c12.1,0.4,18,0.7,17.6,1c5.8,1.3,9.5,2.7,11.3,4.1
					c1,1.1,1.7,2.8,2,4.9c-1,12.1-0.9,20.9,0.4,26.6c0.8,4.8,2.8,8.6,5.9,11.3c5.7,4.2,10.9,6.1,15.7,5.5c0.9-0.1,1.9-0.2,2.9-0.5
					c1-0.2,1.9-0.5,3-0.9c10.3-4.7,17.3-7.5,20.8-8.3c0.3-0.1,0.5-0.1,0.8-0.2c0.2-0.1,0.5-0.1,0.7-0.2c6.9-1.6,13.1-1.7,18.5-0.2
					c0.9,0.4,1.8,1.5,2.5,3.2c3.9,13.7,6.3,21.5,7.1,23.2c0.7,1.7,1.8,3.4,3.3,4.9c2.7,3.4,8,4.3,15.9,2.4c1.3-0.3,2.6-0.7,4-1.1
					c0.8,3.1,1.3,4.6,1.4,4.6c0,0,0,0,0,0c0.6,0.5,1.4,0.6,2.3,0.4c0.2,0,0.4-0.1,0.6-0.2c1-0.4,1.5-0.9,1.5-1.3
					c-0.6-1.9-1.2-3.8-1.7-5.6c5.7-3.7,8.9-7,9.6-9.8c0.1-0.6-0.4-1.5-1.4-2.8c-0.1-0.5-0.1-0.9,0.1-1.1l0,0c-6,5.3-9.2,8-9.6,8.1
					c0,0,0,0,0,0c-2.1-10.9-3.5-20-4.1-27c-0.1-1.2,2.6-7.6,8.2-19.2c0.7-2.1,1-4.3,0.9-6.8c-2.4-10.9-6.9-19.3-13.6-25.1
					c-4.3-4-11.9-7.9-22.6-11.5c-0.4-0.6-9.6-0.7-27.7-0.5c-2.6-0.2-4.9-0.6-6.6-1.2c-9.1-6.3-18.2-15.4-27.2-27.2
					c-2-1.8-4.1-3.2-6.5-4c-3.4-1.2-8.3-1.5-14.7-1c-1,0.1-2.4,0.3-4.1,0.7c-4.1,0.9-10.1,2.8-17.9,5.7c-1.4,0.2-4.3,0-8.4-0.5
					c-3-0.3-4.9-0.8-5.8-1.3C31.2,692.6,27.7,689,26.6,689.2z"/>
			</g>
			<g>
				<path class="st2" d="M41.3,718.3c0.3,0.6,2.5,1.6,4.1,2.3c1.6,0.7,2.6,1.1,4.8,2.1c2.2,1,3.2,1.4,4.7,2.1
					c1.6,0.7,3.8,1.7,4.7,2.2s3.2,1.5,4.7,2.2c1.6,0.7,2.5,1.2,4.7,2.2c2.2,1.1,3.1,1.5,4.7,2.3s3.8,1.8,4.7,2.3
					c0.9,0.5,3.1,1.6,4.6,2.4c1.5,0.8,2.5,1.3,4.6,2.4c2.2,1.1,3.1,1.6,4.6,2.4c1.5,0.8,3.7,2,4.6,2.5c0.9,0.5,3.1,1.7,4.6,2.5
					c1.5,0.8,2.4,1.3,4.5,2.5c2.1,1.2,3,1.7,4.5,2.6c1.5,0.9,3.6,2.1,4.5,2.6c0.9,0.5,2.9,1.8,4.4,2.6c1.5,0.9,2.4,1.4,4.4,2.7
					c2.1,1.2,2.9,1.8,4.4,2.7c1.4,0.9,3.5,2.2,4.4,2.8c0.9,0.6,2.9,1.8,4.4,2.7c1.4,0.9,2.3,1.5,4.3,2.8c2,1.3,2.9,1.9,4.3,2.9
					c1.4,1,3.4,2.3,4.3,2.9c0.8,0.6,2.8,2,4.2,2.9c1.4,1,2.2,1.6,4.2,3c2,1.4,2.8,2,4.2,3c1.4,1,3.3,2.5,4.1,3.1
					c0.8,0.6,2.8,2.1,4.1,3.1c1.4,1,2.2,1.6,4.1,3.1c1.9,1.5,2.7,2.1,4.1,3.2c1.4,1.1,3.2,2.6,3.8,3c0.6,0.5,2.4-1.8,2-2.1
					c0,0-0.8-0.6-2.7-2.1c-1.9-1.5-2.7-2.1-4.1-3.2c-1.4-1.1-3.3-2.5-4.1-3.2c-0.8-0.6-2.8-2.1-4.1-3.1c-1.4-1-2.2-1.6-4.1-3.1
					c-1.9-1.4-2.8-2.1-4.2-3.1c-1.4-1-3.4-2.4-4.2-3c-0.8-0.6-2.8-2-4.2-3c-1.4-1-2.3-1.6-4.3-3c-2-1.4-2.8-1.9-4.3-2.9
					c-1.4-1-3.4-2.3-4.3-2.9c-0.9-0.6-2.9-1.9-4.3-2.8c-1.4-0.9-2.3-1.5-4.3-2.8c-2-1.3-2.9-1.9-4.4-2.8c-1.5-0.9-3.5-2.2-4.4-2.7
					c-0.9-0.5-2.9-1.8-4.4-2.7c-1.5-0.9-2.4-1.4-4.5-2.7c-2.1-1.2-3-1.8-4.5-2.6c-1.5-0.9-3.6-2.1-4.5-2.6c-0.9-0.5-3.1-1.7-4.6-2.5
					c-1.5-0.8-2.4-1.3-4.6-2.5c-2.1-1.2-3.1-1.7-4.6-2.5c-1.6-0.8-3.7-1.9-4.6-2.4c-0.9-0.5-3.1-1.6-4.6-2.4
					c-1.6-0.8-2.5-1.3-4.7-2.3c-2.2-1.1-3.1-1.5-4.7-2.3c-1.6-0.8-3.8-1.8-4.7-2.3c-1-0.4-3.2-1.5-4.8-2.2c-1.6-0.7-2.5-1.1-4.8-2.1
					c-2.2-1-3.2-1.4-4.8-2.1c-1.6-0.7-3.9-1.6-4.8-2c-1-0.4-3.2-1.4-4.4-1.6C42.3,716,41.8,718.5,41.3,718.3z"/>
			</g>
			<g>
				<path class="st3" d="M34.6,624.6c0,3.3-0.1,6.9-0.1,10.7v0c-0.1-2.1-0.1-4.7,0-8.1C34.5,626.2,34.5,625.4,34.6,624.6L34.6,624.6
					z M149,630.4L149,630.4c0,1,0,2.2-0.1,3.5c0,0.7,0,1.5-0.1,2.3v0L149,630.4L149,630.4z M51.3,660.4l10.2,1.8v0
					c-3.9-0.6-8.3-1.1-9.2-1.4C52,660.7,51.6,660.6,51.3,660.4L51.3,660.4z M100.5,725.3l0.1,0.7l0,0
					C100.5,725.7,100.5,725.5,100.5,725.3L100.5,725.3z M123.5,753.4l11,2.3v0c-2.2-0.4-4.3-0.8-6.1-1.1
					C126.4,754.2,124.8,753.8,123.5,753.4L123.5,753.4z M205.4,753.2c-0.5,1.4-1.3,3.5-2.1,5.8v0L205.4,753.2L205.4,753.2z
					 M29.9,577.9c-0.1,0-0.3,0.1-0.4,0.2v0c-0.3,0-0.6,0.1-0.9,0.1c-1.7,0.4-3.3,1.5-2.8,3.2c0.9,3.1,1.6,7.6,2,13.6
					c0.4,6,0.6,13.5,0.4,22.5c-0.1,9-0.5,19.5,0.1,23.3c0.6,3.8,1.5,7,2.7,9.9c1.2,2.9,2.8,5.3,4.8,7.3c2,2,4,3.3,5.2,4.2
					c1.2,0.9,2.5,1.7,3.9,2.5c1.3,0.7,2.7,1.4,4,1.9c1.4,0.5,3,1,7.7,1.6c4.7,0.6,8.4,1.2,11.2,1.7c2.8,0.5,4.6,0.9,5.1,1
					c0.5,0.1,0.6,0.4,2.5,1.6c1.8,1.2,3.5,2.4,5,3.7c1.5,1.3,2.9,2.7,4.2,4.2c1.3,1.5,2.5,3.2,3.2,4.3c0.7,1.1,1.3,2.2,1.8,3.3
					c0.5,1.1,0.9,2.1,1.1,3.2c0.3,1,0.4,1.9,1.8,21.6c1.4,19.7,1.9,22,2.5,23.9c0.6,1.9,1.5,3.7,2.5,5.5c1.1,1.8,2.3,3.5,3.8,5.2
					c1.5,1.7,3.5,3.4,5.6,5c2.1,1.5,4.3,2.9,6.7,4.2c2.4,1.2,4.9,2.3,7.8,3.3s10.5,2.1,17.1,3.3c6.5,1.1,12.1,2.3,16.6,3.5
					c4.5,1.2,8,2.3,10.4,3.4c2.4,1.1,7,4.6,11.1,8.1c4.1,3.5,7.5,7,10.3,10.3c2.8,3.4,5,6.6,6.1,8c1,1.6,2.3,1.4,3.5,1.1
					c0.3-0.1,0.7-0.2,0.9-0.2c0.8-0.2,1.3-0.2,1.6,0.4c0-0.9-0.4-2.2-1.1-3.6l0,0c0.1,0,0.3-0.1,0.4-0.1c0.8-0.2,1.3-0.4,1.3-0.7
					c0,0-0.2-1.7-0.3-3.3c-0.1-1.6-0.1-3.3,0.1-4.9c0.1-1.6,0.4-3.2,0.7-4.7c0.3-1.5,5.2-13.8,7.9-21.2c2.7-7.4,2.8-9.4,2.8-11.5
					c0-2.1-0.3-4.2-0.7-6.4c-0.4-2.2-1-4.4-1.7-6.9c-0.8-2.5-1.7-5.2-2.8-7.8c-1.1-2.6-2.4-5.1-3.7-7.5c-1.4-2.4-2.9-4.7-4.4-6.7
					c-1.5-2-3.2-4.1-5.5-6.5c-2.3-2.4-5.1-5.1-8.5-8c-3.4-3-7.4-6.3-10.3-9.1c-2.9-2.8-4.8-5.3-6.7-7.8c-1.8-2.5-3.6-5.1-5.3-7.8
					c-1.7-2.6-3.3-5.3-4.3-7.2c-1-1.9-1.5-3-1.9-4.4c-0.4-1.4-0.8-2.9-1.1-4.6c-0.3-1.7-0.6-3.5-0.5-7c0.1-3.5,0.4-8.4,0.5-12.3
					c0.2-3.9,0.2-6.8,0.2-8.9c0-2-0.3-3.5-0.5-4.2c-0.2-0.7-0.7-2.2-1.3-3.6c-0.7-1.5-1.5-2.9-2.5-4.3c-1-1.4-2.2-2.8-4.1-4.6
					c-1.9-1.7-4.4-3.5-7.4-5c-3-1.6-6.3-2.9-10-4.1c-3.7-1.2-7.9-2.2-20.7-1.5c-12.8,0.7-33.3,2.9-34.6,2.9c-1.4-0.1-3-0.2-4.8-0.5
					s-3.7-0.7-5.8-1.2c-2.1-0.5-4.3-1.2-5.6-1.6c-1.3-0.5-2.5-1-3.6-1.6c-1.1-0.6-2.1-1.2-2.9-1.9c-0.9-0.7-1.7-1.5-5.1-4.7
					c-3.4-3.2-6.2-6-8.4-8.4c-2.2-2.4-3.8-4.4-4.7-5.8c-0.2-0.3-0.7-0.6-1.4-0.6l0,0C30.4,577.9,30.2,577.9,29.9,577.9z"/>
			</g>
			<g>
				<path class="st2" d="M202.6,816.6c0.5-0.6,0-3-0.4-4.6c-0.4-1.7-0.6-2.7-1.1-5c-0.5-2.3-0.7-3.4-1.2-5.1c-0.5-1.7-1.1-4-1.3-5
					c-0.3-1-0.9-3.3-1.4-5c-0.5-1.7-0.8-2.7-1.5-5c-0.7-2.3-1-3.2-1.6-4.9c-0.5-1.6-1.3-3.9-1.6-4.9c-0.4-1-1.2-3.3-1.8-4.8
					c-0.6-1.6-1-2.5-1.8-4.8c-0.8-2.2-1.2-3.2-1.9-4.8c-0.7-1.6-1.7-3.8-2.1-4.7c-0.4-0.9-1.4-3.1-2.1-4.7c-0.7-1.6-1.2-2.6-2.3-4.7
					c-1.1-2.1-1.5-3-2.3-4.6c-0.8-1.5-1.8-3.6-2.4-4.6c-0.5-1-1.7-3-2.5-4.5c-0.8-1.5-1.3-2.4-2.5-4.4c-1.2-2.1-1.7-3-2.6-4.5
					c-0.9-1.5-2.2-3.5-2.8-4.3c-0.5-0.9-1.8-2.9-2.8-4.3c-0.9-1.5-1.6-2.3-2.9-4.3c-1.4-1.9-2-2.8-3-4.2c-1-1.4-2.4-3.3-3-4.2
					c-0.6-0.9-2.1-2.7-3.1-4c-1-1.3-1.7-2.1-3.1-4c-1.5-1.9-2.1-2.7-3.2-4c-1.1-1.3-2.7-3.1-3.3-3.8c-0.7-0.8-2.2-2.5-3.3-3.8
					c-1.1-1.3-1.9-2.1-3.5-3.8c-1.6-1.7-2.3-2.4-3.5-3.7c-1.2-1.2-2.8-2.9-3.5-3.7s-2.5-2.4-3.7-3.5c-1.2-1.2-1.9-1.9-3.7-3.5
					c-1.7-1.6-2.5-2.4-3.8-3.5c-1.3-1.1-3.1-2.7-3.8-3.3c-0.8-0.7-2.5-2.2-3.8-3.3c-1.3-1.1-2.1-1.8-4-3.2c-1.8-1.5-2.6-2.1-4-3.1
					c-1.3-1-3.2-2.5-4-3.1c-0.8-0.6-2.8-2-4.1-3s-2.2-1.6-4.1-2.9c-1.9-1.4-2.8-2-4.2-2.9c-1.4-0.9-3.4-2.2-4.3-2.8
					c-0.8-0.5-2.8-1.8-4.2-2.8c-1.4-0.9-2.3-1.5-4.4-2.7c-2-1.2-2.9-1.7-4.4-2.6c-1.4-0.9-3.5-2.1-4.1-2.4c-0.6-0.4-2.8,3.4-2.4,3.6
					c0,0,0.9,0.5,2.9,1.7s2.9,1.7,4.4,2.5c1.5,0.8,3.5,2,4.3,2.5c0.8,0.5,2.8,1.8,4.2,2.7c1.4,0.9,2.3,1.5,4.2,2.7
					c2,1.3,2.8,1.8,4.1,2.8c1.3,1,3.3,2.3,4.1,2.9c0.8,0.6,2.7,2,4.1,2.9c1.3,1,2.1,1.6,3.9,3c1.8,1.5,2.6,2.1,3.9,3.2
					c1.3,1.1,3.2,2.5,3.9,3.1c0.7,0.6,2.5,2.2,3.8,3.3c1.3,1.1,2,1.8,3.8,3.3c1.8,1.6,2.5,2.2,3.7,3.3c1.2,1.2,2.9,2.8,3.6,3.5
					c0.7,0.7,2.4,2.4,3.6,3.5c1.2,1.2,1.8,1.9,3.4,3.6c1.6,1.7,2.3,2.5,3.4,3.7c1.1,1.2,2.7,3,3.4,3.7c0.6,0.7,2.2,2.5,3.2,3.8
					c1.1,1.3,1.7,2.1,3.3,3.9s2.1,2.5,3.1,3.8s2.4,3.2,3,4c0.6,0.8,2,2.7,3,4c1,1.3,1.5,2.1,2.9,4.1s1.9,2.8,2.9,4.2
					c1,1.4,2.3,3.4,2.8,4.2c0.5,0.8,1.8,2.8,2.7,4.3c0.9,1.4,1.4,2.3,2.7,4.3c1.3,2,1.8,2.8,2.6,4.3c0.8,1.5,2,3.5,2.5,4.4
					c0.5,0.9,1.7,3,2.5,4.4c0.8,1.5,1.2,2.3,2.3,4.4c1.1,2.1,1.5,3,2.3,4.6c0.8,1.5,1.8,3.7,2.2,4.5c0.4,0.9,1.4,3,2.1,4.6
					c0.7,1.6,1.1,2.5,2.1,4.7s1.3,3.1,1.9,4.6c0.6,1.6,1.5,3.8,1.8,4.7c0.4,1,1.2,3.2,1.8,4.7c0.6,1.6,0.9,2.5,1.7,4.7
					c0.8,2.3,1.1,3.2,1.6,4.8c0.5,1.6,1.3,3.9,1.6,4.8c0.3,0.9,0.9,3.2,1.4,4.8c0.5,1.6,0.7,2.6,1.4,4.9c0.7,2.3,0.9,3.2,1.3,4.8
					c0.4,1.6,0.9,4,1.1,4.9c0.2,1,0.8,3.3,1.4,4.4C198.9,817.4,202.5,816.1,202.6,816.6z"/>
			</g>
			<g>
				<path class="st4" d="M91.6,519.3c0,0.7,0,1.5,0.1,2.2v0C91.6,520.9,91.5,520.3,91.6,519.3L91.6,519.3z M96.9,530.4l1.3,0.7v0
					c-0.3-0.2-0.7-0.3-1-0.5C97.1,530.5,97,530.4,96.9,530.4L96.9,530.4z M166.5,521.1L166.5,521.1c3.1-0.4,6.1-0.7,7.9-0.8v0
					C171.6,520.6,169,520.9,166.5,521.1L166.5,521.1z M201.7,551.3c-0.1,0.7-0.4,1.5-0.7,2.7v0L201.7,551.3L201.7,551.3z M109.3,579
					c-0.2,1.8-0.3,3.8-0.5,5.8v0C108.8,583.6,109,581.9,109.3,579L109.3,579z M219.7,664.5c-0.6,1.8-1.4,4-2.7,7.1
					c-0.4,1-0.9,1.9-1.3,2.9v0C216.9,671.6,218.2,668.2,219.7,664.5L219.7,664.5z M212.3,764.6c-0.1,0.5-0.4,1.1-0.7,2
					c-0.4,1-0.8,2-1.3,3v0C211,768,211.7,766.3,212.3,764.6L212.3,764.6z M204.4,779.1L204.4,779.1c-1.3,1.7-2.5,3.3-4.2,4.1v0
					C201.7,782,203.1,780.6,204.4,779.1L204.4,779.1z M106,495.8c-4.6,1.1-8.4,2.8-11.4,5.2c-3.2,2.5-5.3,5.8-6.5,9.7
					c-1.1,3.9-1.2,8.2-1.1,9.8c0,1.6,0.2,3.1,0.6,4.6c0.4,1.4,0.9,2.8,1.6,4c0.7,1.2,1.3,1.9,1.7,2.6c0.4,0.7,1.4,1.5,2.7,2.2
					c1.3,0.8,3,1.6,5.2,2.5c2.1,0.9,4.6,1.9,4.6,1.9l0,0c0,0,0,0,0,0l0,0c0,0,0.1,0.2,0.3,0.6c0.2,0.4,0.4,0.9,0.7,1.6
					c0.2,0.7,0.5,1.6,1,3.8c0.5,2.1,0.7,5.4,0.7,9.8c0,4.4-0.3,9.9-0.9,16.6c-0.6,6.6-1.4,14.4-1.3,16c0.1,1.5,0.3,2.9,0.6,4.2
					c0.3,1.3,0.7,2.5,1.2,3.7c0.5,1.2,1.1,2.3,1.6,3.2c0.5,0.9,1.2,1.8,1.9,2.6c0.7,0.8,1.5,1.5,2.3,2.1c0.8,0.6,2,1.3,6.1,2.9
					c4.1,1.6,7.6,3.1,10.4,4.3c2.8,1.3,5,2.3,6.5,3.2c1.5,0.9,2.5,1.6,3.2,2.2c0.7,0.5,1.3,1.1,1.8,1.7c0.5,0.6,0.9,1.3,1.2,2.1
					c0.3,0.8,0.6,1.8,1.1,4c0.5,2.2,0.9,4.4,1.1,6.7c0.2,2.3,0.3,4.6,0.3,7.1c0,2.4-0.2,5-0.3,6.1c-0.1,1.1-0.4,2.8-1.1,5.3
					c-0.7,2.5-1.6,5.6-2.9,9.4c-1.3,3.8-2.8,8.3-3.1,9.4c-0.3,1.1-0.4,2.1-0.6,3.3c-0.1,1.2-0.2,2.4-0.3,3.7
					c-0.1,1.3-0.1,2.9,0.4,7.2c0.5,4.3,1.1,8.4,1.8,12.3c0.7,3.9,1.6,7.7,2.7,11.3c1,3.6,2.2,7.1,3.5,9.8c1.2,2.8,2.5,5.3,3.8,7.6
					c1.3,2.3,2.7,4.4,4,6.3c1.4,1.9,2.8,3.5,4.1,5.1c1.4,1.6,3.1,3.3,5.1,5.2c2,1.8,4.3,3.8,7,5.8c2.7,2,5.2,3.8,11.7,12.6
					c6.5,8.7,8.6,12,10.5,15.2c1.8,3.2,3.3,6.1,4.4,8.9c0.5,1.3,1,2.5,1.3,3.6v0c-0.8,0-1.3,0-1.6-0.1c-0.5-0.2-0.6-0.9-0.4-2.3
					c0.2-1.1-2-1.7-3.1-1.4c-0.3,0.1-0.5,0.2-0.6,0.4c0,0-0.3,2.3,0.7,4.4c1,2.1,3.3,2.8,6.1,2.6c0.1,0,0.1,0,0.2,0l0,0
					c1,1.4,3.5,0.2,3.6,1.3c0.1-0.5,0.1-1.3,0-2.1l0,0c1.9-0.7,3.7-1.7,4.9-3.2c2.1-2.5,3.7-4.8,5.1-7.1c1.4-2.3,2.6-4.5,3.6-6.6
					c1-2.2,1.7-4.3,1.9-5.3c0.2-1,0.3-1.9,0.4-2.9c0.1-1,0-1.9,0-2.9c-0.1-1-0.2-2-1.3-7.6c-1.1-5.5-2.1-10.3-2.8-14.4
					c-0.7-4.1-1.3-7.4-1.7-10c-0.4-2.6-0.6-4.5-0.7-6.3c-0.2-1.7-0.3-3.4-0.3-5.1s0-3.4,0-5.1c0.1-1.7,0.2-3.4,0.6-6.6
					c0.4-3.2,1.3-6.9,2.6-11.1c1.3-4.2,3.1-9,5.3-14.3c2.2-5.3,4.9-11.2,5.7-14.2c0.7-3,1.3-5.5,1.7-7.6c0.4-2.1,0.7-3.9,0.9-5.2
					c0.2-1.4,0.2-2.3,0.1-4.2c0-1.8-0.3-3.9-0.9-6.2c-0.6-2.3-1.4-4.8-2.4-7.5c-1.1-2.7-2.4-5.6-3.9-8.5c-1.6-2.9-3.3-5.8-5.1-8.7
					c-1.9-2.9-3.9-5.8-6.1-8.8c-2.2-2.9-4.5-5.8-4.9-6.7c-0.5-0.9-0.9-1.7-1.3-2.6c-0.4-0.8-0.7-1.7-0.9-2.4
					c-0.2-0.8-0.4-1.5-0.9-4.9c-0.5-3.3-0.6-7.2-0.1-11.8c0.4-4.6,1.4-9.8,2.8-15.6c1.4-5.8,3.4-12.4,3.4-13.8
					c0-1.5-0.2-2.8-0.4-4.3c-0.2-1.5-0.6-3.2-1-5c-0.4-1.8-0.9-3.8-1.9-6.2c-1-2.4-2.3-4.6-3.9-6.7c-1.6-2-3.6-3.9-5.9-5.5
					s-4.9-3-6.4-3.6c-1.5-0.6-3-1-4.5-1.4c-1.5-0.4-3-0.6-4.6-0.8c-1.6-0.2-3.5-0.3-8.8,0.4c-5.3,0.7-9.9,1-13.6,1.1
					c-3.7,0.1-6.7-0.1-8.7-0.5c-2.1-0.4-3.5-1.2-4.3-1.4c-0.7-0.2-1.3-0.5-1.8-0.7c-0.5-0.2-1-0.5-1.4-0.7c-0.4-0.3-0.6-0.4-2.2-1.9
					c-1.5-1.6-3.3-3.3-5.3-5s-4.2-3.6-6.7-5.6c-2.4-2-5.1-4-5.8-4.5c-0.7-0.5-1.5-1-2.3-1.3c-0.8-0.4-1.6-0.7-2.5-0.9
					c-0.9-0.2-2.4-0.4-7.3,0.6C106.5,495.7,106.2,495.7,106,495.8z"/>
			</g>
			<g>
				<path class="st2" d="M115.8,528.1c5.1,2.7,14.8,8,23.6,14.9c8.7,6.8,16.4,15.2,23.1,25.1c6.7,9.9,12.4,21.3,15.5,29.5
					c3.1,8.2,4.3,12,5.2,15.4c0.9,3.4,1.6,6.5,2,9.2c0.4,2.7,0.6,5,0.6,6.7c0,1.7,0,2.8,0,4c0,1.1-0.1,2.2-0.2,3.3
					c-0.1,1-0.2,2-0.7,4.8c-0.5,2.7-1.3,6.9-1.9,10.3c-0.6,3.4-1.1,6.2-1.3,8.2c-0.3,2-0.4,3.4-0.5,5.1c-0.1,1.7-0.2,4.5-0.2,7.6
					c0,3.1,0,6.4,0.1,10c0.1,3.6,0.3,7.4,0.5,11.1c0.3,3.6,0.7,6.8,1,9.8c0.4,3,0.8,5.9,1.3,8.7c0.4,2.8,0.9,5.5,1.5,8.6
					s1.3,6.8,2.2,11.1c0.9,4.2,1.8,8.9,2.9,14c1.1,5.1,2.3,10.7,3.1,14.1s1,4.7,1.3,6.2c0.3,1.5,0.6,3.3,1,5.4
					c0.4,2.1,0.8,4.5,1.1,6.6c0.3,2.1,0.5,3.6,0.7,5c0.1,1.4,0.2,2.8,0.3,4.2c0,1.3,0,2.6,0,3.5c0,0.9,3.4,1.1,3.5,0.4
					c0,0,0-1.3,0-2.7c0-1.4-0.1-2.8-0.2-4.3c-0.1-1.5-0.3-3-0.5-4.6c-0.2-1.6-0.7-4.2-1.1-6.5c-0.4-2.3-0.8-4.3-1.1-6.1
					c-0.3-1.7-0.6-3.2-0.8-4.3c-0.2-1.2-1.5-7-2.7-12.4c-1.2-5.4-2.2-10.4-3.1-14.9c-0.9-4.5-1.7-8.6-2.4-12.2
					c-0.7-3.6-1.1-6.2-1.6-8.9c-0.4-2.7-0.9-5.5-1.2-8.5c-0.4-2.9-0.8-5.9-1.1-9c-0.3-3.1-0.5-7-0.6-10.7c-0.1-3.7-0.1-7.2-0.1-10.3
					c0-3.2,0.1-6.1,0.2-8.8c0.1-2.7,0.1-3.4,0.3-4.9c0.2-1.4,0.5-3.6,1-6.6c0.5-2.9,1.2-6.6,2.1-11c0.9-4.4,1-5.5,1.1-6.6
					c0.1-1.1,0.2-2.2,0.3-3.4c0.1-1.2,0.1-2.4,0.1-3.6c0-1.2,0-3.5-0.3-6.2c-0.3-2.7-0.8-5.7-1.5-9c-0.8-3.3-1.7-6.9-3-10.9
					c-1.2-4-6.3-16.8-12.5-28c-6.2-11.3-13.5-21-21.9-29.1c-8.4-8.1-17.9-14.7-23.2-17.2C117,525.3,121.2,530.3,115.8,528.1z"/>
			</g>
		</g>
		<g>
			<g>
				<path class="st1" d="M204.7,804.6C204.7,804.7,204.8,804.7,204.7,804.6L204.7,804.6C204.8,804.7,204.7,804.7,204.7,804.6
					L204.7,804.6z M321.4,739.8C321.4,739.8,321.4,739.8,321.4,739.8l0.2,0.1c0.9,1,1.4,1.8,1.3,2.6c-1.8,1.5-3.1,4.2-4,8.1
					c-0.6,1.6-1.1,6.6-1.7,15c-0.4,1.9-1.1,3.4-2,4.7c-1.9,2.7-5.1,4.8-9.7,6.3c-1,0.3-2.6,0.5-4.7,0.5c-7.7-0.6-11.5-0.8-11.2-0.6
					c-3.7,0.4-6.2,1-7.4,1.8c-0.7,0.6-1.3,1.6-1.6,3c-0.2,7.7-0.9,13.3-2.2,16.8c-0.9,3-2.4,5.2-4.6,6.7c-3.9,2.3-7.4,3.1-10.4,2.4
					c-0.6-0.1-1.2-0.3-1.8-0.5c-0.6-0.2-1.2-0.5-1.8-0.8c-6.2-3.7-10.4-6-12.6-6.8c-0.2-0.1-0.3-0.1-0.5-0.2
					c-0.1-0.1-0.3-0.1-0.4-0.2c-4.3-1.5-8.2-2-11.7-1.5c-0.6,0.2-1.2,0.8-1.8,1.8c-3.5,8.4-5.5,13.2-6.2,14.2c-0.6,1-1.4,2-2.4,2.9
					c-2,2-5.4,2.1-10.2,0.4c-0.8-0.3-1.6-0.6-2.5-1c-0.8,1.9-1.2,2.8-1.2,2.8c0,0,0,0,0,0c-0.4,0.3-0.9,0.3-1.5,0.1
					c-0.1,0-0.3-0.1-0.4-0.2c-0.6-0.3-0.9-0.7-0.9-0.9c0.5-1.2,1-2.3,1.5-3.5c-3.4-2.8-5.2-5.1-5.4-6.9c0-0.4,0.3-0.9,1.1-1.7
					c0.1-0.3,0.1-0.6,0-0.7l0,0c3.4,3.8,5.3,5.7,5.5,5.8c0,0,0,0,0,0c2.1-6.8,3.7-12.4,4.6-16.8c0.2-0.8-1.1-5-3.8-12.8
					c-0.3-1.4-0.3-2.8-0.1-4.4c2.3-6.7,5.8-11.7,10.4-15c3-2.2,8.1-4.1,15.2-5.7c0.3-0.3,6.2,0.2,17.6,1.7c1.7,0.1,3.1,0,4.3-0.3
					c6.2-3.4,12.6-8.5,19.2-15.3c1.4-1,2.8-1.7,4.4-2.1c2.2-0.5,5.3-0.4,9.4,0.4c0.7,0.1,1.5,0.4,2.5,0.7c2.5,0.9,6.2,2.5,11,4.9
					c0.9,0.2,2.7,0.3,5.4,0.3c1.9,0,3.2-0.1,3.8-0.4C318.2,741.6,320.7,739.6,321.4,739.8z"/>
			</g>
			<g>
				<path class="st2" d="M309.6,755.7c-0.4-0.2-1.9,0.3-3,0.6s-1.7,0.5-3.2,0.9c-1.5,0.4-2.1,0.6-3.2,1c-1.1,0.3-2.5,0.8-3.2,1
					c-0.6,0.2-2.1,0.7-3.2,1s-1.7,0.6-3.2,1.1c-1.5,0.5-2.1,0.7-3.1,1.1c-1,0.4-2.5,0.9-3.1,1.1s-2.1,0.8-3.1,1.2
					c-1,0.4-1.7,0.6-3.1,1.2c-1.5,0.6-2.1,0.8-3.1,1.2c-1,0.4-2.5,1-3.1,1.3c-0.6,0.3-2.1,0.8-3.1,1.3c-1,0.4-1.7,0.7-3.1,1.3
					c-1.4,0.6-2,0.9-3,1.3c-1,0.4-2.4,1.1-3,1.4c-0.6,0.3-2,0.9-3,1.4c-1,0.5-1.6,0.7-3,1.4c-1.4,0.7-2,0.9-3,1.4
					c-1,0.5-2.4,1.2-2.9,1.5c-0.6,0.3-2,1-2.9,1.5c-1,0.5-1.6,0.8-2.9,1.5c-1.4,0.7-1.9,1-2.9,1.5c-1,0.5-2.3,1.2-2.9,1.5
					c-0.6,0.3-1.9,1.1-2.9,1.6c-1,0.5-1.5,0.9-2.9,1.6c-1.3,0.7-1.9,1.1-2.9,1.6c-1,0.6-2.3,1.3-2.8,1.7c-0.6,0.3-1.9,1.1-2.8,1.7
					c-1,0.6-1.5,0.9-2.8,1.7c-1.3,0.8-1.9,1.1-2.8,1.7c-0.9,0.6-2.2,1.4-2.7,1.6c-0.4,0.3,0.5,1.8,0.8,1.7c0,0,0.6-0.4,1.9-1.2
					c1.3-0.8,1.9-1.2,2.8-1.7c0.9-0.6,2.2-1.4,2.8-1.7c0.6-0.3,1.9-1.1,2.8-1.7c0.9-0.6,1.5-0.9,2.8-1.7c1.3-0.8,1.9-1.1,2.8-1.6
					c1-0.5,2.3-1.3,2.9-1.6c0.6-0.3,1.9-1.1,2.9-1.6c1-0.5,1.5-0.8,2.9-1.5c1.4-0.7,1.9-1,2.9-1.5c1-0.5,2.3-1.2,2.9-1.5
					c0.6-0.3,2-1,2.9-1.4c1-0.5,1.6-0.8,3-1.4c1.4-0.7,2-1,3-1.4c1-0.5,2.4-1.1,3-1.4c0.6-0.3,2-0.9,3-1.4c1-0.5,1.6-0.7,3-1.3
					c1.4-0.6,2-0.9,3.1-1.3c1-0.4,2.4-1,3-1.3c0.6-0.2,2-0.8,3.1-1.2c1-0.4,1.6-0.7,3.1-1.2c1.4-0.6,2-0.8,3.1-1.2
					c1-0.4,2.5-0.9,3.1-1.2c0.6-0.2,2.1-0.8,3.1-1.2c1-0.4,1.6-0.6,3.1-1.1c1.5-0.5,2.1-0.7,3.1-1.1c1-0.4,2.5-0.9,3.1-1.1
					c0.6-0.2,2.1-0.7,3.1-1c1.1-0.3,1.7-0.6,3.2-1c1.5-0.5,2.1-0.7,3.1-1c1.1-0.3,2.5-0.8,3.2-1c0.6-0.2,2.1-0.6,2.8-1
					C310,757.2,309.2,755.8,309.6,755.7z"/>
			</g>
			<g>
				<path class="st3" d="M321,698.3c-0.2,2.1-0.5,4.4-0.7,6.8v0c0.2-1.3,0.4-3,0.6-5.2C320.9,699.4,321,698.8,321,698.3L321,698.3z
					 M248.1,693.8L248.1,693.8c-0.1,0.6-0.1,1.4-0.2,2.2c0,0.5-0.1,0.9-0.1,1.5v0L248.1,693.8L248.1,693.8z M307.8,719.8l-6.6,0.4v0
					c2.5-0.1,5.4-0.1,5.9-0.2C307.4,719.9,307.6,719.9,307.8,719.8L307.8,719.8z M272,757.4l-0.1,0.4l0,0
					C271.9,757.7,272,757.5,272,757.4L272,757.4z M255.4,773.6l-7.2,0.7v0c1.4-0.1,2.8-0.2,3.9-0.3
					C253.5,773.9,254.5,773.7,255.4,773.6L255.4,773.6z M203.5,767.5c0.2,1,0.5,2.3,0.9,3.8v0L203.5,767.5L203.5,767.5z
					 M327.3,669.1c0.1,0,0.2,0.1,0.2,0.1v0c0.2,0,0.4,0.1,0.5,0.1c1.1,0.4,2,1.2,1.6,2.2c-0.8,1.9-1.6,4.7-2.3,8.5
					c-0.7,3.8-1.3,8.5-1.9,14.2c-0.6,5.7-1.1,12.4-1.7,14.8c-0.7,2.4-1.5,4.4-2.5,6.1c-1,1.7-2.2,3.2-3.6,4.3
					c-1.4,1.1-2.8,1.8-3.6,2.3c-0.8,0.5-1.7,0.9-2.6,1.3c-0.9,0.4-1.8,0.7-2.7,0.9c-0.9,0.2-2,0.4-5,0.5c-3,0.1-5.4,0.2-7.2,0.3
					c-1.8,0.1-3,0.2-3.3,0.3c-0.3,0-0.4,0.2-1.7,0.8c-1.3,0.6-2.4,1.3-3.4,2c-1,0.7-2,1.5-3,2.4c-0.9,0.9-1.8,1.8-2.4,2.5
					c-0.5,0.7-1,1.3-1.4,2c-0.4,0.6-0.7,1.3-0.9,1.9c-0.2,0.6-0.4,1.2-2.7,13.6c-2.3,12.4-2.8,13.8-3.3,14.9c-0.5,1.2-1.2,2.3-2,3.3
					c-0.8,1.1-1.7,2.1-2.8,3c-1.1,1-2.5,1.9-3.9,2.8c-1.4,0.8-3,1.5-4.6,2.2c-1.6,0.6-3.3,1.1-5.2,1.5c-1.9,0.4-6.8,0.6-11.1,0.9
					c-4.2,0.3-7.8,0.6-10.8,1c-3,0.4-5.3,0.9-6.8,1.4c-1.6,0.5-4.8,2.4-7.6,4.4c-2.8,1.9-5.3,3.9-7.3,5.8c-2,1.9-3.6,3.8-4.5,4.6
					c-0.7,0.9-1.6,0.7-2.3,0.5c-0.2-0.1-0.4-0.2-0.6-0.2c-0.5-0.2-0.8-0.2-1,0.1c0.1-0.6,0.4-1.3,0.9-2.2l0,0
					c-0.1,0-0.2-0.1-0.2-0.1c-0.5-0.2-0.8-0.4-0.7-0.6c0,0,0.3-1.1,0.4-2.1c0.2-1,0.3-2.1,0.3-3.1c0-1,0-2.1-0.1-3
					c-0.1-1-2.3-9.1-3.5-14c-1.2-4.9-1.1-6.2-0.9-7.5c0.2-1.3,0.5-2.6,0.9-4c0.4-1.4,0.9-2.7,1.6-4.3c0.7-1.5,1.5-3.2,2.4-4.7
					c0.9-1.6,1.9-3.1,2.9-4.5c1.1-1.4,2.2-2.8,3.3-4c1.1-1.2,2.3-2.4,4-3.7c1.6-1.3,3.6-2.8,6-4.5c2.4-1.6,5.1-3.5,7.2-5
					c2.1-1.6,3.5-3,4.8-4.5c1.3-1.5,2.6-3,3.9-4.6c1.3-1.5,2.5-3.1,3.3-4.2c0.8-1.1,1.2-1.8,1.5-2.7c0.4-0.8,0.7-1.8,1.1-2.8
					c0.3-1,0.6-2.2,0.8-4.4c0.2-2.2,0.4-5.3,0.5-7.8c0.2-2.5,0.3-4.3,0.5-5.6c0.2-1.3,0.5-2.2,0.6-2.6c0.2-0.4,0.6-1.3,1.1-2.2
					c0.5-0.9,1.2-1.7,1.9-2.6c0.7-0.8,1.6-1.6,2.9-2.6c1.3-1,3.1-1.9,5.1-2.7c2-0.8,4.2-1.4,6.7-1.9c2.5-0.5,5.1-0.8,13.2,0.5
					c8.1,1.3,20.9,4.3,21.7,4.3c0.9,0.1,1.9,0.1,3.1,0s2.4-0.2,3.8-0.4c1.4-0.2,2.8-0.4,3.7-0.6c0.9-0.2,1.7-0.5,2.4-0.7
					c0.7-0.3,1.4-0.6,2-1c0.6-0.4,1.2-0.8,3.6-2.6c2.4-1.8,4.4-3.3,5.9-4.7c1.6-1.4,2.7-2.5,3.4-3.4c0.2-0.2,0.5-0.3,0.9-0.3l0,0
					C327,669,327.1,669,327.3,669.1z"/>
			</g>
			<g>
				<path class="st2" d="M203,808.7c0.5-0.2,1-1.6,1.4-2.6c0.4-1,0.6-1.6,1.1-3.1c0.5-1.4,0.7-2,1.1-3c0.4-1,1-2.4,1.2-3
					c0.2-0.6,0.8-2,1.2-3c0.4-1,0.7-1.5,1.3-2.9c0.6-1.4,0.9-2,1.4-3c0.5-1,1.1-2.4,1.4-2.9c0.3-0.5,1-1.9,1.5-2.9
					c0.5-1,0.8-1.5,1.5-2.9c0.7-1.3,1-1.9,1.5-2.8c0.5-0.9,1.3-2.2,1.6-2.8c0.3-0.6,1.1-1.9,1.6-2.8c0.5-0.9,0.9-1.4,1.7-2.7
					c0.8-1.3,1.2-1.8,1.8-2.7s1.4-2.2,1.8-2.7c0.3-0.5,1.2-1.7,1.9-2.6c0.6-0.9,1-1.4,1.9-2.6c0.9-1.2,1.2-1.7,1.9-2.6
					c0.7-0.8,1.6-2,2-2.5c0.4-0.5,1.3-1.7,2-2.5c0.7-0.8,1.1-1.3,2.1-2.4c1-1.1,1.4-1.6,2.1-2.5c0.7-0.8,1.7-2,2.1-2.4
					c0.4-0.4,1.5-1.5,2.2-2.3c0.7-0.8,1.2-1.2,2.2-2.3c1-1.1,1.5-1.5,2.2-2.2c0.8-0.7,1.9-1.8,2.3-2.2c0.5-0.4,1.6-1.5,2.3-2.2
					c0.8-0.7,1.2-1.1,2.4-2.1c1.1-1,1.6-1.4,2.4-2.1c0.8-0.7,2-1.7,2.4-2.1c0.5-0.4,1.7-1.3,2.5-2c0.8-0.7,1.4-1.1,2.5-2
					c1.2-0.9,1.7-1.3,2.5-1.9c0.9-0.6,2.1-1.5,2.6-1.8c0.5-0.4,1.8-1.2,2.6-1.8c0.9-0.6,1.4-0.9,2.7-1.7c1.3-0.8,1.8-1.1,2.7-1.7
					c0.9-0.6,2.2-1.4,2.7-1.7c0.5-0.3,1.8-1.1,2.8-1.6s1.5-0.8,2.8-1.6s1.8-1,2.8-1.5c0.9-0.5,2.3-1.1,2.9-1.4
					c0.6-0.3,1.9-1,2.9-1.4c0.9-0.5,1.5-0.7,2.9-1.3c1.4-0.6,2-0.9,3-1.3c1-0.4,2.4-1,2.8-1.2c0.4-0.2-0.7-2.7-1-2.6
					c0,0-0.6,0.3-2,0.9c-1.4,0.6-2,0.9-2.9,1.3c-1,0.4-2.4,1-3,1.3c-0.6,0.3-2,1-2.9,1.4c-1,0.5-1.5,0.8-2.9,1.4
					c-1.3,0.7-1.9,1-2.9,1.5c-1,0.5-2.3,1.3-2.8,1.6c-0.6,0.3-1.9,1-2.8,1.6c-1,0.5-1.5,0.9-2.8,1.7c-1.3,0.8-1.8,1.1-2.7,1.7
					c-0.9,0.6-2.2,1.4-2.8,1.7c-0.6,0.4-1.8,1.2-2.7,1.8c-0.9,0.6-1.4,1-2.7,1.8c-1.2,0.9-1.8,1.2-2.7,1.9c-0.9,0.7-2.1,1.6-2.6,2
					c-0.5,0.4-1.7,1.3-2.6,2c-0.9,0.7-1.4,1.1-2.5,2.1c-1.2,1-1.6,1.4-2.5,2.1c-0.8,0.7-2,1.7-2.5,2.1c-0.5,0.4-1.6,1.5-2.4,2.2
					c-0.8,0.7-1.3,1.2-2.4,2.2c-1.1,1-1.6,1.5-2.4,2.3c-0.8,0.8-1.8,1.8-2.3,2.3c-0.5,0.5-1.5,1.5-2.3,2.3c-0.8,0.8-1.2,1.3-2.2,2.4
					c-1,1.1-1.4,1.6-2.2,2.4c-0.7,0.8-1.7,1.9-2.2,2.5c-0.4,0.5-1.4,1.7-2.1,2.6c-0.7,0.8-1.1,1.4-2,2.5c-1,1.2-1.4,1.7-2,2.6
					c-0.7,0.9-1.5,2.1-1.9,2.7c-0.4,0.5-1.3,1.8-1.9,2.7c-0.7,0.9-1,1.5-1.9,2.7c-0.8,1.3-1.2,1.8-1.8,2.7c-0.6,0.9-1.4,2.2-1.8,2.8
					c-0.4,0.6-1.1,1.9-1.7,2.8c-0.5,0.9-0.9,1.5-1.6,2.8c-0.8,1.3-1.1,1.9-1.6,2.9c-0.5,1-1.2,2.3-1.5,2.9c-0.3,0.6-1,1.9-1.5,2.9
					c-0.5,1-0.8,1.6-1.4,3c-0.6,1.4-0.9,2-1.4,3c-0.4,1-1.1,2.4-1.3,3c-0.3,0.6-0.8,2.1-1.2,3.1c-0.4,1-0.6,1.6-1.2,3
					c-0.6,1.4-0.8,2.1-1.2,3.1c-0.4,1-0.8,2.5-1.1,3.1c-0.2,0.6-0.7,2.1-0.7,2.8C200.7,807.9,203.1,808.4,203,808.7z"/>
			</g>
			<g>
				<path class="st4" d="M292.4,627.5c-0.1,0.5-0.1,0.9-0.2,1.4v0C292.3,628.5,292.4,628.1,292.4,627.5L292.4,627.5z M288.3,634.1
					l-0.9,0.3v0c0.2-0.1,0.4-0.2,0.6-0.2C288.1,634.2,288.2,634.1,288.3,634.1L288.3,634.1z M244.8,623.2L244.8,623.2
					c-1.9-0.4-3.8-0.9-4.9-1.1v0C241.6,622.6,243.3,622.9,244.8,623.2L244.8,623.2z M220.3,639.8c0,0.4,0.1,1,0.2,1.8v0L220.3,639.8
					L220.3,639.8z M276.9,664c0,1.2-0.1,2.4-0.1,3.7v0C276.9,667,276.9,665.9,276.9,664L276.9,664z M200.8,710.3
					c0.2,1.2,0.6,2.6,1.2,4.7c0.2,0.7,0.4,1.3,0.6,1.9v0C202.1,715,201.5,712.8,200.8,710.3L200.8,710.3z M198.3,774.3
					c0.1,0.3,0.1,0.7,0.3,1.3c0.2,0.6,0.4,1.3,0.6,2v0C198.9,776.5,198.6,775.4,198.3,774.3L198.3,774.3z M202.2,784L202.2,784
					c0.7,1.2,1.3,2.3,2.4,2.9v0C203.7,786.1,203,785.1,202.2,784L202.2,784z M285,611.5c2.8,1,5.1,2.4,6.9,4.1c1.8,1.8,3,4,3.4,6.6
					c0.4,2.6,0.2,5.3,0,6.3c-0.1,1-0.4,2-0.7,2.9c-0.3,0.9-0.8,1.7-1.3,2.4c-0.5,0.7-1,1.1-1.3,1.5c-0.3,0.4-1,0.8-1.9,1.2
					c-0.9,0.4-2,0.8-3.5,1.2c-1.4,0.4-3.1,0.9-3.1,0.9l0,0c0,0,0,0,0,0l0,0c0,0-0.1,0.1-0.2,0.3c-0.2,0.2-0.3,0.5-0.5,1
					c-0.2,0.4-0.4,1-0.9,2.3c-0.5,1.3-0.9,3.4-1.2,6.2c-0.3,2.8-0.5,6.3-0.6,10.6c-0.1,4.2-0.1,9.3-0.3,10.2c-0.2,1-0.4,1.8-0.7,2.6
					c-0.3,0.8-0.6,1.6-1,2.3c-0.4,0.7-0.8,1.4-1.3,1.9c-0.4,0.5-0.9,1-1.4,1.5c-0.5,0.4-1,0.8-1.6,1.2c-0.6,0.3-1.3,0.7-4.1,1.4
					c-2.7,0.7-5,1.4-6.9,2c-1.9,0.6-3.4,1.1-4.4,1.6c-1,0.4-1.7,0.9-2.2,1.1c-0.5,0.3-0.9,0.6-1.2,0.9c-0.3,0.4-0.6,0.8-0.9,1.2
					c-0.3,0.5-0.5,1.1-1,2.4c-0.5,1.4-0.9,2.7-1.2,4.2c-0.3,1.4-0.5,2.9-0.7,4.5c-0.1,1.5-0.2,3.2-0.2,3.9c0,0.7,0.1,1.8,0.3,3.4
					c0.2,1.6,0.6,3.7,1.1,6.2c0.5,2.5,1.2,5.5,1.3,6.2c0.1,0.7,0.1,1.4,0.1,2.1c0,0.7,0,1.5-0.1,2.4c-0.1,0.8-0.2,1.8-0.8,4.5
					c-0.6,2.7-1.3,5.2-2,7.7c-0.8,2.4-1.6,4.8-2.5,7c-0.9,2.2-1.9,4.3-2.9,6c-1,1.7-2,3.2-3,4.5c-1,1.4-2,2.6-3,3.7
					c-1,1.1-2,2-3,2.9c-1,0.9-2.2,1.9-3.6,2.9c-1.4,1-3,2.1-4.9,3.2c-1.8,1.1-3.6,2-8.3,7.1c-4.7,5.1-6.3,7-7.7,8.9
					c-1.4,1.9-2.5,3.6-3.4,5.3c-0.4,0.8-0.8,1.5-1.1,2.2v0c0.5,0.1,0.8,0.1,1,0c0.3-0.1,0.5-0.5,0.4-1.4c0-0.7,1.4-0.9,2.1-0.7
					c0.2,0.1,0.3,0.2,0.3,0.3c0,0,0,1.5-0.8,2.7c-0.8,1.2-2.3,1.6-4,1.2c0,0-0.1,0-0.1,0l0,0c-0.8,0.8-2.2-0.1-2.4,0.5
					c0-0.3,0-0.8,0.1-1.3l0,0c-1.1-0.6-2.2-1.3-2.9-2.4c-1.1-1.7-2-3.3-2.7-4.8s-1.3-3-1.8-4.5c-0.5-1.4-0.8-2.9-0.8-3.5
					c-0.1-0.6-0.1-1.2,0-1.9c0-0.6,0.1-1.2,0.2-1.8c0.1-0.6,0.3-1.3,1.4-4.7c1.1-3.4,2-6.4,2.8-8.9c0.8-2.5,1.4-4.6,1.8-6.2
					c0.4-1.6,0.7-2.8,0.9-3.9c0.2-1.1,0.4-2.1,0.6-3.2c0.2-1.1,0.3-2.2,0.3-3.2c0.1-1.1,0.1-2.2,0.1-4.2c0-2-0.3-4.4-0.8-7.2
					c-0.5-2.8-1.3-5.9-2.3-9.4c-1-3.5-2.3-7.5-2.6-9.4c-0.2-2-0.4-3.6-0.5-5c-0.1-1.4-0.2-2.5-0.2-3.4c0-0.9,0.1-1.5,0.2-2.7
					c0.2-1.2,0.5-2.5,1-3.9c0.5-1.4,1.2-2.9,2.1-4.6c0.9-1.6,1.9-3.4,3.1-5.1c1.2-1.7,2.5-3.4,3.9-5.2c1.4-1.7,2.9-3.4,4.5-5.1
					c1.6-1.7,3.3-3.4,3.6-3.9c0.4-0.5,0.7-1,1-1.6c0.3-0.5,0.5-1,0.7-1.5c0.2-0.5,0.4-0.9,0.9-3c0.6-2.1,0.9-4.5,0.9-7.5
					c0-2.9-0.2-6.3-0.7-10.1c-0.5-3.8-1.3-8.1-1.1-9c0.1-0.9,0.3-1.8,0.6-2.7c0.3-0.9,0.6-2,1-3.1c0.4-1.1,0.9-2.4,1.6-3.8
					c0.8-1.5,1.8-2.8,3-3.9c1.2-1.2,2.6-2.2,4.1-3c1.6-0.9,3.3-1.6,4.3-1.8c1-0.2,2-0.4,2.9-0.5c1-0.1,2-0.2,3-0.2
					c1,0,2.2,0.1,5.6,0.9c3.3,0.8,6.2,1.4,8.5,1.7c2.4,0.3,4.2,0.4,5.6,0.3c1.3-0.1,2.3-0.5,2.8-0.6c0.5-0.1,0.8-0.2,1.2-0.3
					c0.3-0.1,0.7-0.2,1-0.4c0.3-0.1,0.4-0.2,1.5-1.1c1.1-0.9,2.3-1.8,3.8-2.8c1.4-1,2.9-2,4.6-3.1c1.7-1.1,3.5-2.2,4-2.4
					c0.5-0.3,1-0.5,1.6-0.7c0.5-0.2,1.1-0.3,1.7-0.4c0.6-0.1,1.5-0.1,4.6,0.9C284.7,611.4,284.8,611.5,285,611.5z"/>
			</g>
			<g>
				<path class="st2" d="M275.9,629.4c-3.7,0.7-10.6,3.4-16.9,7.3c-6.3,3.8-12,8.8-17.2,14.7c-5.1,6-9.7,13-12.3,18.2
					c-2.6,5.1-3.6,7.5-4.5,9.7c-0.8,2.2-1.5,4.1-2,5.9c-0.5,1.8-0.8,3.4-0.9,4.5c-0.1,1.1-0.2,1.9-0.3,2.7c-0.1,0.8-0.1,1.5-0.1,2.2
					c0,0.7,0,1.4,0.1,3.3c0.1,1.9,0.3,4.5,0.5,6.8c0.2,2.2,0.3,3.9,0.3,5.2c0,1.3,0,2,0,3.1c-0.1,1.1-0.2,2.8-0.4,4.7
					c-0.2,1.9-0.4,4-0.7,6.2c-0.3,2.2-0.6,4.6-1.1,6.9s-0.8,4.1-1.3,6c-0.5,1.9-0.9,3.7-1.4,5.4c-0.5,1.7-0.9,3.4-1.5,5.3
					c-0.6,1.9-1.3,4.2-2.1,6.8c-0.8,2.6-1.8,5.5-2.8,8.7c-1.1,3.2-2.2,6.6-3,8.7c-0.7,2.1-1,2.9-1.3,3.9c-0.3,1-0.6,2.1-1,3.4
					c-0.4,1.3-0.8,2.8-1.2,4.1c-0.4,1.3-0.6,2.3-0.8,3.2c-0.2,0.9-0.4,1.9-0.5,2.8c-0.1,0.9-0.2,1.8-0.3,2.4
					c-0.1,0.6,2.2,0.8,2.2,0.4c0,0,0.1-0.8,0.2-1.6c0.1-0.8,0.2-1.7,0.4-2.6c0.2-0.9,0.4-1.8,0.6-2.8c0.2-0.9,0.7-2.6,1.1-4
					c0.4-1.4,0.8-2.7,1.1-3.7c0.3-1.1,0.6-1.9,0.8-2.6c0.2-0.7,1.5-4.3,2.6-7.7c1.1-3.4,2.2-6.4,3.1-9.2c0.9-2.8,1.7-5.3,2.4-7.6
					c0.7-2.2,1.2-3.9,1.7-5.6c0.5-1.7,1-3.5,1.4-5.3c0.5-1.8,0.9-3.7,1.4-5.7c0.5-2,0.9-4.5,1.2-6.9c0.4-2.4,0.7-4.6,0.9-6.6
					c0.2-2.1,0.4-3.9,0.5-5.7c0.1-1.7,0.2-2.2,0.2-3.3c0-1,0-2.5-0.2-4.4s-0.3-4.3-0.5-7.1c-0.2-2.8-0.2-3.4-0.2-4.1
					c0-0.7,0-1.3,0.1-2c0-0.7,0.1-1.4,0.2-2.2c0.1-0.7,0.3-2.1,0.6-3.6c0.3-1.5,0.9-3.3,1.6-5.2c0.7-2,1.6-4.1,2.6-6.5
					c1-2.3,5.1-9.9,9.7-16.4c4.6-6.5,9.7-11.9,15.4-16.3c5.7-4.4,11.9-7.8,15.1-9.3C276.4,631.3,272.4,630.4,275.9,629.4z"/>
			</g>
		</g>
		<g>
			<path d="M25.5,815.3l874.3,0v4.2l-874.3,0V815.3z"/>
		</g>
		<g>
			<g>
				<g>
					<path class="st5" d="M607.4,851.5L607.4,851.5l-21.3-8.1c-1-0.4-2-0.8-3-1.3v0c-50.2-24.4-85.1-61.8-104.5-112.1l0-0.1
						c-19.4-50.8-17.8-102.9,4.9-156.1c0.2-0.5,0.5-1.1,0.7-1.6v0c24.4-50.1,61.8-84.8,112.3-104.2c1.1-0.4,2.1-0.8,3.2-1.1v0
						c32.2-9,55.3-13.2,69.4-12.8l0,0c5.4,0.2,10.3,1,14.8,2.4l-9.8-1.6c18,0.5,35.9,3.4,53.8,8.8c0.3,0.1,0.6,0.2,1,0.3v0
						c54.2,18,94,50.8,119.5,98.5v0c25.5,47.7,30.7,99,15.5,153.9c-0.2,0.6-0.3,1.2-0.5,1.7v0c-18,54-50.8,93.8-98.6,119.2v0
						c-47.8,25.4-99.1,30.4-154.1,15.2c-19.2-5.3-30.4-25.1-25.1-44.3c5.3-19.2,25.1-30.4,44.3-25.1v0c36.5,10.1,70.3,7,101.1-9.4v0
						c30.8-16.4,52.2-42.5,64.1-78.3l-0.5,1.7c10.1-36.4,6.9-69.9-9.6-100.7v0c-16.5-30.8-42.7-52.2-78.7-64.1l1,0.3
						c-11.7-3.5-23.4-5.4-34.9-5.7c-3.3-0.1-6.6-0.6-9.8-1.6v0c1.8,0.6,3.2,0.8,4.4,0.9l0,0c-6.7-0.2-22.6,3.2-47.7,10.2l3.2-1.1
						c-32.8,12.6-57.2,35.4-73.3,68.4l0.7-1.6c-15.1,35.3-16.4,69.4-3.9,102.1l0-0.1c12.7,32.7,35.6,57.2,68.8,73.3l-3-1.3l21.3,8.1
						c18.6,7,27.9,27.8,20.9,46.4C646.8,849.2,626,858.5,607.4,851.5z"/>
				</g>
				<g>
					<path class="st5" d="M523.9,738.1L523.9,738.1l-226.2,73.4c-15.3,5-31.7-3.4-36.7-18.7c-5-15.3,3.4-31.7,18.7-36.7l0,0
						L506,682.8c15.3-5,31.7,3.4,36.7,18.7C547.6,716.8,539.2,733.2,523.9,738.1z"/>
				</g>
				<g>
					<path class="st5" d="M370.3,806.5L370.3,806.5L144,879.9c-26.1,8.5-54.2-5.8-62.7-32c-8.5-26.1,5.8-54.2,32-62.7l0,0
						l226.2-73.4c26.1-8.5,54.2,5.8,62.7,32C410.7,770,396.4,798,370.3,806.5z"/>
				</g>
				<g>
					<path class="st6" d="M470.6,735c-0.2,0-0.4,0-0.5,0.1l-0.3,0c-7.9,1.4-14.5,3-19.8,4.6c-4.5,1.1-11.4,4.1-20.6,9
						c-4.2,1.1-7.3,1.6-9.2,1.7c-0.8,0.1-1.7,0.1-2.5,0.1c-7.3,0-15.2-3.1-23.5-9.2c-8.8,15.5-14.1,24-15.9,25.8
						c-7.2,5.2-16.8,10.3-28.8,15.4c-28,6.5-54.8,13.8-80.4,22.2c-19.9,5.7-50.1,17.6-90.6,35.6c-2.5,1-7.5,2.1-14.8,3.3
						c-4.9,0.8-9.5,1.1-13.8,1.1c-29.8,0-45.4-18.2-46.8-54.6c-19.4,11.7-29,35.6-21.7,58c6.8,21,26.3,34.4,47.3,34.4
						c5.1,0,10.3-0.8,15.4-2.4l226.2-73.4c14.5-4.7,25.3-15.4,30.7-28.4l86.6-28.1c2.4,5.1,5,10,7.8,14.9
						c-0.4-7.2-1.5-13.2-3.3-18.1l-2.6-5.5C479.1,737.1,472.9,735,470.6,735z"/>
				</g>
			</g>
			<g>
				<path class="st7" d="M712.6,826.2c7.8-3.2,17.5-11.1,29-23.8c0.7,0.1,3.4-4.6,8.1-13.9c1-1.7,1.8-4,2.5-6.7c1.4-3.4,0-6.7-4-9.9
					c-0.3-0.3-0.8-0.5-1.3-0.7c-3.2-0.7-5-1.1-5.3-1.2c-3.3-1.4-5.3-2.2-6-2.2c-1-0.6-3.4,0-7.1,1.7c-0.9,0.9-1.8,2.9-2.7,6.2
					L712.6,826.2z"/>
			</g>
			<g>
				<path class="st7" d="M721.4,461.9l-2.7,4.5l-6.2,13.1l-4.9,13.9l-3.7,14.7l-2.5,15.5l-0.6,7.3c2,0.5,3.9,1,5.9,1.6
					c35.7,12,61.8,33.3,78.2,64c2.2,4.2,4.2,8.4,6,12.7c0.8-3.3,0.5-9.6-1.1-18.8c-6.4-18-9.5-27.8-9.2-29.6
					c-0.8-3.9-0.8-13,0.1-27.2c0.3-7.9,1.8-16,4.5-24.2l6.8-13.3c-18.3-13.6-39.3-24.4-63.1-32.3c-0.3-0.1-0.6-0.2-1-0.3
					C725.7,463,723.6,462.4,721.4,461.9L721.4,461.9z"/>
			</g>
			<g>
				<path class="st7" d="M653,455.2c-13.5,1.7-31.3,5.7-53.3,11.8c-1.1,0.3-2.2,0.7-3.2,1.1c-12.8,4.9-24.7,10.8-35.8,17.6
					c0.5,0.2,1.1,0.4,1.7,0.7c8.4,4,15.5,7.8,21.4,11.6c8.7,6.1,19.2,16.3,31.7,30.3c2.9,2.6,5.5,4.8,7.9,6.9v0c0,0,0,0,0,0
					c8,6.7,13.2,10.5,15.8,11.4c7.3,3.8,18.9,7.3,34.8,10.5c12.4,2.5,22.4,3.7,30,3.7c0.8,0,1.5,0,2.2,0c1.7-0.7,5.3-3.6,11.1-8.7
					l1.9-2.7c2.6-5.3,3.9-8.8,3.9-10.5c0.5-2.7,0.9-5.7,1-8.9c0.9-14-3.5-29-13.4-45l0,0c-0.6-1-1.3-2.1-2-3.1
					c-3.8-4.4-7.6-7.3-11.4-8.9l-7.7-3.5C671.8,462.6,659.6,457.8,653,455.2L653,455.2z M665.7,526.1
					C665.7,526.1,665.7,526.1,665.7,526.1L665.7,526.1c-1.9,0-4.3,0.3-7.3,0.8l0,0C661.4,526.4,663.9,526.2,665.7,526.1z"/>
			</g>
			<g>
				<path class="st7" d="M706.3,532.4l0.8,0.2L706.3,532.4L706.3,532.4z"/>
			</g>
		</g>
		<g>
			<g>
				<path class="st8" d="M627.6,522.5c0,0,4.1,6.1,6.7,8.8c5.6,5.7,11.8,10.8,17.9,15.9c20.7,17.2,40.7,35.1,60.3,53.5
					c8.7,8.1,17.3,16.4,26.9,23.3c3.2,2.4,8.2,6.1,12,6.1c1.2,0,2.4-0.4,3.2-1.4c4.6-5.2,3.7-13.6,3.4-20.5
					c-0.4-10.4-2.3-20.8-5.6-30.7c-8.1-24.5-35.4-39.6-59.1-49.9c-15.6-6.8-31.6-14.8-48.7-15.8c-0.9-0.1-1.9-0.1-2.9-0.1
					c-4.4,0-8.9,0.7-12.2,3.3C627.6,516.6,627.6,522.5,627.6,522.5z"/>
			</g>
			<g>
				<path class="st9" d="M667.2,764.7c3.9-0.2,7.7-0.4,11.5-0.4c12.8,0,24.1,2.3,28.6,15c5.5,15.7,0.5,47.4,5.2,47.4
					c0.2,0,0.4,0,0.6-0.1c5.7-2.6,22.9-41.3,25.4-60.1c2-14.3-4.5-17.1-13-17.1c-2.7,0-5.5,0.3-8.4,0.5
					c-16.7-10.1-33.3-20.1-42.5-20.1c-1,0-1.9,0.1-2.7,0.3C663.6,732.6,665.4,748.7,667.2,764.7z"/>
			</g>
			<g>
				<path class="st10" d="M708.9,786.2c0.1,0.8,0.2,1.6,0.3,2.5c0.4,3.5,0.7,7,0.8,10.7c0,12.9,0.2,20.6,0.5,23.2
					c0.2,2.1,0.7,3.4,1.3,3.9l1.2,0.1c1.8-0.5,5.1-5.6,9.9-15.3c0.4-0.9,0.9-1.8,1.3-2.8c3.5-7.4,6.8-15.8,10-25.4
					c2.6-8.5,4-14.1,4.1-16.6c0.8-6.1,0.2-10.4-1.7-12.9l-1.6-1.7c-0.9-0.7-1.9-1.3-3.1-1.6c-1.3,1.9-2.6,4.4-4.1,7.3
					c-0.2,0.4-0.5,0.9-0.7,1.4c-0.8,1.7-1.6,3.8-2.4,6.1c-2.7,8.9-4.3,13.7-4.6,14.5c0,0,0,0,0,0c-0.5,1.5-1.1,2.8-1.6,4
					c-0.8,1.8-1.7,3.2-2.5,4.4c-0.9,1.1-1.9,1.5-3.1,1.1C712.3,789,711,788,708.9,786.2L708.9,786.2z"/>
			</g>
			<g>
				<path class="st11" d="M700.4,717.1c-5,21.1-9.9,42.2-18.5,56.2c-8.6,14-20.8,21.1-33,28.1c-48.1-47.1-96.2-94.2-98.2-148.5
					c-2-54.3,42.2-115.8,86-137.4c13.2-6.5,26.4-9.4,37.9-9.4c26.7,0,44.4,15.5,32.8,37.4c-16.7,31.4-93.5,75.9-104.7,107
					C591.5,681.7,645.9,699.4,700.4,717.1z"/>
			</g>
			<g>
				<path class="st6" d="M695.6,737.4c-0.9,3.4-1.8,6.5-2.7,9.5c2.5,5.3,4.1,8,5.3,8c0.1,0,0.2,0,0.3,0c6.8,4.3,17.1,6.6,30.9,6.9
					c2.7,0.9,4.9,2.6,6.1,5.2c1.5,3.1-1.9,8-3.3,11.5c-9.6,11.7-11.1,16.8-11.4,18.7c0,0,0,0-0.1,0c-0.7,0-4.1,9.3-9.6,28.2
					c0.2,0.5,0.5,0.9,0.7,1.1l1.2,0.1c1.8-0.5,5.1-5.6,9.9-15.3c3.9-8,7.7-17.4,11.4-28.2c2.6-8.5,4-14.1,4.1-16.6
					c0.8-6.1,0.2-10.4-1.7-12.9l-1.6-1.7c-1.2-0.9-2.6-1.6-4.2-1.9c-1.1-0.4-2.9-0.6-5.2-0.6c-2.3,0-5.2,0.2-8.7,0.5
					C708.4,744.6,701.2,740.4,695.6,737.4L695.6,737.4z"/>
			</g>
			<g>
				<path class="st6" d="M673.6,505.9c-4.6,0-9.4,0.6-14.1,1.8c-15.5,3.2-30.4,10.5-44.5,21.8c-11.4,9.2-21.4,19.4-30.1,30.6
					c4.2-2.2,8.2-3.2,12.1-3.2c0.2,0,0.3,0,0.5,0c13.1,0,21.1,4.4,23.8,14.3c1.1,4,0.2,8.3-2.2,12.8c-7,13-16.8,26.7-28,42.1
					c-3.8,5.2-4.8,12.6-7.2,20.3c-4.3,13.8-1.4,30,13.1,47.7c9.8,11.9,22.5,19.7,36.2,25.2l47.6,10.4c1.4,0.7,3,1.5,4.4,2.8
					c0.6,0.2,1.2,0.5,1.8,0.7c2.3,1,5.2,2.4,8.7,4.2c1.2-4.7,2.4-9.7,3.6-15l1.2-5.3c-28.6-8.6-53.1-18-73.5-28.3
					c-6.4-3.5-11.7-7.2-16-11.2l-5.4-6.1l-3.3-6.5l-1-7c0.7-9.8,7.4-20.7,20.2-32.9c5.7-6,27.1-24.7,64.2-56
					c6.6-6.1,12.1-11.9,16.5-17.5c4.6-6.3,7.1-10.8,7.7-13.4c1.1-3.5,1.5-6.7,1.2-9.8c-0.7-6.1-3.7-11.1-9.1-14.9
					C692.7,508.4,683.3,505.9,673.6,505.9z"/>
			</g>
			<g>
				<path class="st9" d="M629.8,807c8.1,15.2,16.1,30.3,3.8,42.4c-12.3,12.1-45.1,21.2-40.3,25.3c2,1.7,10.3,2.5,20.6,2.5
					c14.9,0,33.9-1.7,44.6-5c18.1-5.7,12-16,5.9-26.4c2.2-21.4,4.5-42.8-1.3-49.3c-1.4-1.6-3.3-2.3-5.6-2.3
					C650.6,794.3,640.2,800.6,629.8,807z"/>
			</g>
			<g>
				<path class="st10" d="M628.2,853.9c-0.7,0.5-1.4,0.9-2.1,1.4c-3,1.8-6.1,3.6-9.4,5.2c-11.6,5.5-18.6,8.9-20.8,10.3
					c-1.8,1.1-2.8,2-3,2.8l0.5,1.1c1.2,1.4,7.3,2.2,18.1,2.5c1,0,2,0,3.1,0c8.2,0,17.2-0.6,27.3-1.7c8.8-1.3,14.4-2.4,16.8-3.3
					c5.9-1.9,9.5-4.3,10.9-7.1l0.8-2.1c0.3-1.1,0.3-2.3,0.2-3.5c-2.3-0.3-5.1-0.5-8.4-0.6c-0.5,0-1,0-1.6,0c-1.9,0-4.1,0.1-6.5,0.4
					c-9.2,1.3-14.3,2-15.1,2c0,0,0,0,0,0c-1.6,0.1-3,0.2-4.3,0.2c-1.9,0-3.6-0.1-5-0.4c-1.4-0.3-2.2-1.1-2.3-2.4
					C627.1,858.1,627.4,856.5,628.2,853.9L628.2,853.9z"/>
			</g>
			<g>
				<path class="st12" d="M700.5,796.1c-18.5,11.2-37.1,22.4-53.1,26.1c-4.6,1.1-9,1.5-13.2,1.5c-10.6,0-20.2-2.7-29.9-5.5
					c0.5-56.1,1-112.3,16.5-168.8c15.5-56.5,46-113.4,75.4-125.9c4.5-1.9,9-2.8,13.3-2.8c23.8,0,42.6,26.7,33.5,51.5
					c-10.8,29.4-60.7,56.2-74.3,93.1C655.1,702.3,677.8,749.2,700.5,796.1z"/>
			</g>
			<g>
				<path class="st6" d="M666.9,815c-4.8,2.2-9.3,4-13.5,5.4c-0.6,7.1-1.2,18.7-1.7,34.7c-2.7,6-9.2,9-19.3,9
					c-3.6,0-7.8-0.4-12.4-1.2c-1.4-0.5-2.6-1.3-3.4-2.4c-11.6,5.5-18.5,8.9-20.7,10.2c-1.8,1.1-2.8,2-3,2.8l0.5,1.1
					c1.2,1.4,7.3,2.2,18.1,2.5c1,0,2,0,3.1,0c8.2,0,17.2-0.6,27.3-1.7c8.8-1.3,14.4-2.4,16.8-3.3c5.9-1.9,9.5-4.3,10.9-7.1l0.8-2.1
					c0.3-1.5,0.3-3,0-4.6c-0.3-2.3-2.2-6.6-5.9-12.6C666,832.2,666.8,821.9,666.9,815L666.9,815z"/>
			</g>
			<g>
				<path class="st6" d="M709.1,520.8c-6.8,0-13.6,2.3-20.3,6.8c-4.9,3.3-9.8,7.6-14.6,13c-2.6,1.7-9.6,11.5-20.9,29.4
					c-0.1,0.3-0.3,0.5-0.4,0.8c5.9-1.1,11.3-1.6,16.1-1.6c20.1,0,31.8,9.1,35,27.3l-38.2,35.7c-7.4,10.4-12.8,23.1-16.4,38
					c-1.2,5.6-1.6,12.5-1.2,20.7c0.4,8.2,1.5,17.6,3.4,28.4c-0.4,0.1-0.5,0.8-0.2,2.1c2.4,8.3,7.5,20.5,15.1,36.7
					c1.3,3.6,2.2,9,2.8,16.2c-0.1,3.7-0.7,6.6-1.7,8.7c-2.4,4.5-4.5,8.6-6.3,12.1c0.8,0.4,1.4,0.9,2,1.5c1,1.1,1.7,2.6,2.3,4.4
					c0.5,0.6,0.9,4,1.4,10.4c0,1.1,0.1,2.3,0,3.7c8.7-4,18.4-9.4,29-16.1l4.6-2.8c-12.1-23.7-21.9-46.7-29.5-69.1
					c-2.3-7.4-4-14.6-5.1-21.7l-1.1-10.5c-0.4-6.9,0-13.5,1.3-20c2.9-12.8,9-24.6,18.5-35.4c7-8.4,19.5-21.1,37.4-38.1
					c4.8-4.8,9-9.7,12.7-14.5c7.5-10.4,11.1-19.4,10.7-27l-0.4-6.1c-0.6-4-1.7-7.8-3.4-11.4c-3.5-7.3-8.7-13-15.5-17
					C720.4,522.3,714.7,520.8,709.1,520.8z"/>
			</g>
			<g>
				<path class="st13" d="M559.6,471.6c-4.4,1.3-8.8,2.6-12.8,2.6c-2.7,0-5.3-0.6-7.5-2.2c-5.5-4-9.1-14.1-7.4-17.6
					c0.6-1.2,1.8-1.6,3.3-1.6c2.9,0,7,1.5,10.1,2.1c1,0.2,1.9,0.3,2.7,0.3c2.9,0,4.3-1.2,4-2.7c-0.4-1.9-3.5-4.5-3.7-6.2
					c-0.1-1.1,1.1-1.9,2.7-1.9c0.8,0,1.7,0.2,2.6,0.6c2.6,1.3,4.9,4.6,7.3,8c19.3,3.2,38.5,6.3,55.3,6.3c14.2,0,26.5-2.3,35.5-8.7
					c19.6-14,23.3-47.9,37.2-68.4c7.7-11.4,18.6-18.7,27.9-18.7c7.4,0,13.8,4.7,16.8,15.6c6.6,24.6-4.2,81.1-36.1,101.8
					c-11.2,7.3-25,10.1-40.5,10.1C628.4,491.2,594,481.4,559.6,471.6z"/>
			</g>
			<g>
				<path class="st14" d="M624.2,522.4c0,0,4.1,5.4,7.1,7c7.3,4,15.6,5.8,23.7,7.8c21.8,5.4,46.6,6.8,63.9,21.1
					c14.1,11.7,19.6,31.3,25.8,48.6c1.9,5.3,3.7,10.6,5.7,15.9c1.5,3.9,2.2,11,6.2,11c0.1,0,0.2,0,0.2,0c4.9-0.3,3.5-9.3,3.8-14.2
					c0.4-7.5,0.3-15,0.2-22.5c-0.5-30.1-2.6-60.1-3.1-90.2c-0.5-27,3-54,8.3-80.5c2.5-12.4,5.4-24.9,6.1-37.5
					c0.5-7.8,0-17.5-5.9-22.7c-6-5.3-14.2-7.2-22.8-7.2c-7.9,0-16.1,1.6-23.2,3.6c-9.5,2.6-20.9,7.2-24.7,16.3
					c-11.4,27.5,10.4,65.7-8.2,89c-11.3,14.1-28.5,22.4-43.6,32.5c-6.1,4.1-12.6,8-17,13.8C624.9,516.4,624.2,522.4,624.2,522.4z"/>
			</g>
			<g>
				<path class="st15" d="M732.4,445.4L700.7,488l0.3-14.3c-0.1-2.2-0.5-3.3-1.2-3.3c-0.2,0-0.4,0.1-0.6,0.3
					c-6.2,9-10.2,15.2-12,18.5c-3,5-6.2,10.6-9.7,16.9c-5.2,9.4-11,20.3-17.2,32.5c0.8,0.2,1.6,0.4,2.5,0.6l37.9-51l0,0
					c-0.3,14.6-0.4,25.5-0.3,32.5c0,1.3,0.1,2.6,0.2,3.8c0.1,0.4,0.2,0.6,0.3,0.6c0.1,0,0.1,0,0.2-0.1c6.4-20.7,12.5-37.8,18.2-51.5
					c0.3-0.8,0.6-1.1,0.9-1.1c0.1,0,0.3,0.1,0.4,0.3c0.4,0.2,0.8,2,1.2,5.5c0.4-0.2,1-1.3,1.8-3.3L732.4,445.4z"/>
			</g>
			<g>
				<path class="st15" d="M760.5,362c-1.5,1.5-3,4.3-4.3,8.2c-0.3,1.8-0.1,3.5,0.7,4.9l-2.9,12.9c-0.5-1.7-1-2.5-1.3-2.5
					c0,0-0.1,0-0.1,0c-3.4,2.4-5.4,3.7-5.9,3.7c0,0-0.1,0-0.1,0c-0.2-0.5-1.2-1.7-2.9-3.6c-1.1-1-1.7-1.5-2-1.5c0,0-0.1,0-0.1,0
					l-8,2.2c0,0-0.1,0.1-0.1,0.1c-0.3,0-1-2-2.1-5.9c-0.3-0.4-0.5-0.5-0.7-0.5c0,0,0,0-0.1,0c0-0.1-0.1-0.1-0.1-0.1
					c-0.3,0-1,1.1-2.2,3.4c-0.8,1.4-1.4,3-2,4.7c-0.3,1.2-0.3,1.8,0,1.8c0,0,0,0,0,0c0.1,0.1,0.3,0.1,0.5,0.1c0.7,0,2-0.3,3.8-1
					c0,0,0,0,0,0c0.4,0,0.8,0.4,1,1.2c-0.8,6.1-1.2,9.9-1.1,11.5c0,1.1,1.1,3.2,3.3,6.2c0.4,1.1,0.7,2.1,0.8,3l0.1,24.5
					c0.2,0.6,0.7,0.8,1.5,0.8c0.9,0,2.1-0.3,3.7-0.9l0,0l-5.1,6.8l0.6-4.6c0-0.9-0.1-1.4-0.4-1.4l-2.7,9.3l2.4-3.2l0,0
					c-1.6,10.9-2.4,17-2.3,18.2l0.3,1.9c0.1,0.4,0.2,0.7,0.3,1c1.5,1.2,2.3,2.2,2.4,3.2l1,19.4c2.8-20.9,4.5-34.8,5.1-41.8
					c0.2-2.3,0.3-3.9,0.2-4.7c-0.1-0.4-0.2-0.7-0.2-0.7c0,0,0,0,0,0c0-0.3-0.1-0.9-0.2-1.9c-0.2-1.2-0.5-1.8-1-1.8
					c-0.1,0-0.3,0-0.4,0.1l30.2-40.6c-0.5-14.4-0.9-23.1-1.3-26C766.6,366,763.9,363.8,760.5,362L760.5,362z"/>
			</g>
			<g>
				<path class="st15" d="M661.1,507.6L661.1,507.6l-3.9,3.8c-0.7,0.6-1.2,1-1.6,1.2c-1.6,1.8-2.4,2.7-2.7,2.9c-1.6,1-2.5,1.7-2.8,2
					c-2.7,3.2-4.3,4.9-4.7,5.3c-0.1,0.1-0.3,0.2-0.4,0.2c-0.1,0-0.3-0.1-0.3-0.3c-0.1-0.4-0.1-1.2,0.1-2.4c-0.1-0.1-0.2-0.2-0.3-0.2
					c-0.1,0-0.3,0.1-0.4,0.3c-0.4,0.5-1.5,2.1-3.1,4.9c-0.5,0.9-1.8,3.2-3.9,7c0.6,0.3,1.5,0.6,2.5,0.9l21-23.3
					c0.3-1.1,0.5-1.7,0.5-1.8C661.3,507.7,661.2,507.6,661.1,507.6z"/>
			</g>
			<g>
				<path class="st15" d="M721.3,425.7L721.3,425.7c-0.2,0-0.3,0.2-0.4,0.4l-3.7,11.9c-0.2,0.9-0.6,2.6-1,5
					c-0.2,1.4-0.4,2.9-0.6,4.4l-2.7-18.3l-1,4.5c-0.5,4.2-1.3,8.4-2.1,12.8l-2.4,8.7c0,0.2,0,0.3,0,0.3c0.1,0,0.2-0.2,0.5-0.7l0,0
					c0,0.1-0.1,1-0.3,2.7c0,0.1,0.1,0.1,0.2,0.1c0,0,0,0,0,0c0.1,0,0.3-0.1,0.6-0.3c0.6-0.8,1.8-1.9,3.4-3.1c1-0.7,1.9-1.2,2.9-1.5
					c0.4-0.3,0.8-0.8,1.3-1.3c0.8-0.9,1.3-1.7,1.7-2.2l4.4-11.5c0.5-1.5,0.8-2.7,0.9-3.6c0-0.2,0.1-0.6,0-1.3l-0.6-1.7
					c-0.2-1.8-0.4-3.1-0.5-3.9C721.8,426.2,721.5,425.7,721.3,425.7z"/>
			</g>
			<g>
				<path class="st15" d="M712.1,416.5l-1,0.2l1.8,12.4l0.5-2.4c0.2-1.1,0.2-1.9,0.2-2.4c0-0.3-0.1-0.7-0.2-1
					c-0.3-0.4-0.6-0.8-0.8-1.1c-0.1-0.2-0.2-0.3-0.2-0.4c-0.1-0.1-0.1-0.3-0.1-0.4l0-0.2l0,0c-0.1-0.2,0-1.4,0.1-3.6
					c0-0.3-0.1-0.6-0.1-0.9C712.2,416.7,712.2,416.6,712.1,416.5z"/>
			</g>
			<g>
				<path class="st15" d="M703.9,367.8c-0.5,0.4-0.9,0.8-1.4,1.2c0.1,10.7,0.2,16.9,0.2,18.5c0.6,15.4,0.9,23.4,1,24l0.1,0.3
					c0,0,0-0.1,0-0.1c0.1,0.3,0.2,0.6,0.3,0.9c0.3,0.4,0.5,0.6,0.7,0.6l3-0.8c0.2,0.3,0.3,1.7,0.2,4.4c0,0.2,0.2,0.4,0.4,0.6
					l2.5-0.5L703.9,367.8L703.9,367.8z"/>
			</g>
			<g>
				<path class="st15" d="M736.2,539.5L736.2,539.5c-0.4,0.3-0.8,1.5-1.1,3.7l-1.6,10.6c0,0.5,0,0.7,0.1,0.7c0,0,0,0,0,0
					c0,0,0.1-0.1,0.3-0.4l0,0l-0.4,1.7c-0.5,1.9-0.8,3.3-1.1,4.2l-3.3,10c2.2,3.2,4,6.7,5.6,10.4c0.5,1,1.3,2.7,2.3,5.2l4.1-14.5
					c0.8-3.2,1.5-6.3,2.1-9.2c0.4-1.8,0.8-4.5,1.2-8.3c0.5-1.6,0.7-2.6,0.7-2.9c0.2-2.5,0.2-3.8,0.2-4.2c-0.4-3.1-0.6-5.1-0.8-6
					c-0.1-0.6-0.2-0.8-0.3-0.8c0,0-0.1,0-0.1,0.1c-0.2,0.1-0.3,0.4-0.5,1.1l-1.4,8.3c-0.1,0-0.1,0.1-0.2,0.1c-0.1,0-0.1-0.1-0.2-0.2
					c-0.1-2.2-0.2-3.5-0.4-3.7l-0.1,0l-1.2,1.8c-0.6-2.1-1.2-3.1-1.8-3.1c-0.1,0-0.1,0-0.2,0c-0.2,0.1-0.5,0.5-0.8,1.2
					c-1.5,4.1-2.7,7-3.5,8.8c1.3-6.9,2-10.8,2.1-11.7C736.3,540.5,736.3,539.5,736.2,539.5L736.2,539.5z"/>
			</g>
			<g>
				<path class="st15" d="M724.6,548.6c-0.1,0-0.1,0-0.2,0.1c-0.6,2.6-1.3,6.9-2.2,12.8c1.5,1.5,2.9,3.1,4.2,4.8
					c-0.5-9.6-0.9-15-1.1-16.1C725.2,549.1,724.9,548.6,724.6,548.6z"/>
			</g>
			<g>
				<path class="st15" d="M709.7,529.9c0,0-0.1,0.1-0.2,0.2c-0.3,1.5-0.5,2.4-0.6,2.6l-2.4,5.1c0.1-1.7-0.1-2.9-0.7-3.5l-5.3,14.1
					c0.3,0.1,0.6,0.2,0.9,0.3l5.1-10.8l0,0c-0.1,5.4-0.2,9.7-0.3,12.8c0.8,0.3,1.5,0.7,2.3,1c0-0.4,0.1-0.7,0.1-0.9
					c0.6-4,1-7.1,1.3-9.1c0.1-1.3,0.1-2.3,0.1-3c-0.3-1-0.5-1.7-0.5-2c0-0.6,0.1-1.9,0.4-3.9c0-0.1-0.1-0.2-0.1-0.2
					c0,0-0.1,0-0.2,0.1c-0.3,1.2-0.5,1.8-0.6,1.8c0,0-0.1-0.1-0.1-0.2c0.4-1.9,0.7-3.2,0.8-3.8C709.9,530.2,709.9,530,709.7,529.9z"
					/>
			</g>
			<g>
				<path class="st15" d="M759.7,561.1l-0.5,1.2c-0.2,2.4-0.4,3.9-0.7,4.4c-0.1,0.3-0.4,0.8-1,1.6l-1.6,4.6
					c-0.1,0.2-0.3,0.4-0.4,0.4c-0.1,0-0.1,0-0.2-0.1c-0.5-1.9-0.8-2.8-1-2.8c0,0-0.1,0-0.1,0c-0.2,0-0.5,0.2-0.9,0.7
					c-0.4,0.5-1,1.4-1.8,2.9c-1.4,2.9-2.6,5.5-3.5,7.8c-0.2,0.8-0.2,2.2,0,4.3c0,1.1,0.6,4.7,1.6,10.7c0.1,0.8,0.9,3.1,2.4,7
					c0.2,0.7,0.2,1.9,0.1,3.6c0.1,0.1,0.2,0.1,0.2,0.1c0.1,0,0.2-0.1,0.3-0.2c1-1.7,1.6-2.5,1.8-2.5c0,0,0,0,0.1,0
					c0.1,0.3-0.1,1.3-0.6,3c2.9-5.1,5.2-9.2,6.9-12.3C760.7,588.1,760.3,576.7,759.7,561.1L759.7,561.1z"/>
			</g>
			<g>
				<path class="st15" d="M670.5,482.7l-27,17.7l-0.3,1.8c-0.1,0.9,0.2,1.3,0.8,1.3c0.1,0,0.1,0,0.2,0c0.3-0.1,0.9-0.4,1.8-1
					l9.2-6.7c0.9-0.7,1.6-1.1,2.1-1.3c0.2-0.1,0.4-0.2,0.6-0.2c0.1,0,0.3,0,0.4,0.1c0.3,0.2,0.5,0.6,0.6,1.3
					c0.1,0.1,0.2,0.1,0.4,0.2c0,0,0,0,0,0c0.2,0,0.4-0.1,0.8-0.3c1.9-1.3,3-2,3.5-2.1c0.1,0,0.1,0,0.2,0c0.5,0,0.9,0.5,1.1,1.6
					c0,0,0.1,0,0.1,0c0.2,0,0.4-0.2,0.8-0.6c0.5-0.8,2-4.6,4.7-11.5C670.5,482.9,670.5,482.8,670.5,482.7L670.5,482.7z"/>
			</g>
			<g>
				<path class="st6" d="M773.4,380.4l-2.5,0.4c-0.1,0-0.2-0.1-0.3-0.1c-1.4,0-4.9,2.4-10.5,7.3c-2.5,2.6-5.1,5.8-7.7,9.6
					c-10.3,16.2-16.3,28.8-17.9,37.9c-1.8,6.1-2.7,14.9-2.6,26.4c0.5,10,2.4,29.1,5.7,57.3c-0.1,5.1-2.9,10.6-8.3,16.4
					c-2.4,2.2-5.5,3.3-9.4,3.3c-1.5,0-3-0.2-4.7-0.5l-47.4-19.7c-5.7-1.8-11.8-2.7-18.3-2.7c-2.6,0-5.2,0.1-7.9,0.4
					c-7.3,1.4-13.1,3.4-17.3,6c0,0.1,0,0.1,0,0.2l0.3,0.4c3.8,5.1,8,8.1,12.4,9.2c5,2.3,24.1,6.9,57.2,13.9c2.3,0.8,4.5,1.5,6.5,2.3
					c0.3,0.1,0.6,0.2,0.9,0.3c8.4,3.3,14.2,6.5,17.4,9.7c1.1,1,2.2,2,3.3,3.1c1.5,1.5,2.9,3.1,4.2,4.8c3.4,4.3,6.1,9,8.4,14.3
					c1.5,2.8,4.8,11.6,9.9,26.4c0.6,1.2,1.8,6.9,3.6,16.8c0.4,1.9,1,3.6,1.7,5.1c1.9,3.3,4,5,6.1,5c0.9,0,1.8-0.3,2.8-0.9
					c1-1,1.5-2.6,1.7-4.6c0.4-13.8,0.6-21.7,0.5-23.8c0.4,0-0.6-30.1-3.1-90.2c-0.3-9.8-0.3-19,0.2-27.8c0.7-13.5,2.2-26.9,4.4-40.3
					l3.6-19.9c4.5-17.7,6.9-28.5,7.2-32.5c0.5-3.7,0.7-7.2,0.5-10.6L773.4,380.4z"/>
			</g>
			<g>
				<g>
					<path class="st16" d="M627.8,404.2L627.8,404.2c-1.3,3.6-1.5,9.9-0.5,19c1,8,2.5,13.2,4.4,15.5c2.4,2.9,6.3,4.4,11.8,4.5
						c6.5-0.3,10.2-1.8,11.1-4.7c1.3-1.5,1.3-7,0-16.7c-1.5-8.7-3.2-14.2-5.2-16.7c-2.9-3.3-6.6-5-11.2-5.2
						C632.4,400,629,401.4,627.8,404.2z"/>
				</g>
				<g>
					<path class="st0" d="M630.6,407.2L630.6,407.2c-0.2,1.2-0.2,3.4,0,6.5c0.3,3.2,0.7,5.1,1,5.6c0.4,0.9,1.3,1.6,2.7,1.9
						c1.1,0,1.7-0.5,1.9-1.6c0.2-1.1,0-3.1-0.4-6.3c-0.2-1.4-0.4-2.9-0.8-4.6c-0.1-0.6-0.3-1.1-0.5-1.6c-0.3-0.9-1.1-1.4-2.4-1.5
						C631.4,405.7,630.8,406.3,630.6,407.2z"/>
				</g>
				<g>
					<path class="st7" d="M644.9,401.7c0,0.7,0.1,1.5,0.3,2.3c0.2,0.9,1,3.6,2.6,8.1c0.2,0.8,0.4,1.5,0.5,2.3
						c0.3,1.6,0.3,3.2,0.3,4.8c-0.5,7.1-2,12.8-4.5,17.3c-1,1.8-2.4,2.8-4,2.8c-0.4,0-0.7,0-1.1-0.1c-0.8,0-2.4-0.6-4.6-1.8
						c-1.3-0.6-2.8-1.4-4.6-2.4l0,0c0.6,1.6,1.2,2.9,1.9,3.7c2.4,2.9,6.3,4.4,11.8,4.5c6.5-0.3,10.2-1.8,11.1-4.7
						c1.3-1.5,1.3-7,0-16.7c-1.5-8.7-3.2-14.2-5.2-16.7C648.1,403.7,646.6,402.5,644.9,401.7L644.9,401.7z"/>
				</g>
			</g>
			<g>
				<path class="st9" d="M648.7,442.7c-7.4-2.3-14.7-4.6-17.1-11c-2.3-6.4,0.4-16.8,3.7-18.7c0.4-0.2,0.9-0.4,1.3-0.4
					c3.1,0,6.6,5.3,9.5,8.3c2,2,3.9,2.9,5.1,2.9c0.9,0,1.5-0.4,1.8-1.1c0.8-1.8-0.4-5.7,0.4-7.2c0.3-0.5,0.8-0.7,1.3-0.7
					c1.2,0,2.8,1,3.8,2.6c1.5,2.5,1.5,6.6,1.6,10.7c29.7,25.3,59.4,50.6,72.1,50.6c1.9,0,3.4-0.6,4.5-1.8c8.3-9.4-9.3-57.4-2.3-85.9
					c3.8-15.2,14.6-24.9,25.4-24.9c9.4,0,18.9,7.3,23.9,24.6c10.6,37.2,0,120.6-26,136.9c-3.4,2.1-7.1,3.1-11,3.1
					C721,530.8,684.8,486.7,648.7,442.7z"/>
			</g>
			<g>
				<path class="st9" d="M721.5,341c1.8,3.2,3.5,6.4,2.8,9.8s-4,7.1-7.3,10.7c0.3,9.4,0.7,18.8,4.6,18.8c0.1,0,0.2,0,0.4,0
					c4.3-0.6,12.5-11.4,20.7-22.3c-2.8-4.8-5.5-9.5-4.1-19.1c1.4-9.5,6.8-23.9,2.9-31.5c-2.1-4-6.7-6.1-11.6-6.1
					c-4.5,0-9.3,1.8-12.5,5.6c-6.8,8-7.1,24.9-5.3,32.1c0.9,3.5,2.2,4.6,3.8,4.6C717.5,343.7,719.5,342.4,721.5,341z"/>
			</g>
			<g>
				<path class="st6" d="M726.9,333.6c-0.1,0-0.2,0.2-0.5,0.5c-0.6,1.1-1.4,2.4-2.4,3.9l-2.5,3.3l0.3,0.5c0.8,1.3,1.3,2.5,1.8,3.6
					c0.4-0.8,1-2.1,1.8-4c0.5-1.2,0.9-2.1,1-2.7c0.3-0.9,0.5-2.1,0.6-3.6c0-0.7,0-1.1,0-1.2C727.1,333.7,727,333.6,726.9,333.6z"/>
			</g>
			<g>
				<path d="M729.8,291.5L729.8,291.5c0.3,0.2,0.5,0.4,0.7,0.6c0,0,0.1,0.1,0.2,0.3c0.1,0.1,0.2,0.2,0.2,0.3c0,0.1,0.1,0.2,0.1,0.2
					c0,0,0,0.1,0,0.1c0,0,0,0.1,0,0.1c0,0,0,0-0.1,0c0,0,0,0-0.1,0c-0.1,0-0.2-0.1-0.3-0.2c-0.3-0.2-0.5-0.4-0.6-0.6
					c-0.1-0.1-0.1-0.1-0.1-0.2c0-0.1-0.1-0.1-0.1-0.2c0-0.1,0-0.1-0.1-0.2C729.8,291.6,729.8,291.6,729.8,291.5L729.8,291.5z
					 M711.3,293L711.3,293L711.3,293c0,0,0.1,0,0.1,0.1c0,0.1,0.1,0.3,0.1,0.4c0,0.2,0,0.4,0,0.5c0,0.2,0,0.3,0,0.3
					c0,0.1,0,0.1-0.1,0.1c0,0-0.1,0.1-0.1,0.1c-0.1,0-0.2,0.1-0.3,0.1c0,0,0,0-0.1,0c-0.2,0-0.4-0.1-0.5-0.2
					c-0.1-0.1-0.1-0.1-0.2-0.3c0-0.1,0-0.1-0.1-0.2c0-0.1,0-0.2,0-0.2l0,0c0.2-0.2,0.4-0.3,0.6-0.4C711,293.1,711.2,293,711.3,293z
					 M762.3,309.8C762.3,309.8,762.3,309.8,762.3,309.8l0.2,0c0.3,0,0.6,0.1,0.9,0.2c0.6,0.2,0.9,0.4,1,0.5c0.3,0.3,0.3,0.7,0.1,1.2
					c-0.1,0.2-0.1,0.3-0.2,0.5c0,0.1-0.2,0.3-0.4,0.7c-0.2,0.3-0.4,0.5-0.7,0.7c-0.2,0.2-0.5,0.3-0.8,0.4c-0.3,0.1-0.6,0.1-1.1,0.1
					c0,0,0,0,0,0c-0.6,0-1.2-0.1-1.8-0.4c0-0.6,0.1-1.1,0.2-1.4c0.1-0.4,0.2-0.7,0.4-0.9c0.2-0.4,0.5-0.7,0.8-0.9
					c0.1-0.1,0.2-0.2,0.3-0.2l0.1-0.1c0.1-0.1,0.2-0.1,0.3-0.1C761.8,309.8,762.1,309.8,762.3,309.8z M789.3,381.2
					C789.3,381.2,789.3,381.2,789.3,381.2l0.3,0c0.1,0,0.3,0,0.4,0.1l0.2,0.1c0.2,0.1,0.4,0.2,0.6,0.4c0.2,0.2,0.3,0.4,0.5,0.6
					c0.2,0.4,0.3,0.6,0.3,0.7c0.3,1,0,1.4-0.8,1.4c0,0,0,0,0,0c-0.7,0-1.4-0.2-2.1-0.5c-0.3-0.1-0.5-0.2-0.8-0.4l-0.4-0.2
					c-0.3-0.2-0.5-0.4-0.8-0.6l-0.5-0.4c0.7-0.4,1.3-0.7,1.9-0.8C788.5,381.3,788.9,381.2,789.3,381.2z M733.2,382.6
					C733.2,382.6,733.2,382.6,733.2,382.6l0.1,0c0,0,0,0,0,0c0.2,0,0.5,0,0.9,0.1c0.2,0,0.3,0.1,0.4,0.1l0.2,0.1l0.1,0.1
					c0.1,0.1,0.1,0.2,0.2,0.3l0,0.2c0,0.1,0,0.3,0,0.4c0,0.5-0.1,0.9-0.2,1.4c0,0.2-0.1,0.3-0.1,0.4c0,0.1-0.1,0.3-0.2,0.6
					c-0.3,0.7-0.8,1.2-1.4,1.5c-1.1-1.6-1.6-2.7-1.6-3.3c0-0.6,0.2-1.1,0.4-1.5C732.4,382.7,732.7,382.6,733.2,382.6z M737.8,282
					c-0.4,0-0.8,0.1-1.2,0.2l-0.2,0c-4,0.4-6.5,2.9-7.5,7.5c-0.4-0.1-0.8-0.2-1.2-0.3l0,0c0-0.6-0.1-0.9-0.1-1
					c-0.2-0.9-0.6-1.7-1.4-2.6c-0.9-1.1-2.1-1.7-3.5-1.7c0,0,0,0-0.1,0c0,0-0.1,0-0.1,0c-0.6,0-2.2,0.6-4.8,1.7
					c-0.2,0-0.4,0.1-0.6,0.1c-0.2,0-0.4,0-0.6-0.1c-0.2,0-0.4-0.1-0.6-0.2c0.3-1.3,0.2-2-0.6-2.1h0c-0.3,0-0.5,0.2-0.7,0.5
					c-0.1,0.4,0,0.9,0.3,1.7c-0.2,0.6-0.5,1.2-0.9,2c-0.2,0.4-0.5,0.8-1,1.2c-0.4,0.4-1.1,1-2.3,1.8c-0.3,0.3-0.5,0.5-0.8,0.8
					c-0.5,0.7-0.8,1.3-0.8,1.9c-1.1,1.2-2.1,3-3.2,5.6c-0.7,2.3-1.1,4.1-1.1,5.5c0,1.1,0.1,1.9,0.3,2.6l0,0c0,0,0,0-0.1,0
					c-0.9,0.8-1.4,2.2-1.2,4.2c0.3,2.2,1.4,3.8,3.3,4.6c0.6,0.2,1.3,0.3,2.1,0.3c0.6,0,1.2-0.1,1.8-0.2c2.4,1.5,5.4,2.5,9,2.9
					c0.6,0.1,1.2,0.1,1.7,0.1c2.2,0,3.7-0.4,4.8-1.2c0.1,1.7,0.6,5,1.3,9.9c0.2,1,0.3,1.6,0.4,1.8c0.1,0.2,0.3,0.6,0.8,1l4.7,4.3
					c1,1.7,1.4,3.2,1.3,4.5c-0.1,1.3-0.4,2.7-1,4.3c-3.3,7.4-5.1,11.7-5.4,12.9c-1.8,5.6-3,9.5-3.4,11.5c-1,5.9-1,11.6,0.2,17
					c0.9,3.5,2.6,5.3,5.3,5.3c0.7,0,1.5-0.1,2.3-0.4c1.5,2.3,3.6,5.2,6.4,8.8c0.4,0.3,1.1,4.6,2.4,12.8c0.2,0.9,0.7,2.2,1.5,3.7
					c2.1,3.6,4.7,5.5,7.9,5.5c3.6-0.1,5.9-2.3,6.8-6.6c1,0.3,2,0.4,2.9,0.4c3.8,0,7.1-2.1,10.1-6.3c1.4-1.8,2.6-3.8,3.7-6
					c3.4-10.5,5.3-16,5.9-16.5l4-2.6c1.8,1.7,3.6,2.6,5.4,2.6c0.2,0,0.5,0,0.7,0c1.3-0.2,1.9-0.9,1.9-2.2c-0.6-2.3-1.8-3.5-3.6-3.5
					c-1.1,0-2.5,0.5-4.1,1.4c-2.3-2.4-4.7-6.7-7.4-13c-0.2-1.3-0.2-2.7,0-4.2c2.9-16.4,4.3-24.8,4.2-25.2c0.2-4.5-0.1-7.7-1-9.5
					c-0.6-1-1.5-1.8-2.8-2.3c-9.1-0.6-14.3-1.6-15.5-3.2c-2.1-2.2-3.2-5.2-3.2-9.1l0,0c0.7,0.2,1.4,0.3,2,0.3c1.2,0,2.2-0.4,2.9-1.1
					c1.2-1.4,1.4-2.8,0.6-4.1c-0.6-0.9-1.4-1.3-2.4-1.3c-0.5,0-1.1,0.1-1.7,0.3c-1.4,0.7-2.2,2.1-2.5,4.3c-1.7-0.8-3-1.6-3.8-2.3
					c-0.7-0.8-1.5-2.2-2.3-4.4c-1.7-9.3-2.7-14-3.2-14c0,0,0,0,0,0C744.7,285.5,741,282,737.8,282z"/>
			</g>
		</g>
		<g>
			<g>
				<path class="st0" d="M747.1,277.2c0,0-0.8-3.7-1.1-5.6c-0.5-3.2-0.8-6.5-1-9.8c-0.9-13.7-1.9-29,5.2-40.7
					c7.4-12.3,25.2-15,39.3-17.6c6.5-1.2,14-3.1,20.8-3.1c5,0,9.6,1,13.3,4.1c6,4.9,3.8,15.5,2.5,23.2c-2.2,12.9-4.6,28.2-14.9,36.3
					c-2.2,1.7-4.6,2.4-7.1,2.4c-11.1,0-24.7-13.6-37-13.6c-1,0-2.1,0.1-3.1,0.3c-7.3,1.5-10.3,11.3-13,18.3
					C750.1,273.5,747.1,277.2,747.1,277.2z"/>
			</g>
			<g>
				<path class="st14" d="M770.2,232.8c-0.7,0.3-0.6,0.9-0.5,1.3c0.1,0.4,0.2,0.6,0.3,1.1c0.1,0.5,0.2,0.8,0.3,1.1
					c0.1,0.4,0.2,0.9,0.3,1.1c0.1,0.2,0.2,0.7,0.3,1.1c0.1,0.4,0.2,0.6,0.4,1.1c0.2,0.5,0.2,0.7,0.4,1.1c0.1,0.3,0.3,0.8,0.4,1
					c0.1,0.3,0.3,0.6,0.5,1s0.3,0.6,0.5,0.9c0.2,0.3,0.4,0.6,0.6,0.9c0.2,0.3,0.4,0.5,0.7,0.8c0.3,0.3,0.5,0.5,0.8,0.8
					c0.3,0.3,0.8,0.5,1,0.7c0.2,0.1,0.8,0.4,1.3,0.5c0.4,0.1,0.7,0.1,1.1,0.2c0.4,0,0.5,0,0.6,0c0.1,0,0.2,0,0.3,0
					c0.1,0,0.2,0,0.3,0c0.1,0,0.1,0,0.3-0.1c0.1,0,0.2,0,0.3-0.1c0.1,0,0.2-0.1,0.3-0.1c0.1,0,0.2-0.1,0.3-0.1
					c0.1,0,0.1-0.1,0.3-0.1c0.1,0,0.2-0.1,0.2-0.1c0.1,0,0.2-0.1,0.2-0.1c0.1,0,0.2-0.1,0.2-0.1c0.1,0,0.1-0.1,0.2-0.1
					c0.1-0.1,0.1-0.1,0.2-0.1c0.1,0,0.2-0.1,0.2-0.1c0.1,0,0.1-0.1,0.2-0.1c0.1-0.1,0.1-0.1,0.4-0.3c0.2-0.2,0.6-0.6,1-0.9
					c0.3-0.3,0.6-0.7,1-1.2c0.4-0.5,0.6-0.8,1-1.3c0.3-0.5,0.7-1.1,0.9-1.5c0.2-0.4,0.6-1.1,1-1.7c0.3-0.6,0.5-1,1-1.8
					c0.4-0.8,0.6-1.2,1-1.9c0.3-0.7,0.8-1.6,1-2.1c0.2-0.4,0.7-1.5,1-2.2c0.3-0.7,0.5-1.2,1-2.3s0.7-1.6,1-2.4
					c0.4-0.8,0.8-1.9,1.1-2.4c0.2-0.5,0.7-1.7,1.1-2.5c0.4-0.8,0.6-1.3,1.1-2.5c0.5-1.2,0.8-1.7,1.2-2.5c0.4-0.8,0.9-2,1.1-2.4
					c0.2-0.4-4.7-2.5-4.8-2.3c0,0-0.2,0.5-0.7,1.7c-0.5,1.2-0.7,1.7-1.1,2.5c-0.4,0.8-0.9,2-1.1,2.5c-0.2,0.5-0.8,1.6-1.2,2.4
					c-0.4,0.8-0.6,1.3-1.2,2.4c-0.5,1.1-0.8,1.6-1.2,2.3s-0.9,1.8-1.1,2.2c-0.2,0.4-0.8,1.4-1.1,2.1c-0.4,0.7-0.6,1-1.1,1.9
					c-0.5,0.9-0.7,1.3-1.1,1.8c-0.3,0.6-0.8,1.4-1,1.7c-0.2,0.3-0.6,1-1,1.5s-0.5,0.7-0.9,1.3c-0.4,0.6-0.6,0.8-0.8,1.1
					s-0.7,0.8-0.7,0.8c0,0-0.4,0.4-0.7,0.6c-0.3,0.2,0,0-0.1,0.1c-0.1,0,0,0,0,0c0,0-0.1,0,0,0c0,0,0,0,0,0c0,0,0,0,0,0
					c-0.1,0,0,0,0,0c0,0-0.1,0,0,0c0.1,0,0,0,0,0c0,0,0.1,0,0,0c-0.1,0,0,0,0,0c0,0,0,0,0,0c0.1,0,0,0,0,0c0,0,0.1,0,0,0
					c-0.1,0,0,0,0.1,0c0,0,0,0,0.1,0c0.1,0,0,0,0.3,0c0.3,0,0.3,0,0,0c-0.2,0,0.2,0.1,0.3,0.1c0.1,0-0.2-0.1,0.1,0.1
					c0.2,0.2,0,0,0-0.1c0,0,0,0.1-0.2-0.2s-0.2-0.2-0.3-0.3c-0.1-0.1-0.3-0.5-0.3-0.5c0,0-0.2-0.4-0.3-0.6c-0.1-0.2-0.2-0.3-0.3-0.7
					c-0.2-0.4-0.2-0.5-0.4-0.8c-0.1-0.3-0.3-0.7-0.4-0.9c-0.1-0.2-0.2-0.6-0.4-1c-0.1-0.3-0.2-0.5-0.4-1c-0.2-0.5-0.3-0.7-0.4-1
					c-0.1-0.4-0.3-0.9-0.4-1.1c-0.1-0.2-0.3-0.7-0.7-0.9C774.6,231.5,770.2,232.9,770.2,232.8z"/>
			</g>
		</g>
		<g>
			<g>
				<path class="st17" d="M245.4,878c2.4-1.2,4.9-2.5,6.4-2.5c0.5,0,0.9,0.1,1.2,0.4c1.2,1.2,0.4,5.1,7.8,12.1
					c6.4,6,19,14.2,22.9,14.2c0.6,0,1-0.2,1.1-0.7c0.8-3.3-13.4-19.9-16.2-31.8c-2.8-11.9,5.9-19.2,14.6-26.4
					c-6.7-4.3-13.4-8.6-18.4-8.6c-0.8,0-1.6,0.1-2.3,0.4c-5,1.9-7.2,10.6-12.1,17.5c-4.9,6.9-12.6,12-13.9,15.9
					C235.1,872.5,240.3,875.2,245.4,878z"/>
			</g>
			<g>
				<path d="M247.9,855.6c-0.5,0.5-1,1.2-1.6,1.8c-4.8,4.7-7.4,7.4-7.8,7.9c-0.7,0.8-1.2,1.5-1.6,2.2l-0.5,1
					c-0.6,1.3-0.1,2.8,1.4,4.6c0.8,0.9,2.2,1.8,4,2.9c1,0.6,2.2,1.3,3.6,2l0.8-0.4c3.4-1.8,5.6-2.4,6.7-1.8c0.4,0.3,0.6,0.7,0.6,1
					c0.4,1.4,0.9,2.8,1.6,4.1c0.4,0.7,0.9,1.6,1.6,2.5c1.3,1.8,3.3,4,6.1,6.4c4.3,3.5,8.2,6.3,11.7,8.4c0.5,0.3,1.1,0.6,1.6,0.9
					c4.6,2.6,7.4,3.6,8.2,3.1c0.3-0.1,0.5-0.3,0.5-0.6c0.1-0.6-0.1-1.5-0.7-2.7c-0.6-1.2-1.4-2.7-2.5-4.4
					c-4.8-7.6-7.3-11.6-7.3-11.9c-1.3-2.2-2.4-4.4-3.4-6.5c-0.9-1.9-1.5-3.7-2-5.5c-1.1-0.6-2.6-1.3-4.4-2.2l-11.5-4.5
					c-0.9-0.4-1.7-0.8-2.2-1.2c-0.5-0.3-0.8-0.5-1.1-0.8c-0.5-0.4-0.9-0.9-1.2-1.5l-0.3-0.9C247.9,859.1,247.9,857.8,247.9,855.6
					L247.9,855.6z"/>
			</g>
			<g>
				<path class="st18" d="M332.8,681.4c-14.1,12.9-28.2,25.8-40.9,51.7c-12.6,25.9-23.7,64.9-34.9,103.9c2.5,3.4,4.9,6.8,9,8.6
					c4,1.8,9.6,2,15.2,2.3c20.3-35.8,40.6-71.6,57.7-94.5c17-22.9,30.8-32.9,50.4-69c19.6-36.1,44.9-98.2,38.5-127.5
					c-3.1-14.1-13.7-20.6-26.1-20.6c-13.3,0-28.9,7.5-39.8,21.1C340.7,583.5,336.7,632.5,332.8,681.4z"/>
			</g>
			<g>
				<path class="st6" d="M399.4,536.4c-0.4,0-0.8,0-1.2,0c-9.4,0.9-18.6,4.9-27.5,11.9c-10.2,7.4-18.5,21.4-25,42
					c-1.3,2.8-3.6,13.4-6.8,31.6c-1.9,11.1-3.9,30.9-6.2,59.5l-3.5,3.2c-16.5,15.2-27.8,29.3-34.1,42.3c-10.6,21-20.5,48-29.7,81.1
					l-8.4,29c0.3,0.7,0.7,1.3,1.1,2c-0.3,0.4-0.6,0.9-0.9,1.4l-0.9,1.6c-3,5.9-5,9.4-6,10.7l-1.3,1.7c-0.4,0.5-0.8,0.9-1.1,1.4
					c0,0,0,0,0,0l0,0c-0.5,0.5-1,1.1-1.6,1.8c-4.8,4.7-7.4,7.4-7.8,7.9c-0.7,0.8-1.2,1.5-1.6,2.2l-0.5,1c-0.3,0.6-0.3,1.2-0.1,1.9
					c-0.1,0.4,0.4,1.2,1.4,2.5c0.9,1,2.7,2.3,5.3,3.8c0.7,0.4,1.5,0.8,2.4,1.3l0.5-0.2l0.1-0.1c1.8-0.9,3.2-1.5,4.3-1.9
					c0.6-0.2,1-0.2,1.5-0.2c0.4,0,0.7,0.1,1,0.2c0.3,0.3,0.5,0.5,0.6,0.7c0,0.1,0.1,0.2,0.1,0.3c0.4,1.4,0.9,2.8,1.6,4.1
					c0.4,0.7,0.9,1.6,1.6,2.5c0.8,1.2,2,2.5,3.4,3.9c0.8,0.7,1.6,1.5,2.5,2.3c2.4,2,5,4,7.6,5.8c1.5,1,2.9,2,4.3,2.8
					c0.5,0.3,1.1,0.6,1.6,0.9c0.1,0,0.2,0.1,0.2,0.1c2.2,1.2,3.9,2.1,5.3,2.6c0.9,0.3,1.6,0.5,2.1,0.5c0.3,0,0.4,0,0.6-0.1
					c0.1-0.1,0.3-0.1,0.3-0.2c0.1-0.1,0.1-0.2,0.2-0.3c0,0,0,0,0,0c0.1-0.6-0.1-1.5-0.7-2.7c-0.6-1.2-1.4-2.7-2.5-4.4
					c-0.5-0.9-1.1-1.7-1.5-2.5c-6.5-4.6-11-9.2-13.5-14l-15.5-7.2c-1.9-1.8-2.3-4.4-1.1-7.6c0.8-2.4,7.1-8.2,18.9-17.4l5.4-8
					c1.6-3.4,5.2-20.5,10.6-51.2c0.7-3.1,1.8-6.2,3.2-9.3l2.4-4.8l53-73.2l25.8-73.3l3-5.4c8.4-13.5,19.2-20.3,32.4-20.3
					c0.8-0.1,1.6-0.1,2.4-0.1c4.2,0,9.5,1.3,15.6,3.8c4.3-14.9,6.3-28,6.1-39.3c-0.4-8.6-2.5-15.1-6.4-19.6
					C418.4,539.4,410.7,536.4,399.4,536.4z"/>
			</g>
			<g>
				<path class="st17" d="M319.1,908.1c1.8-2.8,3.6-5.7,5.1-5.7c0.1,0,0.2,0,0.3,0c1.6,0.4,3,4.2,12.9,6.3c4.8,1,11.6,1.6,17.3,1.6
					c6.1,0,10.8-0.7,10.2-2.4c-1-3.2-21.7-10.1-30.2-18.9c-8.5-8.8-4.8-19.5-1.1-30.2c-2.3-0.1-4.6-0.1-6.8-0.1
					c-6.8,0-12.7,0.6-15.2,3.8c-3.3,4.2-0.7,12.8-1.3,21.2c-0.7,8.5-4.6,16.8-3.7,20.8c0.7,3,4.1,3.6,8.2,3.6
					C316.2,908.2,317.7,908.1,319.1,908.1z"/>
			</g>
			<g>
				<path d="M309.8,887.6c-0.1,0.7-0.3,1.5-0.5,2.4c-1.7,6.5-2.6,10.1-2.6,10.8c-0.2,1-0.3,1.9-0.2,2.7l0.1,1.1
					c0.1,1.4,1.3,2.4,3.6,3.2c1.2,0.3,2.8,0.5,4.9,0.5c1.2,0,2.6,0,4.1-0.1l0.4-0.7c1.9-3.3,3.5-4.9,4.8-5c0.5,0.1,0.8,0.3,1,0.5
					c1.1,1,2.3,1.9,3.5,2.7c0.7,0.4,1.6,0.9,2.6,1.3c2.1,0.9,4.9,1.7,8.5,2.3c5.5,0.8,10.3,1.2,14.4,1.2c0.6,0,1.2,0,1.8,0
					c5.3-0.2,8.2-0.7,8.6-1.6c0.2-0.2,0.2-0.5,0.1-0.8c-0.2-0.5-0.9-1.2-2-1.9c-1.1-0.7-2.6-1.6-4.4-2.5c-8.1-4.1-12.2-6.2-12.4-6.4
					c-2.2-1.2-4.3-2.5-6.3-3.9c-1.7-1.2-3.2-2.4-4.5-3.7c-1.3,0-2.9,0.2-4.9,0.4l-12.2,2.1c-1,0.1-1.9,0.2-2.5,0.2
					c-0.6,0-1,0-1.3-0.1c-0.6-0.1-1.2-0.3-1.8-0.7l-0.7-0.6C311.6,890.6,310.9,889.5,309.8,887.6L309.8,887.6z"/>
			</g>
			<g>
				<path class="st14" d="M323.1,697.9c-8.7,17-17.5,34-20.2,62.8c-2.8,28.7,0.4,69.1,3.6,109.5c3.5,2.3,7,4.6,11.4,4.9
					c0.3,0,0.7,0,1,0c4.2,0,9.2-1.6,14.1-3.2c6.5-40.6,13.1-81.3,21.1-108.7c8-27.4,17.4-41.6,23.1-82.2
					c5.7-40.6,7.8-107.7-8.5-132.9c-5.5-8.5-13.1-12.2-21.1-12.2c-15.8,0-33.5,14.5-40.5,35.6C296.4,603.4,309.7,650.7,323.1,697.9z
					"/>
			</g>
			<g>
				<path class="st6" d="M347.2,535.9c-3.8,0-7.7,0.9-11.7,2.6c-5.4,2.3-10.4,5.8-15.1,10.6c-5.4,6.4-8.5,10.5-9.1,12.4
					c-1.7,3.1-3.2,6.5-4.4,10l-2.2,8.3l-1.3,8.9c-0.5,6.1-0.6,12.6-0.1,19.3l1,10.3c0.9,7,2.1,14.2,3.7,21.7
					c2.1,11,7.1,30.3,15,57.9l-2.2,4.3c-4.5,8.3-8.4,17.6-11.9,27.8c-2.3,6.9-4,14.8-5.3,23.7c-0.6,4.5-1.1,9.3-1.4,14.4
					c-0.3,2.2-0.5,10.5-0.4,24.8c0,8.5,0.8,24.3,2.3,47.2l2.3,30.1c1.1,1.1,2.3,1.9,3.6,2.7c0.4,6.4,0.4,10.1,0.2,10.9
					c0,0.7-0.3,2.8-1,6.3c-1.7,6.5-2.6,10.1-2.6,10.8c-0.2,1-0.3,1.9-0.2,2.7l0.1,1.1c0.1,1.4,1.3,2.4,3.6,3.2
					c1.2,0.3,2.8,0.5,4.9,0.5c1.2,0,2.6,0,4.1-0.1l0.1-0.1l0.4-0.6c1.9-3.3,3.5-4.9,4.8-5c0.5,0.1,0.8,0.3,1,0.5
					c1.1,1,2.3,1.9,3.5,2.7c0.7,0.4,1.6,0.9,2.6,1.3c2.1,0.9,4.9,1.7,8.5,2.3c5.5,0.8,10.3,1.2,14.4,1.2c0.6,0,1.2,0,1.8,0
					c5.3-0.2,8.2-0.7,8.6-1.6c0.2-0.2,0.2-0.5,0.1-0.8c-0.2-0.5-0.9-1.2-2-1.9c-1.1-0.7-2.6-1.6-4.4-2.5c-8.1-4.1-12.2-6.2-12.4-6.4
					c-2.2-1.2-4.3-2.5-6.3-3.9c-1-0.7-1.9-1.4-2.8-2.1c-0.3,0-0.6,0-0.9-0.1c-5.2-1.4-9.5-3.5-12.9-6.2c-1.4-1-2.3-2.5-3-4.4
					c1.2-7.7-0.5-16.7-5.3-27.1c1.5-23.9,4.4-41.8,8.5-53.5c0.2-2.9-1.5-14.4-5-34.3c-0.4-9.4-0.2-15.4,0.4-18
					c0.4-2.6,1.3-5.4,2.7-8.4l16.7-36.7c0.9-2.1,1.9-8,3-17.8c0.6-8.8-1.2-26.2-5.4-52.2c-0.3-3.6-0.1-6.9,0.4-9.9
					c5.9-18.6,15.2-27.9,28.1-27.9c4.9,0,10.3,1.4,16.2,4.1c0-0.8-0.1-1.5-0.1-2.3c-1.1-16.5-3.8-30.2-8.2-41.2
					c-2.4-6.7-6.8-12.2-13.3-16.4C355.2,536.8,351.2,535.9,347.2,535.9z"/>
			</g>
			<g>
				<g>
					<path class="st19" d="M528.7,284.5c3.3-8.5,6.6-16.9,3.4-23c-2.9-5.5-11-9.1-15.4-9.1c-0.5,0-0.9,0-1.3,0.1
						c-3.9,0.9-2,6.5-1.6,10.5c0.3,4-1,6.4-2.2,8.8c-0.5-1.6-1.1-3.2-1.9-5.1s-1.8-4.2-3.4-4.6c-0.1,0-0.3,0-0.5,0
						c-1.5,0-3.3,1.6-3.1,4.9c0.2,3.6,2.9,9.4,5.5,15.1c-1.1,44.1-2.1,88.2-28.3,95.9c-3.1,0.9-6.5,1.3-10.2,1.3
						c-27.7,0-70.5-22.5-94.8-23.7c-0.7,0-1.3,0-2,0c-25.8,0-28.8,25.4,3.2,48c23.3,16.3,65,31.1,98.6,31.1
						c13.8,0,26.2-2.5,35.4-8.4C541.7,405.9,535.2,345.2,528.7,284.5z"/>
				</g>
				<g>
					<path class="st20" d="M354.1,364.7c-1.3,4.2-1.7,6.9-1.2,8.1c0.2,2,0.7,4.1,1.6,6.3c1.7,4.4,4.7,9,9.2,13.8
						c3.2,4.1,10.4,9.5,21.4,16.3c6.5,3.7,13.6,7.2,21.4,10.5c16,6.6,32.6,11.2,49.8,13.7c17.2,2.5,32.3,1.5,45.2-2.9
						c11-4.1,19.2-11.8,24.4-23.2c2.1-4.6,3.8-9.7,4.9-15.4c2.4-11.5,3.4-24.4,3.2-38.7c-0.3-11.3-1-22.9-1.9-34.9
						c-6.4-3.9-14.7-6.6-25-8.1c-0.7,14-1.6,23.5-2.8,28.4c-1.3,8.4-3.2,15.5-5.9,21.3c-3.6,7.7-8.4,13.2-14.6,16.5
						c-5.5,3.2-14.7,3.6-27.5,1.5c-6-1.1-12.2-2.7-18.7-4.7l-47.2-15c-5.7-1.5-10.9-2.4-15.5-2.6C363.9,355.4,357,358.4,354.1,364.7
						z"/>
				</g>
				<g>
					<path class="st21" d="M505.7,313.2c0,0,3.4,2,5.2,2.7c5.1,2.1,10.4,3.6,15.7,4.7c0.9,0.2,1.9,0.3,3,0.3c2.2,0,4.4-0.5,4.8-2.3
						c1.2-5.4-5.5-10.5-10.6-12.6c-4.6-1.9-9.6-4.5-14.5-4.5c-0.6,0-1.3,0-1.9,0.1c-2.7,0.4-4.4,4.5-4,7.3
						C503.7,310.5,505.7,313.2,505.7,313.2z"/>
				</g>
			</g>
			<g>
				<path class="st6" d="M382.7,390.4L377,404c2.4,1.6,5,3.3,8,5.1c6.5,3.7,13.6,7.2,21.4,10.5c16,6.6,32.6,11.2,49.8,13.7
					c6.2,0.9,12.2,1.4,17.9,1.4c10,0,19.1-1.4,27.4-4.2c14.1-5.2,23.5-16.4,28.2-33.4l0,0c-3.3,3.9-7.4,7.2-12.3,9.9
					c-6.4,3.6-15.9,7.4-28.4,11.3c-4.2,1.4-10.2,2.2-17.8,2.5c-1,0-1.9,0-2.9,0c-9.5,0-19.5-1.6-30-4.8c-9.4-3.2-18.3-6.6-26.6-10.3
					C397.3,399,387.7,393.9,382.7,390.4z"/>
			</g>
			<g>
				<g>
					<path class="st0" d="M510.4,183.1c0,0-3,3.3-4.2,5.2c-1.3,2.2-2.3,4.5-3.2,6.9c-2,5.6-3,11.6-3.5,17.6
						c-1.9,22,0.5,47,13.7,64.7c10.8,14.4,32.3,16.4,51.5,16.4c3.4,0,6.7-0.1,9.9-0.1c21-0.4,48.5-1.1,60.1-18.6
						c11.8-18,12.1-42.9,8.5-64.2c-2.1-12.5-7.8-27.4-19.3-32.7c-14.3-6.6-30.4-8.8-46.6-8.8c-10.8,0-21.6,1-32.1,2.3
						c-7.1,0.9-14.1,2.2-20.9,4.3c-2.8,0.9-5.5,1.9-8.1,3.2C514.2,180.3,510.4,183.1,510.4,183.1z"/>
				</g>
				<g>
					<path class="st22" d="M571.8,214.4c0,15.7-13.7,28.5-30.7,28.5c-17,0-30.7-12.7-30.7-28.5c0-15.7,13.7-28.5,30.7-28.5
						C558,186,571.8,198.7,571.8,214.4z"/>
				</g>
				<g>
					<path class="st20" d="M540.3,242.8C540.3,242.8,540.3,242.8,540.3,242.8L540.3,242.8C540.3,242.8,540.3,242.8,540.3,242.8
						L540.3,242.8z"/>
				</g>
				<g>
					<path class="st20" d="M532.1,228.8c-2,0.4-3.9,1-5.7,1.6c-3,1-5.2,2-6.5,2.9c-0.3,0.2-0.6,0.5-0.9,0.9
						c4.7,4.5,10.7,7.3,17.9,8.4c1.2,0.1,2.3,0.2,3.4,0.2c-1.7-2.1-4.3-5.9-7.8-11.4l-1.3-2.1C531.5,229.2,531.8,229,532.1,228.8
						L532.1,228.8z"/>
				</g>
				<g>
					<path class="st20" d="M549.5,227.7c0.3,0.2,0.6,0.4,0.8,0.6c-0.6,6.3-1.4,10.9-2.3,13.8c4.3-0.9,8.2-2.6,11.8-5.2
						c2.2-1.6,4.1-3.4,5.7-5.4c-0.4-0.3-0.9-0.5-1.5-0.8C560.4,229.1,555.5,228.1,549.5,227.7L549.5,227.7z"/>
				</g>
				<g>
					<path class="st19" d="M543.1,194.1C543.1,194.1,543,194.1,543.1,194.1c-2.2,0-4.2,0.5-6,1.4c-2,1.2-3.2,2.2-3.7,3.1
						c-0.3,0.3-0.7,1.1-1.1,2.3l-0.4,1.7c-0.1,1.2-0.2,2.4-0.1,3.7c0.1,1.3,0.3,2.6,0.5,3.9l0.4,2l0.1,0.4v0c0,0,0,0,0,0l1.6,6.8
						l0.3,1.5l0.2,1.3c0.1,0.8,0.1,1.6,0,2.2c-0.3,1.9-1.2,3.3-2.9,4.4c-0.3,0.2-0.6,0.3-0.9,0.5l1.3,2.1c3.5,5.5,6.1,9.3,7.8,11.4
						c0.2,0,0.5,0,0.7,0c2.4,0,4.8-0.2,7-0.7c0.9-2.9,1.7-7.5,2.3-13.9c-1.9-1.3-3.2-2.5-4-3.7c-0.6-1-1-2-1.1-3.2c0-0.5,0-1,0-1.6
						c0.1-0.8,0.3-1.5,0.6-2c0.4-0.4,0.7-0.6,0.9-0.6c0,0,0.1,0,0.1,0c0.3,0,0.5,0.1,0.7,0.2c0.3,0.2,0.5,0.3,0.7,0.4v0
						c1.2,0.7,1.8,1,1.9,1c0,0,0,0,0,0c0.2,0.1,0.4,0.1,0.6,0.1c0.2,0,0.5-0.1,0.8-0.2c0.7-0.4,1.3-1.3,1.7-2.7
						c0.7-2.3,1-5.1,0.8-8.4l0,0c0,0,0,0,0,0c0-0.7-0.1-1.4-0.1-2.2c-0.3-2.7-1.1-5.1-2.3-7.2c-1-1.4-2.1-2.5-3.3-3
						C546.8,194.6,545,194.1,543.1,194.1z"/>
				</g>
				<g>
					<path class="st6" d="M539.1,211.4L539.1,211.4C539,211.4,539,211.4,539.1,211.4c-0.1,0.1-0.1,0.3-0.1,0.5
						c0,0.2,0.1,0.4,0.2,0.6l0.2,0.3l0.9,1.2c1,0.8,1.6,1.4,1.9,1.8c0.2,0.3,0.3,0.6,0.4,0.9c0.3,1.2,0.5,1.9,0.6,2.2
						c0.3,0.6,0.7,1.2,1.1,1.7c0.3,0.3,0.6,0.6,1,0.8c0-0.5,0-1,0-1.6c0.1-0.8,0.3-1.5,0.6-2c0.4-0.4,0.7-0.6,0.9-0.6
						c0,0,0.1,0,0.1,0c0.3,0,0.5,0.1,0.7,0.2c0.3,0.2,0.5,0.3,0.7,0.4l-1.2-1l0,0l-0.1,0c-0.5-0.2-1.4-0.5-2.7-0.9
						c-0.3-0.1-0.5-0.2-0.7-0.3l-1.5-1.2c-0.9-1-1.4-1.6-1.6-1.8L539.1,211.4z"/>
				</g>
				<g>
					<path d="M545.9,180L545.9,180c0.3,0,0.5,0.1,0.6,0.4c0.2,0.3,0.3,0.6,0.4,1c0.1,0.2,0.1,0.4,0.1,0.6c0,0.4-0.5,0.6-1.3,0.6
						c0,0,0,0,0,0c0,0,0,0,0,0c-0.4,0-0.8-0.1-1.1-0.2c-0.3-0.1-0.7-0.4-1.2-0.9c0.2-0.3,0.5-0.7,1-0.9c0.3-0.2,0.6-0.3,0.8-0.4
						C545.5,180.1,545.7,180,545.9,180z M526,189.3L526,189.3c0,0.1,0.1,0.2,0.1,0.3c0,0.1,0,0.2,0.1,0.2c0,0,0,0.1,0,0.1
						c0,0.1,0,0.1,0,0.2c0,0,0,0.1,0,0.1l0-0.1c0-0.1-0.1-0.3-0.1-0.4c0-0.1,0-0.1,0-0.2l0-0.1C526,189.4,526,189.3,526,189.3
						L526,189.3z M554.1,194C554.2,194,554.2,194,554.1,194L554.1,194c0.3,0,0.5,0,0.7,0.1c0,0.2-0.1,0.4-0.1,0.6
						c-0.1,0.2-0.1,0.4-0.2,0.6c-0.1,0.1-0.1,0.2-0.2,0.2c-0.1,0-0.1,0.1-0.2,0.1c-0.1,0-0.2,0-0.3-0.1c-0.1-0.1-0.2-0.1-0.3-0.2
						c-0.2-0.2-0.3-0.3-0.4-0.5c-0.1-0.1-0.1-0.2-0.1-0.2c0-0.1,0-0.1,0.1-0.2c0.1-0.1,0.2-0.1,0.3-0.2
						C553.5,194,553.8,194,554.1,194z M520.7,201.3L520.7,201.3c0.3,0,0.5,0,0.7,0.1c0.2,0.1,0.3,0.2,0.4,0.3
						c0.1,0.1,0.2,0.2,0.2,0.3c0,0.2,0,0.3-0.1,0.5c-0.2,0.3-0.5,0.5-1.1,0.7c-0.5,0.2-0.9,0.3-1.4,0.3c0,0,0,0-0.1,0
						c-0.1,0-0.1,0-0.2,0c0,0,0-0.3,0.1-0.8c0.1-0.5,0.2-0.8,0.3-1.1c0-0.1,0.1-0.1,0.2-0.2c0.1,0,0.1-0.1,0.2-0.1
						C520.1,201.3,520.4,201.3,520.7,201.3z M542.2,205.9L542.2,205.9c0.4,0.1,0.8,0.2,1.2,0.4c0.3,0.2,0.5,0.3,0.7,0.5
						c0,0,0,0.1,0,0.1c0,0.1,0,0.1-0.1,0.1c-0.1,0.1-0.2,0.2-0.3,0.3c-0.2,0.1-0.3,0.2-0.5,0.2c0,0-0.1,0-0.1,0
						c-0.2,0-0.3-0.2-0.5-0.5c-0.1-0.1-0.1-0.3-0.2-0.5C542.2,206.2,542.2,206,542.2,205.9L542.2,205.9z M536.5,178
						c-1.8,0-3,0.9-3.8,2.7c-0.4,0.3-0.6,3.2-0.7,8.8c-0.1,0.4-0.3,0.8-0.5,1c-1,0.7-1.9,1.1-2.9,1.1c-0.4,0-0.8-0.1-1.2-0.2
						l-0.4-0.2c0.2-1,0.1-1.8-0.2-2.3c-0.3-0.5-0.6-0.7-1-0.7c-0.1,0-0.1,0-0.2,0c-0.5,1.1-0.4,2.2,0.5,3.3
						c-0.2,0.6-0.4,1.1-0.7,1.6c-0.2,0.1-0.4,0.2-0.6,0.2c0,0-0.1,0-0.1,0l-4.4-0.3c0,0-0.1,0-0.1,0c-0.4,0-0.8,0.1-1.1,0.2
						c-1.1,0.7-1.8,1.8-2.3,3.5c-0.6,2.5-0.6,4.4-0.1,5.8c0.4,1.1,1.1,1.7,2,1.8c0.2,0.9,1.1,2.5,2.8,4.8c0.2,0.4,0.3,1,0.4,1.6
						c0.1,0.5,0,1.1-0.2,1.8l0,0c0,0-0.6,1-2,3c-0.2,0.4-0.2,0.8-0.1,1.3c0.4,0.9,1.3,1.8,2.7,2.5c0.7,0.4,1.9,0.6,3.6,0.6
						c0.1,0,0.2,0,0.2,0c2.1,0,3.8-0.7,5-2.1c1.9-2.8,2.5-5.4,1.9-7.8c1.3-1.1,2.5-2,3.6-2.7c1.4-1,2.8-1.5,4.4-1.5
						c0.1,0,0.3,0,0.4,0c0.4,1.8,1.1,2.7,2,2.7c0.4,0,0.9-0.2,1.4-0.5c1.1-1.4,0.2-2.4-2.5-3c-0.2-0.9,0.3-1.7,1.6-2.4
						c1.1-0.5,2-0.8,2.6-0.8c0.2,0,0.4,0,0.6,0.1c0.2,0.1,0.3,0.3,0.5,0.5c1,2.6,1.6,4,1.8,4c0,0,0,0,0,0c1.2,0.9,2.7,1.4,4.5,1.5
						c0,0,0.1,0,0.1,0c2.7,0,4.8-1.6,6.2-4.8c0.3-1,0.2-2.2-0.2-3.4c-0.2-0.6-1.2-2.3-2.9-5.1c-0.4-0.6-0.7-1-1-1.1
						c0-0.5-0.1-0.8-0.4-1.1c-0.5-0.6-1.4-1.3-2.6-2.1c-0.5-0.4-3-2.2-7.8-5.5c-0.7-0.6-1.2-1.2-1.6-1.8l0,0l0,0
						c0.4,0.3,0.7,0.5,1,0.6c0.3,0.1,0.6,0.2,0.9,0.2c0.1,0,0.2,0,0.2,0c0.9,0,1.4-0.2,1.8-0.5c0.8-0.7,0.6-1.9-0.5-3.5
						c-0.4-0.3-0.8-0.4-1.2-0.4c-0.9,0-1.9,0.6-3,1.7c-1.3-1.5-2-2.2-2.2-2.2c0,0,0,0,0,0c-0.8-0.3-2-0.5-3.7-0.6l-0.1,0
						C536.7,178,536.6,178,536.5,178z"/>
				</g>
				<g>
					<path class="st21" d="M597.2,197.8c0,0-0.1,0-0.1,0c0,0-0.1,0-0.1,0c-2.9,0-5,0.1-6.1,0.2l-0.8,0.1l-0.7,0.2l-0.5,0.3
						c-0.3,0.2-0.5,0.4-0.7,0.6l-0.7,1.5l-0.2,0.1l-0.2,0.1l0.4,0.1c0.6,0.2,1.6,0.3,2.8,0.3c1.2,0.1,2.6,0.1,4,0.1
						c0.1,0,0.2,0,0.4,0c0.5,0,1.4,0,2.6,0c7.3-0.2,11.9-0.3,13.7-0.3c1.1,0,2.2,0,3.3,0c0.7,0,1.3,0,1.9,0v-3c-0.7,0-1.3,0-2,0
						c-1.9,0-3.5,0-4.9,0c-2.4,0-5.6-0.1-9.6-0.3C598.4,197.8,597.6,197.8,597.2,197.8z M602.5,217.7c-0.1,0-0.1,0-0.1,0
						c-0.1,0-0.1,0-0.2,0c-4.2,0-7,0.1-8.6,0.2l-1.2,0.1l-0.9,0.2l-0.7,0.3c-0.4,0.2-0.7,0.4-0.9,0.6l-1,1.5l-0.2,0.1l-0.3,0.1
						l0.5,0.1c0.9,0.2,2.2,0.3,4,0.3c1.7,0.1,3.6,0.1,5.6,0.1c0.1,0,0.3,0,0.6,0c0.7,0,2,0,3.7,0c10.3-0.2,16.8-0.3,19.3-0.3
						c1.6,0,3.2,0,4.6,0c0.9,0,1.8,0,2.7,0v-3c-1,0-1.9,0-2.7,0c-2.7,0-5,0-6.9,0c-3.4,0-7.9-0.1-13.6-0.3
						C604.2,217.7,603,217.7,602.5,217.7z M630.2,231.4c-3.8,0.1-6.9,0.2-9.4,0.3c-3.3,0.1-7.7,0.1-13.2,0.2c-1.9,0-3.1,0.1-3.6,0.1
						c-4.1,0.1-6.9,0.3-8.5,0.5l-1.1,0.2l-0.9,0.2l-0.7,0.3c-0.4,0.2-0.7,0.4-0.9,0.7l-0.9,1.5l-0.2,0.2l-0.3,0.1l0.5,0.1
						c0.9,0.1,2.1,0.2,3.8,0.2c0.3,0,0.5,0,0.8,0c1.5,0,3,0,4.7-0.1c0.5,0,1.9-0.1,4.1-0.2c10-0.5,16.2-0.8,18.7-1
						c2.6-0.1,4.9-0.2,7-0.3L630.2,231.4z M570.3,255.4c-0.1,0-0.2,0-0.3,0c-0.1,0-0.3,0-0.4,0c-9.2,0-15.5,0.1-19,0.2l-2.6,0.1
						l-2.1,0.2l-1.6,0.3c-0.9,0.2-1.6,0.4-2.1,0.6l-2.1,1.5l-0.5,0.1l-0.7,0.1l1.1,0.1c2,0.2,4.9,0.3,8.8,0.3
						c3.9,0.1,8,0.1,12.5,0.1c0.3,0,0.8,0,1.4,0c1.6,0,4.3,0,8.1,0c22.8-0.2,37.1-0.3,42.8-0.3c3.6,0,7,0,10.2,0c2,0,4,0,5.9,0v-3
						c-2.1,0-4.1,0-6.1,0c-5.9,0-11,0-15.2,0c-7.5,0-17.5-0.1-30.1-0.3C574.2,255.4,571.5,255.4,570.3,255.4z M577.3,266.8
						c-0.1,0-0.2,0-0.3,0c-0.1,0-0.2,0-0.3,0c-7.9,0-13.4,0.1-16.4,0.2l-2.3,0.1l-1.8,0.2l-1.4,0.3c-0.8,0.2-1.4,0.4-1.8,0.6
						l-1.8,1.5l-0.5,0.1l-0.6,0.1l1,0.1c1.7,0.2,4.2,0.3,7.6,0.3c3.3,0.1,6.9,0.1,10.8,0.1c0.3,0,0.7,0,1.2,0c1.4,0,3.7,0,7,0
						c19.7-0.2,32-0.3,37-0.3c3.1,0,6,0,8.8,0c1.8,0,3.5,0,5.1,0v-3c-1.8,0-3.6,0-5.2,0c-5.1,0-9.5,0-13.1,0c-6.5,0-15.1-0.1-26-0.3
						C580.7,266.9,578.4,266.8,577.3,266.8z"/>
				</g>
				<g>
					<path class="st19" d="M502.8,266c0,0,0.6-3.1,1.1-4.6c1-2.9,2.1-6.2,4.6-8c0.5-0.4,1.1-0.5,1.6-0.5c2.9,0,6.3,4.1,7.7,6.9
						c2.2,4.8-4.7,12.2-10,12.3c0,0,0,0,0,0C505.1,272,502.8,266,502.8,266z"/>
				</g>
			</g>
			<g>
				<path class="st20" d="M302.7,578.9c0,0,2.6,1.9,4.2,2.4c1.9,0.6,3.9,0.8,5.8,0.8c0.2,0,0.4,0,0.5,0c8.2,0,16.2-2.5,24-4.9
					c20.1-6.2,39.1-17.5,60.1-19.5c0.8-0.1,1.6-0.1,2.3-0.1c6.4,0,12.9,2.3,18.3,5.8c3.2,2.1,8.2,6.1,11.6,6.1c1.1,0,2-0.4,2.7-1.4
					c7-10.4,3.7-25,2.5-37.4c-1.1-11.4-2.6-22.9-6.2-33.7c-5.6-16.8-14.8-32.3-20-49.2c-5.5-17.9-3.7-37.4-4.9-56.1
					c-0.5-8-1.1-16.6-5.3-23.3c-2.6-4.2-7.3-7-11.9-8.8c-7.5-2.9-15.7-4.3-23.8-4.3c-5.5,0-11,0.6-16.2,1.8
					c-7.8,1.8-16.2,5.6-20.7,12.2c-10.9,16.1-6.9,38.6-6.2,58c0.8,26.2,0.6,53.1-6.2,78.5c-4.3,16.1-9.9,32-12.9,48.5
					c-0.9,4.9-1.6,9.9-1.2,14.8c0.1,1.9,0.4,3.8,1.1,5.6C300.8,576.3,302.7,578.9,302.7,578.9z"/>
			</g>
			<g>
				<path class="st6" d="M323,374c-0.6,1.2-1.1,2.5-1.6,3.9c-2,6.1-3.1,12.5-3.1,19.2c-0.1,3.4,0,6.7,0.1,10.2
					c1,15.7,1.4,26.8,1.4,33.3c0.1,15.4-0.3,26.4-1,33c-0.7,8.8-2,17.4-3.9,26L303,542c-1.3,5.1-2.5,10.9-3.5,17.4
					c-1.3,9.6-0.2,16.1,3.2,19.5l0.5,0.2c3.1,2,6.9,3.1,11.3,3.1c3.3,0,6.9-0.5,10.9-1.6c5.3-0.6,22.5-6.7,51.5-18.3
					c6.6-2.3,13.5-3.8,20.4-4.5c0.7,0,1.4-0.1,2.1-0.1c4.2,0,8,0.7,11.3,2.1c3.1,1,7.8,3.7,14,8.1c1.4,0.8,2.7,1.3,4,1.6
					c0.4,0.2,0.7,0.3,1.1,0.3c1.8,0,3.6-2.4,5.2-7.1c0.9-1.9,1.4-5,1.5-9.3c-0.7-0.8-1.5-1.7-2.3-2.6c-3.1-6.5-5.5-11.1-7.2-13.5
					c-9-9.6-15-14.7-17.8-15.4c-1-0.3-2.5-0.5-4.4-0.5c-1.1,0-2.3,0.1-3.6,0.2l-28.8,2.7c-4.8-0.4-10-2.5-15.6-6.3
					c-4-2.7-6.6-4.9-7.7-6.6c-1.5-6.7-8-19.5-19.5-38.3c-1-2.8-1.7-5.9-1.9-9.2c0.3-0.5,0.1-6.9-0.6-19L323,374L323,374z"/>
			</g>
			<g>
				<path class="st6" d="M347.1,446c0.1-7.8,1.3-14.7,3.7-20.6c4.8-11.5,7.8-15.6,8.9-12c0.5,0.7,1.1,2.2,1.9,4.5l7.7,25.8
					c1.6,6.6,2.4,10.1,2.5,10.6c2.8,15.7,4.4,23.7,4.7,23.9c0.4,1.3,1.1,2.5,1.9,3.5c5.4,5,8.5,8.5,9.2,10.5c2.3,4,3.6,8.6,3.7,13.9
					c0.4,6.4,0.3,10.9-0.5,13.5c-0.3,1.4-2.9,1.5-7.7,0.1c-4.9-2.3-9.5-5.1-13.8-8.5c-1.9-2.4-6.7-6.9-14.1-13.4
					c-1.1-1-2.9-3.5-5.2-7.5L347.1,446z"/>
			</g>
			<g>
				<g>
					<path class="st19" d="M489.5,496.5c9.4-0.6,18.9-1.2,23.2-6.9c4.4-5.7,3.7-16.5,1.1-19.8c-0.7-0.9-1.5-1.2-2.3-1.2
						c-2.5,0-5.6,2.7-8.3,4.2c-2.7,1.5-5,1.8-7.1,1.8c-0.7,0-1.5,0-2.2-0.1c1.3-1.2,2.6-2.4,4-4c1.5-1.6,3.2-3.6,2.8-5.3
						c-0.2-1.1-1.4-2.1-3.2-2.1c-0.9,0-1.9,0.2-3,0.9c-3.4,1.8-7.6,6.8-11.8,11.8c-28.7,12.5-57.3,25-78.7,25
						c-10,0-18.4-2.8-24.4-9.6c-18.7-21.4-14-82.5-24.9-109.2c-4.2-10.4-10.8-15.6-17.8-15.6c-10.8,0-22.5,12.7-27,37.8
						c-7.4,41.2,4.2,115.8,37.3,136.8c7.2,4.6,15.5,6.6,24.6,6.6C404.2,547.7,446.9,522.1,489.5,496.5z"/>
				</g>
				<g>
					<path class="st20" d="M337,366.6c-4.6,0.6-7.3,1.4-8.2,2.4c-1.8,1.1-3.5,2.5-5.2,4.2c-3.4,3.5-6.4,8.4-9,14.7
						c-2.4,4.8-4.4,14-6.1,27.5c-0.7,7.8-0.9,16-0.5,24.9c0.7,18,3.7,35.7,8.9,53.1c5.2,17.4,12.7,31.2,22.5,41.5
						c8.7,8.6,19.6,13,32.6,13c5.2,0,10.8-0.7,16.8-2.1c11.9-2.8,24.6-7.4,38-14c10.5-5.3,21.3-11,32.1-17.1
						c0.9-7.7-0.2-16.8-3.3-27.2c-13.6,5.5-23,8.8-28.1,9.8c-8.5,2.5-16.1,3.7-22.8,3.7c-8.9,0-16.2-2.2-22-6.6
						c-5.4-3.8-9.9-12.3-13.5-25.4c-1.5-6.2-2.8-12.7-3.8-19.7L359,398c-1.1-6.1-2.5-11.4-4.3-15.9
						C350.1,371.7,344.2,366.6,337,366.6z"/>
				</g>
				<g>
					<path class="st21" d="M452.2,487.4c0,0-0.3,4.1-0.2,6.1c0.3,5.7,1.1,11.4,2.5,16.9c0.6,2.5,2.3,6.5,4.8,6.5
						c0.2,0,0.3,0,0.5-0.1c5.6-1.2,7.5-9.8,7.3-15.5c-0.2-5.9,0.1-12.5-3.1-17.5c-0.8-1.3-2.5-1.8-4.2-1.8c-1.6,0-3.3,0.4-4.4,1.2
						C453.9,484.3,452.2,487.4,452.2,487.4z"/>
				</g>
			</g>
			<g>
				<path class="st19" d="M341.8,357.7c9.6,15.2,19.1,30.3,24.9,30.3c0.1,0,0.1,0,0.2,0c5.8-0.3,7.7-16.3,9.5-32.2
					c-3.6-2.6-7.3-5.3-8.6-9.6c-1.3-4.2-0.3-10.1,2.4-10.1c0.1,0,0.1,0,0.2,0c1.9,0.2,4.6,3.1,7.1,3.1c1.3,0,2.5-0.8,3.6-3.2
					c3-7,4.3-27.5-4.1-36.4c-3.5-3.7-8.6-5.3-13.8-5.3c-7.5,0-15.1,3.5-18.3,9.6c-5.4,10.4,1.9,28.5,3.5,38.8
					C350,352.8,345.9,355.2,341.8,357.7z"/>
			</g>
			<g>
				<path class="st6" d="M356.1,325.2L356.1,325.2c-0.1,0-0.1,0.1-0.2,0.1c0,0.1-0.1,0.3-0.1,0.8c0,0.4,0.2,0.7,0.4,1.1l0.4,0.6
					l1.6,2.1c1.7,1.4,2.9,2.4,3.4,3.2c0.3,0.5,0.6,1,0.8,1.6c0.5,2.1,0.9,3.4,1.2,3.9c0.6,1.2,1.2,2.2,2,3.1
					c0.5,0.6,1.2,1.1,1.8,1.5c-0.1-0.9-0.1-1.9,0.1-2.8c0.2-1.5,0.6-2.7,1.2-3.5c0.7-0.7,1.2-1,1.5-1c0.1,0,0.1,0,0.2,0
					c0.5,0,0.9,0.1,1.2,0.3c0.5,0.3,0.9,0.5,1.3,0.8l-2.2-1.8l0,0l-0.1-0.1c-0.9-0.4-2.5-0.9-4.8-1.6c-0.5-0.2-0.9-0.4-1.2-0.6
					l-2.7-2.2c-1.6-1.9-2.5-3-2.9-3.2L356.1,325.2z"/>
			</g>
			<g>
				<path d="M368.3,268.8L368.3,268.8c0.5,0,0.9,0.2,1.1,0.7c0.3,0.5,0.6,1.1,0.8,1.8c0.1,0.4,0.2,0.8,0.2,1.1c0,0.7-0.8,1-2.3,1
					c0,0-0.1,0-0.1,0c0,0-0.1,0-0.1,0c-0.7,0-1.4-0.1-1.9-0.4c-0.6-0.3-1.3-0.8-2.2-1.5c0.4-0.6,1-1.2,1.8-1.6
					c0.5-0.3,1-0.5,1.4-0.7C367.6,268.9,368,268.8,368.3,268.8z M332.4,285.4L332.4,285.4c0.1,0.2,0.1,0.4,0.2,0.5
					c0,0.1,0.1,0.3,0.1,0.4c0,0.1,0,0.2,0,0.2c0,0.1,0,0.2,0,0.3c0,0.1,0,0.1,0,0.2l0-0.1c-0.1-0.3-0.2-0.5-0.2-0.8
					c0-0.1,0-0.2,0-0.3l0-0.2C332.4,285.6,332.4,285.5,332.4,285.4L332.4,285.4z M383.2,293.9C383.3,293.9,383.3,293.9,383.2,293.9
					l0.1,0c0.4,0,0.8,0,1.1,0.1c-0.1,0.4-0.1,0.7-0.3,1.1c-0.1,0.4-0.3,0.8-0.4,1.1c-0.1,0.2-0.2,0.4-0.3,0.4
					c-0.1,0.1-0.2,0.1-0.4,0.1c-0.1,0-0.3-0.1-0.5-0.2c-0.2-0.1-0.3-0.2-0.5-0.4c-0.3-0.3-0.6-0.6-0.8-0.9c-0.1-0.2-0.2-0.4-0.2-0.5
					c0-0.1,0-0.2,0.1-0.3c0.1-0.1,0.3-0.2,0.5-0.3C382.1,294,382.6,293.9,383.2,293.9z M322.9,307.1L322.9,307.1
					c0.5,0,0.9,0.1,1.3,0.2c0.3,0.1,0.6,0.3,0.8,0.5c0.2,0.2,0.3,0.4,0.3,0.6c0,0.3-0.1,0.6-0.2,0.9c-0.3,0.5-1,1-1.9,1.3
					c-0.9,0.3-1.7,0.5-2.4,0.5c0,0-0.1,0-0.1,0c-0.1,0-0.2,0-0.3,0c0-0.1,0-0.5,0.1-1.4c0.1-0.8,0.3-1.5,0.5-2
					c0.1-0.1,0.2-0.3,0.3-0.4c0.1-0.1,0.2-0.1,0.3-0.2C321.9,307.1,322.3,307.1,322.9,307.1z M361.6,315.3L361.6,315.3
					c0.8,0.2,1.5,0.4,2.2,0.8c0.6,0.3,1,0.6,1.2,0.9c0,0.1,0,0.1,0,0.1c0,0.1-0.1,0.2-0.1,0.3c-0.2,0.2-0.4,0.4-0.6,0.5
					c-0.3,0.2-0.6,0.3-0.9,0.3c-0.1,0-0.1,0-0.2,0c-0.3-0.1-0.6-0.4-0.9-0.9c-0.1-0.2-0.3-0.5-0.4-0.9
					C361.8,315.9,361.7,315.6,361.6,315.3L361.6,315.3z M351.5,265c-3.2,0-5.4,1.6-6.8,4.9c-0.7,0.5-1.1,5.8-1.3,15.9
					c-0.2,0.8-0.5,1.4-0.9,1.9c-1.7,1.4-3.5,2-5.3,2c-0.7,0-1.5-0.1-2.2-0.3l-0.7-0.4c0.4-1.8,0.2-3.2-0.4-4.2
					c-0.6-0.8-1.2-1.3-1.8-1.3c-0.1,0-0.3,0-0.4,0c-0.9,2-0.6,3.9,0.9,5.9c-0.4,1.1-0.8,2-1.3,2.9c-0.4,0.2-0.8,0.3-1,0.3
					c0,0-0.1,0-0.1,0l-8-0.6c-0.1,0-0.1,0-0.2,0c-0.8,0-1.5,0.1-2,0.3c-1.9,1.2-3.3,3.3-4.1,6.4c-1,4.6-1.1,8-0.3,10.4
					c0.8,1.9,2,3,3.6,3.2c0.4,1.6,2,4.4,5,8.6c0.3,0.8,0.6,1.8,0.7,2.9c0.2,1,0.1,2.1-0.4,3.3l0,0c0.1,0-1.1,1.8-3.7,5.4
					c-0.3,0.7-0.4,1.5-0.1,2.4c0.8,1.7,2.4,3.2,4.9,4.6c1.3,0.7,3.4,1.1,6.5,1.1c0.1,0,0.3,0,0.4,0c3.8,0,6.8-1.3,9-3.8
					c3.4-5,4.5-9.7,3.4-14.2c2.4-2.1,4.6-3.7,6.5-4.9c2.5-1.8,5.1-2.7,7.9-2.7c0.3,0,0.5,0,0.8,0c0.8,3.2,2,4.8,3.6,4.8
					c0.7,0,1.6-0.3,2.5-1c1.9-2.5,0.4-4.3-4.6-5.4c-0.4-1.6,0.5-3.1,2.9-4.3c2-0.9,3.6-1.4,4.6-1.4c0.4,0,0.8,0.1,1,0.2
					c0.3,0.1,0.6,0.5,0.9,1c1.7,4.8,2.8,7.1,3.3,7.1c0,0,0,0,0,0c2.2,1.6,4.9,2.5,8.1,2.7c0.1,0,0.2,0,0.3,0c4.9,0,8.7-2.9,11.3-8.7
					c0.5-1.9,0.3-3.9-0.4-6.2c-0.4-1.1-2.2-4.2-5.2-9.2c-0.7-1.1-1.3-1.8-1.7-2c0-0.9-0.3-1.5-0.7-1.9c-0.9-1-2.4-2.3-4.6-3.9
					c-0.8-0.7-5.5-4-14-9.9c-1.3-1-2.2-2.1-2.8-3.3l0-0.1l0,0c0.7,0.5,1.3,0.8,1.9,1c0.5,0.2,1,0.3,1.6,0.3c0.1,0,0.3,0,0.4,0
					c1.5,0,2.6-0.3,3.2-0.9c1.4-1.3,1.2-3.4-0.8-6.2c-0.7-0.5-1.4-0.8-2.2-0.8c-1.6,0-3.4,1-5.5,3.1c-2.3-2.7-3.6-4.1-3.9-4.1
					c0,0,0,0,0,0c-1.4-0.6-3.6-1-6.6-1.1l-0.2,0C351.7,265,351.6,265,351.5,265z"/>
			</g>
		</g>
		<g>
			<g>
				<g>
					<path class="st23" d="M1049.3,600.6l-0.1,0.1c-0.5,0.5-1.2,1-2.1,1.5c-0.3,0.2-0.4,0.3-0.5,0.3c-0.2,0.1-0.5,0.2-0.8,0.3
						c0.5-0.4,1-0.8,1.6-1.2C1048,601.1,1048.6,600.8,1049.3,600.6L1049.3,600.6z M1008,593.4c0,0,0,0.3-0.2,0.8
						c-0.2,0.5-0.4,1-0.6,1.4c-0.3,0.7-0.5,1-0.5,1.1c-0.1,0.2-0.4,0.6-0.7,1.1c-0.5-0.8-0.9-1.6-1.1-2.3c-0.1-0.2-0.1-0.4-0.1-0.7
						c0-0.2,0.1-0.4,0.2-0.6c0.1-0.1,0.2-0.4,0.4-0.8l0.1-0.1c0.1,0,0.1-0.1,0.2-0.1C1006.2,593,1006.9,593.1,1008,593.4L1008,593.4
						C1008,593.4,1008,593.4,1008,593.4z M939.8,619.1l0.1,0.1c0.3,0.1,0.6,0.4,1.1,0.8c0.1,0.1,0.3,0.3,0.4,0.4l0.2,0.2
						c0.2,0.2,0.3,0.3,0.5,0.5c-0.4-0.1-0.7-0.1-0.9-0.2c-0.2,0-0.4-0.1-0.6-0.2c-0.1,0-0.4-0.1-0.8-0.3c0,0-0.1,0-0.1,0
						c0-0.2,0-0.3,0-0.5c0-0.2-0.1-0.3-0.1-0.3c0-0.1-0.1-0.2-0.1-0.3c0,0,0-0.1,0-0.1c0,0,0-0.1,0-0.1c0,0,0,0,0.1,0
						C939.7,619.1,939.7,619.1,939.8,619.1z M982.2,631c0,0,0.1,0,0.1,0l0,0c1.1,0.5,1.5,1.2,1.3,2.1c-0.1,0.5-0.3,1.1-0.7,1.8
						c-0.5,0.9-1,1.6-1.5,2.1c-0.2,0.2-0.5,0.4-0.8,0.5c-2.3,0.6-3.5,0.9-3.8,1c-0.8,0.3-1.6,0.5-2.3,0.9c-1.2,0.5-2.6,1.4-4.2,2.6
						c-0.1-1.6,0.1-2.9,0.6-3.9c1.2-2.6,2.2-4.3,3.2-5.1c0.5-0.6,2.1-1.3,4.7-2C980.3,630.7,981.4,630.7,982.2,631z M1012.7,651.3
						C1012.7,651.3,1012.7,651.3,1012.7,651.3l0.2,0.1c0.6,0.3,1.1,0.7,1.5,1.3c0.4,0.8,0.5,1.6,0.4,2.4c-0.1,1.2-0.2,2-0.5,2.4
						c-0.4,0.6-1,1.1-1.8,1.3c-1.4,0.6-3.9,0.8-7.5,0.6c-3.1-0.2-6-0.7-8.7-1.5c3.9-3.2,7.3-5.4,10.1-6.5c1-0.4,2.1-0.6,3.1-0.7
						C1010.8,650.7,1011.9,650.9,1012.7,651.3z M1025.8,670.9L1025.8,670.9c0,0.1-0.1,0.2-0.1,0.3c0,0.1-0.1,0.2-0.2,0.3
						c-0.2,0.3-0.5,0.7-0.9,1.1c-0.5,0.6-0.8,0.9-0.9,1c-0.2,0.2-0.4,0.4-0.6,0.6l-0.5,0.4c-0.1,0.1-0.1,0.1-0.2,0.2
						c-0.1-0.7-0.2-1.5-0.3-2.4c0-0.3-0.1-0.7-0.1-1.1c0-0.4-0.1-0.8-0.1-1.3l0,0C1023.3,670.2,1024.5,670.5,1025.8,670.9z
						 M940.1,657.4L940.1,657.4c0.4,0.3,0.6,1.1,0.5,2.4c-0.1,0.8-0.4,1.8-1,3c-0.7,1.3-1.1,2.1-1.5,2.5c-0.5,0.5-0.9,0.9-1.2,1.3
						l0,0c0,0-0.9,0.8-2.6,2.4c0.2-1,0.3-2,0.2-3.2c0-0.3-0.1-0.6-0.2-1l-0.6-2.4c-0.1-0.5,0-0.9,0.1-1.2c0.7-1.1,1.7-2,2.9-2.7
						c0.5-0.3,1.1-0.5,1.8-0.8C939.3,657.3,939.8,657.3,940.1,657.4z M981.8,677.7l0.2,0.1c1.7,0.8,2.8,2.2,3.2,4.3
						c0.3,3-0.1,5.5-1.1,7.6c-0.4,0.7-1,1.5-1.9,2.3c-2.2,1.9-3.8,3.1-4.8,3.5c-1.5,0.7-3.2,0.7-4.9-0.1c0,0,0,0,0,0
						c-1-0.4-1.7-1-2.2-1.7c-0.3-0.3-1-1.9-2.2-4.8l-0.7-1.3c-1.3-2.2-2.6-3.9-3.8-4.9c3-2.5,6.5-4.3,10.4-5.4
						C976.5,676.5,979.2,676.6,981.8,677.7z M895.7,661.2L895.7,661.2c0,0.2,0.1,0.5,0.3,0.9c-0.1-0.1-0.2-0.2-0.4-0.3
						c-0.1-0.1-0.1-0.1-0.1-0.1c0,0-0.1-0.1-0.2-0.2l0,0C895.5,661.3,895.7,661.2,895.7,661.2L895.7,661.2z M984.3,730.3
						C984.3,730.3,984.3,730.3,984.3,730.3l0.2,0.1c0.9,0.5,1.9,1.6,3,3.2c0.8,1.1,1.2,2.3,1.3,3.5c0,0.7,0,1.3-0.1,1.8
						c-0.1,0.4-0.2,0.8-0.5,1c-1,0.7-1.8,0.8-2.5,0.5c0,0-0.1,0-0.1-0.1c-0.6-0.3-1.3-0.9-2.2-1.9c-0.4-0.5-0.7-1.1-0.8-2
						c-0.1-1.1,0-2.3,0.4-3.6c0.1-0.4,0.3-0.8,0.4-1.3l0.2-0.6l0.3-0.8C984.1,730.2,984.3,730.3,984.3,730.3z M951.8,719.7
						L951.8,719.7c1.2,0.6,1.9,1.7,2,3.3c0.1,2.2-0.3,4.5-1.2,6.6c-0.7,1.2-1.8,2.2-3.3,2.8c-1.7,0.7-3.1,0.9-4.2,0.4
						c0,0-0.1,0-0.1,0c0,0,0,0,0,0c-0.3-0.1-0.8-0.5-1.7-1.2c-0.1-0.1-1.6-1.3-4.3-3.6l-0.9-0.7c-0.6-0.4-1.4-0.9-2.4-1.3
						c0,0-0.1,0-0.1,0c2.4-2.3,5.7-4.4,10-6.3c0.7-0.3,1.5-0.4,2.6-0.4C949.9,719.3,951.1,719.5,951.8,719.7z M895.6,707L895.6,707
						c1.1,0.5,1.4,1,1.2,1.7c0,0.1-0.1,0.2-0.2,0.4c-0.9,1.3-1.6,2.2-2,2.8c-0.4,0.6-0.9,1.3-1.4,2.1c-1,1.6-1.8,3.1-2.5,4.5
						c-0.7-1.9-1-3.5-1.1-5c-0.1-1.5,0.1-2.8,0.5-3.9c0.2-0.5,0.5-0.9,0.8-1.2c0.4-0.4,0.9-0.7,1.4-1c0.7-0.3,1.4-0.5,2-0.6
						C894.7,706.7,895.1,706.8,895.6,707z M929,764.7C929,764.7,929,764.7,929,764.7l0.2,0.1c0.2,0.1,0.5,0.3,0.6,0.5
						c0.1,0.1,0.1,0.2,0.2,0.4l0.1,0.2c0.1,0.3,0.2,0.7,0.2,1.2c0,0.3,0,0.7,0,1.1c-0.9-0.1-1.7-0.3-2.6-0.7
						c-0.1-0.1-0.2-0.1-0.4-0.2c-0.9-0.4-1.6-0.9-2.1-1.5c-0.4-0.5-0.5-1-0.3-1.5c0.1-0.1,0.2-0.2,0.3-0.2l0.5,0.1l1.5,0.1
						c0.2,0,0.4,0,0.7,0.1c0.2,0,0.4,0.1,0.6,0.1C928.8,764.6,928.9,764.6,929,764.7z M1052,595.3l-0.5-0.2
						c-4.5-1.2-9.3,1.7-14.4,8.7c-6.9,0.6-11.4,0.7-13.6,0.4c-5.4-1.2-9.5-2.2-12.4-3.2c2.7-4,3.3-7.4,2-10.3
						c-0.9-1.4-2-2.3-3.2-2.8c-1.7-0.7-3.8-0.7-6.1,0.1c-5.8,2.9-6.4,7.8-1.7,14.7c-6,6.8-12.3,11.3-18.9,13.4
						c-8.4,3.7-18.1,5.5-29.1,5.6l-4.4,0c-1.1-2.8-2.9-4.7-5.4-5.8c-0.4-0.2-0.8-0.3-1.2-0.4c-4-0.5-6.7-0.2-7.8,1.1
						c-1.7,2.1-2.1,4.3-0.9,6.7c0.7,1.4,1.9,2.4,3.6,3.2c1.7,0.7,3.8,1.2,6.4,1.4c-0.2,1.5-0.6,2.8-1.2,4.1
						c-6.7,11.7-15.3,20.4-25.6,26.2c-4.5,2.8-9.3,5.4-14.6,7.9c-0.3-5.2-1.7-8.5-4.1-9.8c-0.3-0.2-0.7-0.4-1-0.5
						c-2.6-1.1-5.3-0.3-8.1,2.4c-1.3,1.6-1.5,3.6-0.6,6c1,2,3.4,4.2,7.2,6.5l-0.2,2.2c-0.7,2.4-1.8,4.7-3.5,6.8
						c-1.5,1.8-3.4,3.9-5.8,6.2l-12.2,11.4c-2,2.2-3.6,4.9-4.7,8.1c-1.2,3.6-1.9,6.8-1.9,9.7c2.2,16,3,25.2,2.5,27.4
						c-3.1,4.4-6,7-8.6,7.6c-1.5-1.7-3-2.8-4.6-3.5c-0.9-0.4-1.8-0.6-2.7-0.7c-2.2-0.2-3.6,0.8-4.1,3c-0.1,2.4,0.4,4.3,1.7,5.6
						c0.5,0.6,1.2,1,2,1.4c1.2,0.5,2.8,0.8,4.8,0.9l1.3,2.5c2.8,5.1,4,10.5,3.5,16.3c-0.1,4.6-0.7,10.9-2,18.7
						c-0.3,2.9-2.4,12.5-6.2,28.8c-0.3,1.8-0.4,3.1-0.1,3.9c-4.1-1.4-7.5-0.9-10.1,1.6c-0.5,0.3-0.6,0.6-0.2,1
						c0.8,1.3,1.7,2.4,2.9,3.3c1.1-0.9,2-1.4,2.9-1.7c9.3,2,15.1,2.6,17.3,1.8c3.7-0.5,9.6-3.6,17.5-9.3c2.3-1.8,4.3-4.3,6.3-7.4
						c4.1-10.7,6.8-17.2,8.2-19.7c1.7-3.6,4-7.1,6.9-10.6c0.5-0.8,2.3-1.5,5.3-2.2l15-2.4c3.9-1.8,6.1-4.6,6.6-8.3
						c4.3-0.7,8.4-2.5,12.2-5.5c2.9-2.3,6.6-6.1,11.2-11.5c0.9-0.8,4.7-7.2,11.6-19.4c1.2-1.7,2.8-3.3,4.6-4.6c1.6-0.9,3-1.6,4.4-2
						c-2.3,6.3-1,11,3.9,14.3c0.3,0.2,0.7,0.4,1,0.5c3.4,1.5,6.3,0.9,8.7-1.8c2.1-2.4,2.6-5.4,1.5-9.1c-1.3-3.6-3.7-6.4-7-8.2
						c7.8-9.5,11.9-15,12.3-16.4c2.9-4.6,5.4-12.9,7.4-24.8c1.3-2.9,3.5-6.4,6.8-10.5c1-1.3,2.2-2.3,3.4-2.9c0.2,4.5,1.5,7.2,4,8.3
						c0.5,0.2,1.1,0.4,1.7,0.5c3.4-0.4,6.1-2.4,8-6c1.4-4.1,0.4-6.8-2.8-8.2c-1.3-0.6-3-0.9-5-1.1l0,0c1.1-1.9,6-6.7,14.5-14.4
						c0.9-0.9,1.8-2.4,2.6-4.3c2-5.6,3.2-10.3,3.4-14.2c-2.3-12.7-2.9-20.1-2.1-22.3c7.3-1,11.7-2.8,13.2-5.4
						C1056.8,600.3,1056.1,597.4,1052,595.3z"/>
				</g>
				<g>
					<path class="st24" d="M860.6,826.3l1.7-4.2c9.3-23,20.6-46,34-68.8c10.9-18.3,23.2-35.4,37-51.4c13.8-16,28.9-30.8,45.2-44.4
						c8.1-6.7,16-13,23.9-18.7c5-3.8,15.4-10.9,31.3-21.2c4.6-3.2,7-5.2,7.3-6c-9.2,3.2-30.6,17.7-63.9,43.6
						c-22.7,19.2-39.8,36.1-51.3,50.7c-16.3,19.5-31.7,42.6-46.1,69.4c-6,11.3-9.9,20-11.8,25.9c-1.2,3-2.5,6.9-4,11.7
						C863,818.6,862,823.1,860.6,826.3z"/>
				</g>
				<g>
					<path class="st25" d="M915.5,577.2l0,0.1c-0.2,0.5-0.5,1.2-1,1.9c-0.1,0.2-0.2,0.4-0.3,0.4c-0.1,0.1-0.3,0.3-0.5,0.5
						c0.2-0.5,0.5-1,0.8-1.6C914.8,578.1,915.1,577.7,915.5,577.2L915.5,577.2z M881.1,587.3c0,0,0.1,0.2,0.2,0.7
						c0.1,0.5,0.1,0.9,0.1,1.3c0,0.6,0,1,0,1c0,0.2,0,0.6-0.1,1.1c-0.7-0.4-1.3-0.9-1.7-1.3c-0.1-0.1-0.2-0.3-0.3-0.5
						c-0.1-0.2-0.1-0.3-0.1-0.5c0-0.1,0-0.4,0-0.7l0-0.1c0-0.1,0.1-0.1,0.1-0.2C879.6,587.7,880.2,587.5,881.1,587.3L881.1,587.3
						C881.1,587.3,881.1,587.3,881.1,587.3z M838.5,632.9l0.1,0c0.3,0,0.6,0.1,1.1,0.2c0.2,0,0.3,0.1,0.5,0.1l0.3,0.1
						c0.2,0.1,0.4,0.1,0.5,0.2c-0.3,0.1-0.6,0.1-0.7,0.2c-0.1,0-0.3,0.1-0.6,0.1c-0.1,0-0.3,0-0.7,0.1c0,0-0.1,0-0.1,0
						c0-0.1-0.1-0.3-0.2-0.4c-0.1-0.1-0.2-0.2-0.2-0.2c0,0-0.1-0.1-0.2-0.2c0,0,0,0,0-0.1c0,0,0-0.1,0-0.1c0,0,0,0,0,0
						C838.4,632.9,838.4,632.9,838.5,632.9z M875.5,626C875.5,626,875.6,626,875.5,626l0.1,0c1,0,1.6,0.3,1.8,1.1
						c0.1,0.4,0.2,0.9,0.2,1.7c0,0.9-0.2,1.6-0.4,2.2c-0.1,0.2-0.2,0.5-0.5,0.7c-1.5,1.3-2.4,2-2.6,2.2c-0.5,0.5-1,1-1.5,1.5
						c-0.7,0.8-1.5,2-2.2,3.6c-0.7-1.2-1-2.3-1-3.2c-0.1-2.4,0.1-4.1,0.5-5.1c0.2-0.7,1.1-1.8,2.8-3.3
						C874,626.5,874.8,626,875.5,626z M906.6,630C906.6,630,906.7,630,906.6,630l0.2,0c0.6,0,1.1,0.1,1.6,0.5c0.6,0.5,1,1,1.2,1.7
						c0.4,0.9,0.6,1.6,0.5,2c-0.1,0.6-0.4,1.2-0.9,1.7c-0.8,1-2.7,2.1-5.6,3.3c-2.5,1-4.9,1.7-7.3,2.1c1.8-4,3.6-6.9,5.3-8.8
						c0.6-0.7,1.4-1.3,2.2-1.7C905,630.3,905.9,630,906.6,630z M924.1,640.1L924.1,640.1c0,0.1,0,0.1,0,0.2c0,0.1,0,0.2,0,0.3
						c0,0.3-0.1,0.7-0.3,1.2c-0.2,0.6-0.3,1-0.3,1.1c-0.1,0.2-0.2,0.4-0.2,0.6l-0.2,0.5c0,0.1-0.1,0.2-0.1,0.3
						c-0.3-0.5-0.7-1.1-1.1-1.7c-0.1-0.2-0.3-0.5-0.5-0.8c-0.2-0.3-0.3-0.6-0.5-0.9l0,0C921.9,640.5,923,640.3,924.1,640.1z
						 M853.1,662.1L853.1,662.1c0.4,0.1,0.9,0.6,1.3,1.6c0.3,0.7,0.4,1.6,0.4,2.7c0,1.2-0.1,2-0.2,2.5c-0.2,0.6-0.3,1-0.5,1.5h0
						c0,0-0.4,1-1.1,2.8c-0.2-0.8-0.6-1.7-1-2.5c-0.1-0.2-0.3-0.5-0.5-0.7l-1.4-1.6c-0.3-0.4-0.4-0.7-0.4-1c0.2-1.1,0.6-2.1,1.2-3.2
						c0.3-0.4,0.6-0.8,1.1-1.3C852.6,662.4,852.9,662.2,853.1,662.1z M892.9,661.9l0.2,0c1.6,0,3,0.7,4,2.1c1.4,2.2,2,4.3,2,6.3
						c0,0.7-0.2,1.5-0.6,2.5c-1,2.3-1.8,3.8-2.4,4.5c-0.9,1.1-2.2,1.7-3.8,1.8c0,0,0,0,0,0c-0.9,0-1.7-0.1-2.4-0.5
						c-0.3-0.1-1.5-1.1-3.5-2.9l-1-0.7c-1.9-1.2-3.5-2-4.8-2.4c1.4-3.1,3.4-5.8,5.9-8.1C888.4,663,890.5,662.1,892.9,661.9z
						 M820.5,681.9L820.5,681.9c0.1,0.1,0.3,0.3,0.6,0.6c-0.1,0-0.3-0.1-0.4-0.1c-0.1,0-0.1,0-0.1,0c0,0-0.1,0-0.2-0.1h0
						C820.5,682,820.5,681.9,820.5,681.9L820.5,681.9z M914.7,701.4C914.7,701.4,914.7,701.4,914.7,701.4h0.2c0.9,0.1,2,0.5,3.5,1.3
						c1,0.6,1.8,1.3,2.3,2.2c0.3,0.5,0.5,1,0.6,1.5c0.1,0.3,0.1,0.7,0,1c-0.5,0.9-1.1,1.3-1.8,1.4c0,0-0.1,0-0.1,0
						c-0.6,0-1.4-0.2-2.4-0.6c-0.5-0.2-1-0.6-1.4-1.2c-0.5-0.8-0.8-1.8-1-3c-0.1-0.3-0.1-0.7-0.2-1.2l-0.1-0.6l0-0.7
						C914.5,701.4,914.7,701.4,914.7,701.4z M885.8,705.6L885.8,705.6c1.1,0,2.1,0.6,2.8,1.8c0.9,1.7,1.4,3.5,1.6,5.5
						c-0.1,1.2-0.6,2.3-1.5,3.3c-1,1.2-2.1,1.8-3.1,1.9c0,0-0.1,0-0.1,0c0,0,0,0,0,0c-0.3,0-0.8-0.1-1.7-0.3c-0.1,0-1.7-0.4-4.7-1.2
						l-0.9-0.2c-0.6-0.1-1.4-0.1-2.3-0.1c0,0-0.1,0-0.1,0c1-2.7,2.7-5.6,5.3-8.6c0.4-0.5,1-0.9,1.9-1.3
						C884.2,705.9,885.1,705.6,885.8,705.6z M837.8,717.1L837.8,717.1c1,0,1.5,0.2,1.6,0.9c0,0.1,0,0.2,0,0.4
						c-0.2,1.3-0.4,2.3-0.5,2.9c-0.1,0.6-0.2,1.3-0.3,2.2c-0.2,1.6-0.2,3-0.2,4.4c-1.2-1.2-2.1-2.3-2.8-3.4c-0.6-1.1-1-2.2-1.1-3.2
						c0-0.5,0-0.9,0.1-1.2c0.2-0.5,0.4-0.9,0.7-1.3c0.4-0.5,0.9-0.9,1.3-1.3C837,717.2,837.4,717.1,837.8,717.1z M885.2,748.7
						C885.2,748.7,885.3,748.7,885.2,748.7l0.2,0c0.2,0,0.5,0.1,0.7,0.2c0.1,0.1,0.2,0.1,0.3,0.2l0.2,0.1c0.2,0.2,0.4,0.5,0.6,0.9
						c0.1,0.2,0.3,0.5,0.4,0.8c-0.7,0.3-1.5,0.4-2.2,0.4c-0.1,0-0.2,0-0.3,0c-0.8,0-1.6-0.1-2.2-0.4c-0.5-0.2-0.8-0.6-0.8-1
						c0-0.1,0.1-0.2,0.2-0.3l0.4-0.2l1.2-0.5c0.2-0.1,0.4-0.1,0.5-0.2c0.2-0.1,0.3-0.1,0.5-0.1C885.1,748.7,885.2,748.7,885.2,748.7
						z M915.7,572.1l-0.5,0c-3.9,0.7-6.5,4.8-7.7,12.1c-5.1,3-8.5,4.9-10.3,5.5c-4.6,1.2-8.2,1.9-10.7,2.2c0.6-4.1-0.2-7-2.4-8.7
						c-1.2-0.7-2.4-1-3.6-1c-1.6,0.1-3.2,0.9-4.7,2.4c-3.4,4.5-2,8.4,4.2,11.9c-2,7.5-5.2,13.3-9.4,17.5c-5.1,6-11.8,11.1-20.2,15.3
						l-3.4,1.6c-1.9-1.7-4-2.5-6.4-2.4c-0.3,0-0.7,0.1-1.1,0.1c-3.3,1.1-5.2,2.4-5.6,3.8c-0.6,2.2,0,4.1,1.8,5.5
						c1,0.8,2.4,1.2,4,1.1c1.5-0.1,3.4-0.5,5.4-1.4c0.4,1.2,0.6,2.4,0.6,3.6c-0.7,11.5-4,21.5-9.8,29.8c-2.4,3.8-5.1,7.7-8.2,11.5
						c-2.2-3.9-4.5-5.9-6.9-5.9c-0.3,0-0.7,0-1,0c-2.4,0.1-4.2,1.8-5.3,4.9c-0.4,1.7,0.2,3.3,1.9,4.8c1.5,1.2,4.2,2,8,2.2l0.7,1.7
						c0.4,2.1,0.4,4.3-0.1,6.5c-0.4,2-1.1,4.3-2.1,7l-5,13.4c-0.7,2.5-0.9,5.1-0.6,8c0.4,3.2,1.1,5.9,2.2,8.2
						c7.7,11.5,11.8,18.2,12.3,20.1c-0.7,4.6-2,7.6-3.7,9.1c-1.8-0.7-3.4-1-4.8-1c-0.8,0-1.6,0.2-2.3,0.5c-1.8,0.7-2.4,2-2,3.8
						c0.8,1.9,1.9,3.1,3.4,3.6c0.6,0.2,1.3,0.4,2.1,0.3c1.2-0.1,2.5-0.4,4-1.1l2,1.4c4.1,2.8,7,6.6,8.9,11.2
						c1.7,3.6,3.5,8.6,5.6,15.1c0.9,2.4,2.9,10.5,6.1,24.5c0.4,1.5,0.9,2.5,1.4,3c-3.7,0.5-6.1,2.2-7.2,5c-0.3,0.4-0.2,0.7,0.3,0.9
						c1.1,0.7,2.2,1.2,3.4,1.5c0.5-1.1,1-1.9,1.6-2.4c7.9-2,12.6-3.7,14-5.1c2.7-1.8,6-6.4,9.9-13.7c1-2.2,1.7-4.9,2-8.1
						c-0.9-9.7-1.3-15.8-1.2-18.2c0-3.4,0.4-7,1.3-10.8c0.1-0.8,1.2-2,3.3-3.7l10.7-7.5c2.3-2.8,2.9-5.8,1.9-8.9
						c3-2.2,5.5-5.1,7.3-8.8c1.3-2.8,2.7-7.2,4.2-13.1c0.4-0.9,0.9-7.4,1.6-19.2c0.3-1.8,0.9-3.5,1.8-5.3c0.8-1.3,1.7-2.4,2.7-3.2
						c0.6,5.7,3.4,8.8,8.4,9.5c0.3,0,0.7,0,1,0c3.2-0.2,5.2-1.7,6-4.6c0.7-2.6-0.1-5.1-2.3-7.6c-2.4-2.3-5.2-3.5-8.4-3.6
						c2.4-10.2,3.5-16,3.3-17.2c0.5-4.6-0.7-11.9-3.7-21.9c-0.1-2.7,0.3-6.2,1.3-10.7c0.3-1.4,0.8-2.6,1.5-3.5
						c1.8,3.4,3.9,5,6.2,4.9c0.5,0,1-0.1,1.5-0.3c2.5-1.6,3.8-4.1,3.9-7.6c-0.5-3.6-2.2-5.4-5.3-5.2c-1.2,0.1-2.6,0.4-4.2,1.1l0,0
						c0.2-1.9,2.1-7.4,5.7-16.5c0.3-1,0.5-2.5,0.4-4.3c-0.5-5-1.5-9.1-2.8-12.2c-6.5-8.9-9.9-14.3-10-16.4c5.2-3.5,7.9-6.5,8.1-9.1
						C921.2,574.2,919.6,572.2,915.7,572.1z"/>
				</g>
				<g>
					<path class="st24" d="M856,821.9l-0.3-3.9c-1.6-21.2-1.6-43.1,0.1-65.7c1.5-18.1,4.4-36,8.9-53.4c4.6-17.5,10.5-34.6,17.9-51.2
						c3.6-8.2,7.4-16,11.3-23.4c2.4-4.8,7.7-14.2,16-28.1c2.3-4.2,3.4-6.7,3.3-7.4c-5.9,5.9-16.8,25.2-32.6,57.7
						c-10.1,23.3-16.9,42.8-20.2,58.3c-5.2,21.1-8.2,44.7-9.2,70.7c-0.3,11-0.1,19.1,0.7,24.4c0.2,2.8,0.7,6.3,1.4,10.5
						C855,815.1,855.9,818.9,856,821.9z"/>
				</g>
				<g>
					<path class="st26" d="M776.9,626.8l0,0.1c0.1,0.5,0.2,1.1,0.2,1.8c0,0.2,0,0.4,0,0.4c0,0.2-0.1,0.3-0.1,0.6
						c-0.1-0.4-0.2-0.9-0.2-1.4C776.8,627.8,776.8,627.3,776.9,626.8L776.9,626.8z M758.3,650.1c0,0,0.2,0.1,0.4,0.4
						c0.3,0.3,0.5,0.6,0.7,0.8c0.3,0.4,0.5,0.6,0.5,0.7c0.1,0.2,0.3,0.4,0.4,0.8c-0.7,0-1.3,0-1.8-0.1c-0.1,0-0.3-0.1-0.5-0.2
						c-0.1-0.1-0.2-0.2-0.3-0.3c-0.1-0.1-0.2-0.3-0.3-0.5l0-0.1c0-0.1,0-0.1,0-0.2C757.5,651.1,757.8,650.7,758.3,650.1L758.3,650.1
						C758.3,650.1,758.3,650.1,758.3,650.1z M751,701.4L751,701.4c0.3-0.2,0.5-0.3,0.9-0.4c0.1,0,0.3-0.1,0.4-0.1l0.2-0.1
						c0.1,0,0.3-0.1,0.5-0.1c-0.2,0.2-0.3,0.4-0.4,0.5c-0.1,0.1-0.2,0.2-0.3,0.3c-0.1,0.1-0.2,0.2-0.4,0.4c0,0,0,0-0.1,0.1
						c-0.1-0.1-0.2-0.1-0.3-0.2c-0.1,0-0.2-0.1-0.2-0.1c0,0-0.1,0-0.2,0c0,0,0,0-0.1,0c0,0,0,0,0-0.1
						C750.9,701.5,750.9,701.5,751,701.4C750.9,701.5,751,701.4,751,701.4z M772.9,679.1C772.9,679,773,679,772.9,679.1L772.9,679.1
						c0.8-0.6,1.4-0.6,1.9-0.2c0.3,0.2,0.6,0.5,0.9,1c0.4,0.6,0.6,1.2,0.8,1.7c0,0.2,0.1,0.4,0,0.7c-0.4,1.6-0.7,2.5-0.7,2.7
						c-0.1,0.6-0.2,1.2-0.3,1.8c-0.1,0.9,0,2.1,0.2,3.5c-1-0.5-1.8-1.1-2.2-1.7c-1.2-1.6-1.9-2.9-2.1-3.7c-0.2-0.5-0.1-1.7,0.3-3.6
						C772.1,680.1,772.5,679.4,772.9,679.1z M796,666.9C796,666.9,796,666.9,796,666.9l0.1-0.1c0.4-0.3,0.8-0.4,1.3-0.5
						c0.6,0,1.2,0.2,1.6,0.5c0.7,0.4,1.1,0.8,1.3,1.1c0.2,0.5,0.3,1,0.2,1.6c-0.1,1.1-0.8,2.7-2.2,4.9c-1.2,1.9-2.5,3.5-3.9,4.9
						c-0.7-3.6-0.9-6.4-0.6-8.5c0.1-0.8,0.3-1.5,0.7-2.2C795,668,795.5,667.3,796,666.9z M812.7,665.5L812.7,665.5
						c0,0,0.1,0.1,0.1,0.2c0,0,0.1,0.1,0.1,0.2c0.1,0.2,0.2,0.5,0.4,0.9c0.2,0.5,0.3,0.8,0.3,0.9c0.1,0.2,0.1,0.4,0.2,0.5l0.1,0.5
						c0,0.1,0,0.1,0.1,0.2c-0.5-0.2-1-0.4-1.6-0.6c-0.2-0.1-0.4-0.2-0.7-0.3c-0.3-0.1-0.5-0.2-0.8-0.4l0,0
						C811.4,666.9,812,666.2,812.7,665.5z M774.9,714.3L774.9,714.3c0.3-0.1,0.9,0,1.7,0.5c0.5,0.3,1,0.9,1.5,1.7
						c0.6,0.8,0.9,1.4,1,1.8c0.2,0.5,0.3,0.9,0.4,1.2l0,0c0,0,0.2,0.8,0.6,2.4c-0.5-0.4-1.2-0.9-1.9-1.2c-0.2-0.1-0.4-0.2-0.7-0.3
						l-1.7-0.4c-0.4-0.1-0.6-0.3-0.7-0.5c-0.4-0.8-0.6-1.7-0.7-2.7c0-0.4,0-0.9,0.1-1.4C774.6,714.8,774.8,714.4,774.9,714.3z
						 M801.9,695.2l0.1-0.1c1.1-0.8,2.4-1,3.7-0.5c2,0.8,3.4,1.9,4.4,3.3c0.3,0.5,0.6,1.1,0.8,2c0.4,2,0.6,3.4,0.5,4.2
						c-0.1,1.2-0.7,2.2-1.7,3c0,0,0,0,0,0c-0.6,0.5-1.2,0.7-1.8,0.8c-0.3,0.1-1.5,0-3.8-0.3l-1,0c-1.9,0.1-3.3,0.3-4.4,0.7
						c-0.5-2.7-0.5-5.5,0.2-8.3C799.3,698.1,800.3,696.5,801.9,695.2z M762.2,743.3L762.2,743.3c0.1,0,0.4,0.1,0.7,0.2
						c-0.1,0-0.2,0.1-0.3,0.1c-0.1,0-0.1,0-0.1,0c0,0-0.1,0-0.2,0l0,0C762.2,743.4,762.2,743.3,762.2,743.3L762.2,743.3z
						 M835.5,711.7C835.5,711.7,835.5,711.7,835.5,711.7l0.2-0.1c0.6-0.4,1.6-0.6,3-0.8c1-0.1,1.8,0,2.6,0.4
						c0.4,0.2,0.8,0.4,1.1,0.7c0.2,0.2,0.4,0.4,0.5,0.7c0.1,0.8-0.1,1.4-0.6,1.8c0,0-0.1,0-0.1,0.1c-0.4,0.3-1,0.5-1.9,0.7
						c-0.5,0.1-1,0.1-1.5-0.2c-0.7-0.3-1.4-0.8-2.1-1.5c-0.2-0.2-0.4-0.4-0.7-0.7l-0.3-0.4l-0.4-0.5
						C835.4,711.8,835.5,711.7,835.5,711.7z M817.8,728.3L817.8,728.3c0.8-0.6,1.7-0.6,2.8-0.1c1.4,0.7,2.7,1.7,3.7,3
						c0.5,0.9,0.7,1.8,0.6,3c-0.1,1.3-0.5,2.2-1.2,2.8c0,0,0,0-0.1,0c0,0,0,0,0,0c-0.2,0.1-0.6,0.3-1.3,0.6
						c-0.1,0.1-1.3,0.5-3.7,1.4l-0.7,0.3c-0.5,0.2-1,0.6-1.6,1.1c0,0,0,0-0.1,0c-0.6-2.3-0.8-5.1-0.5-8.4c0.1-0.5,0.3-1.1,0.7-1.8
						C816.9,729.3,817.4,728.6,817.8,728.3z M790.7,759L790.7,759c0.7-0.5,1.1-0.6,1.5-0.2c0,0,0.1,0.1,0.2,0.3
						c0.5,1,0.8,1.8,1.1,2.2c0.2,0.4,0.5,1,0.9,1.6c0.6,1.2,1.3,2.2,1.9,3.1c-1.4-0.2-2.6-0.6-3.5-1c-0.9-0.5-1.7-1-2.3-1.7
						c-0.3-0.3-0.4-0.6-0.5-0.9c-0.1-0.4-0.2-0.8-0.1-1.2c0-0.5,0.1-1,0.3-1.5C790.2,759.4,790.4,759.2,790.7,759z M838,757.9
						C838,757.9,838,757.9,838,757.9l0.1-0.1c0.2-0.1,0.4-0.2,0.5-0.2c0.1,0,0.2,0,0.3,0l0.2,0c0.2,0.1,0.5,0.2,0.8,0.3
						c0.2,0.1,0.4,0.2,0.7,0.4c-0.4,0.5-0.8,1-1.3,1.4c-0.1,0.1-0.2,0.1-0.2,0.2c-0.6,0.4-1.1,0.7-1.6,0.8c-0.5,0.1-0.8,0-1.1-0.3
						c0-0.1,0-0.2,0-0.3l0.2-0.3l0.6-0.9c0.1-0.1,0.2-0.3,0.3-0.4c0.1-0.1,0.2-0.2,0.3-0.3C837.9,758,838,757.9,838,757.9z
						 M774.5,623.3l-0.3,0.3c-2.3,2.4-2.1,6.3,0.5,11.9c-2,4.5-3.4,7.4-4.4,8.6c-2.6,3-4.7,5.2-6.2,6.6c-1.6-3-3.5-4.6-5.8-4.8
						c-1.2,0.1-2.1,0.5-2.9,1c-1.1,0.8-1.7,2.1-2.1,3.8c-0.2,4.6,2.7,6.7,8.6,6.1c2.2,6.1,2.8,11.5,1.9,16.4
						c-0.6,6.5-2.8,13.2-6.5,20L756,696c-2.1-0.3-3.9,0.2-5.5,1.4c-0.2,0.2-0.4,0.4-0.7,0.6c-1.7,2.3-2.4,4.1-2,5.3
						c0.7,1.8,2,2.8,3.8,2.9c1.1,0.1,2.2-0.3,3.2-1.2c1-0.8,2-2,3.1-3.5c0.8,0.6,1.6,1.4,2.1,2.2c5,8.2,7.5,16.5,7.6,24.9
						c0.2,3.7,0.2,7.7-0.1,11.8c-3.4-1.6-5.9-1.9-7.5-0.8c-0.2,0.1-0.5,0.3-0.7,0.4c-1.6,1.2-2,3.2-1.2,5.9c0.5,1.4,1.7,2.2,3.6,2.4
						c1.6,0.1,3.8-0.7,6.5-2.3l1.3,0.9c1.3,1.2,2.3,2.7,3,4.5c0.6,1.5,1.3,3.4,1.9,5.7l2.9,11.5c0.7,2,1.9,3.9,3.4,5.7
						c1.8,2,3.6,3.5,5.4,4.5c10.7,4.1,16.7,6.8,17.9,7.8c1.7,3.5,2.3,6.1,1.8,8c-1.6,0.4-2.8,0.9-3.7,1.7c-0.6,0.4-1,0.9-1.3,1.5
						c-0.9,1.3-0.7,2.5,0.5,3.6c1.5,0.9,2.8,1.2,4.1,0.9c0.5-0.1,1-0.4,1.5-0.8c0.8-0.6,1.5-1.5,2.2-2.7l2,0c4.1,0,7.9,1.1,11.4,3.4
						c2.8,1.6,6.5,4.2,11,7.6c1.7,1.2,7,5.8,15.8,13.7c1,0.8,1.8,1.3,2.4,1.4c-2.3,2.1-3.1,4.4-2.5,6.8c0,0.4,0.2,0.6,0.6,0.5
						c1.1-0.1,2.1-0.3,3-0.6c-0.2-1-0.2-1.7-0.1-2.4c4.4-5.1,6.8-8.5,7.1-10.1c1-2.5,1-7.2,0.2-14.1c-0.4-2-1.2-4.2-2.5-6.4
						c-5.2-6.2-8.4-10.1-9.5-11.8c-1.7-2.3-3.1-4.9-4.3-7.9c-0.3-0.6-0.1-2,0.5-4.1l3.7-10.2c0.2-3-0.8-5.3-2.9-7
						c1-2.9,1.3-6.1,0.7-9.5c-0.4-2.6-1.6-6.2-3.4-10.9c-0.2-0.8-2.9-5.4-8.1-13.8c-0.7-1.3-1.1-2.8-1.3-4.5c0-1.3,0-2.4,0.3-3.4
						c3.1,3.5,6.5,4.4,10.2,2.5c0.2-0.2,0.5-0.3,0.7-0.5c2.1-1.6,2.7-3.6,1.9-6c-0.7-2.1-2.5-3.5-5.2-4.1c-2.7-0.4-5.2,0.1-7.5,1.5
						c-3.3-8.1-5.2-12.5-6-13.3c-1.8-3.4-6.2-7.8-13-13.1c-1.4-1.8-2.8-4.4-4.2-7.9c-0.4-1.1-0.7-2.1-0.6-3.1c2.8,1.4,5,1.5,6.5,0.4
						c0.3-0.2,0.6-0.6,0.9-0.9c0.9-2.3,0.6-4.6-1-7c-2-2.3-4.1-2.6-6.1-1c-0.8,0.6-1.6,1.5-2.4,2.7l0,0c-0.8-1.3-2.1-6-4-13.9
						c-0.3-0.9-0.9-1.9-1.8-3.1c-2.8-3.2-5.3-5.5-7.7-7c-8.7-2.9-13.5-5-14.6-6.4c1.9-4.9,2.3-8.2,1.2-10.1
						C779.3,622.1,777.2,621.5,774.5,623.3z"/>
				</g>
				<g>
					<path class="st25" d="M853,821.6l-2.1-2.5c-11.2-13.6-21.6-28.5-31.3-44.7c-7.7-13-14.1-26.6-19.4-40.6
						c-5.3-14.1-9.3-28.6-12.2-43.4c-1.4-7.3-2.6-14.4-3.5-21.3c-0.7-4.4-1.5-13.3-2.5-26.7c-0.5-4-0.9-6.2-1.2-6.6
						c-1.2,6.9,0.6,25.1,5.3,54.8c4.2,20.7,8.9,37.1,14.1,49.3c6.5,16.8,15.7,34.3,27.4,52.5c5,7.6,9.1,13,12.1,16.2
						c1.5,1.8,3.5,3.9,5.9,6.5C849.1,817.5,851.5,819.6,853,821.6z"/>
				</g>
			</g>
			<g>
				<path class="st16" d="M921,804.3l-115.3,0c-3.8,6.4-5.8,13.6-6,21.5c0,4.6,0.8,9.1,2.3,13.4l2.7,6.2c2.2,4,4.9,7.8,8.3,11.2
					c10.4,10.6,24.4,16.9,41.8,19.1c2.9,0.2,5.7,0.4,8.5,0.4c14.7,0,27.7-3.5,39-10.4c13.4-8.3,21.4-19.3,24.2-33l0.6-6.8
					C926.7,817.8,924.7,810.7,921,804.3L921,804.3z"/>
			</g>
			<g>
				<path class="st7" d="M921,804.3l-28.6,0c3,16.3,3.7,28.3,2.1,35.8c0.3,0.2-0.5,1.2-2.5,3.1c-2,1.6-5.2,3.5-9.5,5.7
					c-6.4,3.2-14.6,4.8-24.7,4.8c-1.5,0-3,0-4.5-0.1c-8.3-1-16.1-2.8-23.5-5.4l-27.5-12.8c-0.4-0.1-0.8-0.2-1.2-0.2
					c-0.1,0-0.3,0-0.4,0c0.3,1.3,0.7,2.5,1.1,3.8l2.7,6.2c2.2,4,4.9,7.8,8.3,11.2c10.4,10.6,24.4,16.9,41.8,19.1
					c2.9,0.2,5.7,0.4,8.5,0.4c14.7,0,27.7-3.5,39-10.4c13.4-8.3,21.4-19.3,24.2-33l0.6-6.8C926.7,817.8,924.7,810.7,921,804.3
					L921,804.3z"/>
			</g>
			<g>
				<path class="st6" d="M909.4,782.6l-4.1-10.6L909.4,782.6z"/>
			</g>
		</g>
	</g>
</g>
</svg>
